<?xml version="1.0" encoding="UTF-8" standalone="no"?>
<!DOCTYPE svg PUBLIC "-//W3C//DTD SVG 1.1//EN"
 "http://www.w3.org/Graphics/SVG/1.1/DTD/svg11.dtd">
<!-- Generated by graphviz version 2.43.0 (0)
 -->
<!-- Title: governance_A Pages: 1 -->
<svg width="205pt" height="288pt"
 viewBox="0.00 0.00 205.28 288.00" xmlns="http://www.w3.org/2000/svg" xmlns:xlink="http://www.w3.org/1999/xlink">
<g id="graph0" class="graph" transform="scale(1.53 1.53) rotate(0) translate(4 184)">
<title>governance_A</title>
<polygon fill="white" stroke="transparent" points="-4,4 -4,-184 130,-184 130,4 -4,4"/>
<!-- data1 -->
<g id="node1" class="node">
<title>data1</title>
<path fill="#aec7e8" stroke="black" stroke-width="1.5" d="M42,-180C42,-180 12,-180 12,-180 6,-180 0,-174 0,-168 0,-168 0,-156 0,-156 0,-150 6,-144 12,-144 12,-144 42,-144 42,-144 48,-144 54,-150 54,-156 54,-156 54,-168 54,-168 54,-174 48,-180 42,-180"/>
<text text-anchor="middle" x="27" y="-159.8" font-family="Arial" font-size="9.00">Site 1</text>
</g>
<!-- central -->
<g id="node3" class="node">
<title>central</title>
<path fill="#d62728" stroke="black" stroke-width="1.5" d="M82.5,-108C82.5,-108 45.5,-108 45.5,-108 39.5,-108 33.5,-102 33.5,-96 33.5,-96 33.5,-84 33.5,-84 33.5,-78 39.5,-72 45.5,-72 45.5,-72 82.5,-72 82.5,-72 88.5,-72 94.5,-78 94.5,-84 94.5,-84 94.5,-96 94.5,-96 94.5,-102 88.5,-108 82.5,-108"/>
<text text-anchor="middle" x="64" y="-92.8" font-family="Arial" font-size="9.00" fill="white">Central</text>
<text text-anchor="middle" x="64" y="-82.8" font-family="Arial" font-size="9.00" fill="white">Repository</text>
</g>
<!-- data1&#45;&gt;central -->
<g id="edge1" class="edge">
<title>data1&#45;&gt;central</title>
<path fill="none" stroke="black" d="M36.15,-143.7C40.4,-135.64 45.56,-125.89 50.27,-116.98"/>
<polygon fill="black" stroke="black" points="53.38,-118.58 54.96,-108.1 47.19,-115.31 53.38,-118.58"/>
</g>
<!-- data2 -->
<g id="node2" class="node">
<title>data2</title>
<path fill="#aec7e8" stroke="black" stroke-width="1.5" d="M114,-180C114,-180 84,-180 84,-180 78,-180 72,-174 72,-168 72,-168 72,-156 72,-156 72,-150 78,-144 84,-144 84,-144 114,-144 114,-144 120,-144 126,-150 126,-156 126,-156 126,-168 126,-168 126,-174 120,-180 114,-180"/>
<text text-anchor="middle" x="99" y="-159.8" font-family="Arial" font-size="9.00">Site 2</text>
</g>
<!-- data2&#45;&gt;central -->
<g id="edge2" class="edge">
<title>data2&#45;&gt;central</title>
<path fill="none" stroke="black" d="M90.35,-143.7C86.36,-135.73 81.55,-126.1 77.13,-117.26"/>
<polygon fill="black" stroke="black" points="80.15,-115.48 72.55,-108.1 73.89,-118.61 80.15,-115.48"/>
</g>
<!-- model -->
<g id="node4" class="node">
<title>model</title>
<path fill="#9467bd" stroke="black" stroke-width="1.5" d="M79,-36C79,-36 49,-36 49,-36 43,-36 37,-30 37,-24 37,-24 37,-12 37,-12 37,-6 43,0 49,0 49,0 79,0 79,0 85,0 91,-6 91,-12 91,-12 91,-24 91,-24 91,-30 85,-36 79,-36"/>
<text text-anchor="middle" x="64" y="-15.8" font-family="Arial" font-size="9.00" fill="white">Model</text>
</g>
<!-- central&#45;&gt;model -->
<g id="edge3" class="edge">
<title>central&#45;&gt;model</title>
<path fill="none" stroke="black" d="M64,-71.7C64,-63.98 64,-54.71 64,-46.11"/>
<polygon fill="black" stroke="black" points="67.5,-46.1 64,-36.1 60.5,-46.1 67.5,-46.1"/>
</g>
</g>
</svg>
