<?xml version="1.0" encoding="UTF-8" standalone="no"?>
<!DOCTYPE svg PUBLIC "-//W3C//DTD SVG 1.1//EN"
 "http://www.w3.org/Graphics/SVG/1.1/DTD/svg11.dtd">
<!-- Generated by graphviz version 2.43.0 (0)
 -->
<!-- Title: governance_B Pages: 1 -->
<svg width="360pt" height="248pt"
 viewBox="0.00 0.00 360.00 248.21" xmlns="http://www.w3.org/2000/svg" xmlns:xlink="http://www.w3.org/1999/xlink">
<g id="graph0" class="graph" transform="scale(1.89 1.89) rotate(0) translate(4 127)">
<title>governance_B</title>
<polygon fill="white" stroke="transparent" points="-4,4 -4,-127 186,-127 186,4 -4,4"/>
<!-- site1 -->
<g id="node1" class="node">
<title>site1</title>
<path fill="#2ca02c" stroke="black" stroke-width="1.5" d="M62,-123C62,-123 12,-123 12,-123 6,-123 0,-117 0,-111 0,-111 0,-99 0,-99 0,-93 6,-87 12,-87 12,-87 62,-87 62,-87 68,-87 74,-93 74,-99 74,-99 74,-111 74,-111 74,-117 68,-123 62,-123"/>
<text text-anchor="middle" x="37" y="-107.8" font-family="Arial" font-size="9.00" fill="white">Site 1</text>
<text text-anchor="middle" x="37" y="-97.8" font-family="Arial" font-size="9.00" fill="white">+ Local Model</text>
</g>
<!-- agg -->
<g id="node3" class="node">
<title>agg</title>
<path fill="#9467bd" stroke="black" stroke-width="1.5" d="M108.5,-36C108.5,-36 73.5,-36 73.5,-36 67.5,-36 61.5,-30 61.5,-24 61.5,-24 61.5,-12 61.5,-12 61.5,-6 67.5,0 73.5,0 73.5,0 108.5,0 108.5,0 114.5,0 120.5,-6 120.5,-12 120.5,-12 120.5,-24 120.5,-24 120.5,-30 114.5,-36 108.5,-36"/>
<text text-anchor="middle" x="91" y="-20.8" font-family="Arial" font-size="9.00" fill="white">Aggregate</text>
<text text-anchor="middle" x="91" y="-10.8" font-family="Arial" font-size="9.00" fill="white">Weights</text>
</g>
<!-- site1&#45;&gt;agg -->
<g id="edge1" class="edge">
<title>site1&#45;&gt;agg</title>
<path fill="none" stroke="black" d="M37.34,-86.79C37.63,-72.33 38,-54 38,-54 38,-54 46.51,-48.38 56.71,-41.64"/>
<polygon fill="black" stroke="black" points="58.71,-44.52 65.12,-36.09 54.85,-38.68 58.71,-44.52"/>
<text text-anchor="middle" x="84.5" y="-57.8" font-family="Times,serif" font-size="14.00">Weights only</text>
</g>
<!-- site2 -->
<g id="node2" class="node">
<title>site2</title>
<path fill="#2ca02c" stroke="black" stroke-width="1.5" d="M170,-123C170,-123 120,-123 120,-123 114,-123 108,-117 108,-111 108,-111 108,-99 108,-99 108,-93 114,-87 120,-87 120,-87 170,-87 170,-87 176,-87 182,-93 182,-99 182,-99 182,-111 182,-111 182,-117 176,-123 170,-123"/>
<text text-anchor="middle" x="145" y="-107.8" font-family="Arial" font-size="9.00" fill="white">Site 2</text>
<text text-anchor="middle" x="145" y="-97.8" font-family="Arial" font-size="9.00" fill="white">+ Local Model</text>
</g>
<!-- site2&#45;&gt;agg -->
<g id="edge2" class="edge">
<title>site2&#45;&gt;agg</title>
<path fill="none" stroke="black" d="M140.18,-86.79C136.13,-72.33 131,-54 131,-54 131,-54 125.44,-49.13 118.46,-43.03"/>
<polygon fill="black" stroke="black" points="120.36,-40.04 110.53,-36.09 115.75,-45.31 120.36,-40.04"/>
</g>
</g>
</svg>
