<?xml version="1.0" encoding="UTF-8" standalone="no"?>
<!DOCTYPE svg PUBLIC "-//W3C//DTD SVG 1.1//EN"
 "http://www.w3.org/Graphics/SVG/1.1/DTD/svg11.dtd">
<!-- Generated by graphviz version 2.43.0 (0)
 -->
<!-- Title: liability Pages: 1 -->
<svg width="864pt" height="87pt"
 viewBox="0.00 0.00 864.00 87.39" xmlns="http://www.w3.org/2000/svg" xmlns:xlink="http://www.w3.org/1999/xlink">
<g id="graph0" class="graph" transform="scale(1.99 1.99) rotate(0) translate(4 40)">
<title>liability</title>
<polygon fill="white" stroke="transparent" points="-4,4 -4,-40 431,-40 431,4 -4,4"/>
<!-- dev -->
<g id="node1" class="node">
<title>dev</title>
<path fill="#1f77b4" stroke="black" stroke-width="1.5" d="M47,-36C47,-36 12,-36 12,-36 6,-36 0,-30 0,-24 0,-24 0,-12 0,-12 0,-6 6,0 12,0 12,0 47,0 47,0 53,0 59,-6 59,-12 59,-12 59,-24 59,-24 59,-30 53,-36 47,-36"/>
<text text-anchor="middle" x="29.5" y="-20.8" font-family="Arial" font-size="9.00" fill="white">Model</text>
<text text-anchor="middle" x="29.5" y="-10.8" font-family="Arial" font-size="9.00" fill="white">Developer</text>
</g>
<!-- vendor -->
<g id="node2" class="node">
<title>vendor</title>
<path fill="#2ca02c" stroke="black" stroke-width="1.5" d="M137,-36C137,-36 107,-36 107,-36 101,-36 95,-30 95,-24 95,-24 95,-12 95,-12 95,-6 101,0 107,0 107,0 137,0 137,0 143,0 149,-6 149,-12 149,-12 149,-24 149,-24 149,-30 143,-36 137,-36"/>
<text text-anchor="middle" x="122" y="-20.8" font-family="Arial" font-size="9.00" fill="white">Software</text>
<text text-anchor="middle" x="122" y="-10.8" font-family="Arial" font-size="9.00" fill="white">Vendor</text>
</g>
<!-- dev&#45;&gt;vendor -->
<g id="edge1" class="edge">
<title>dev&#45;&gt;vendor</title>
<path fill="none" stroke="black" d="M59.13,-18C67.23,-18 76.16,-18 84.65,-18"/>
<polygon fill="black" stroke="black" points="84.7,-21.5 94.7,-18 84.7,-14.5 84.7,-21.5"/>
</g>
<!-- provider -->
<g id="node3" class="node">
<title>provider</title>
<path fill="#ff7f0e" stroke="black" stroke-width="1.5" d="M235,-36C235,-36 197,-36 197,-36 191,-36 185,-30 185,-24 185,-24 185,-12 185,-12 185,-6 191,0 197,0 197,0 235,0 235,0 241,0 247,-6 247,-12 247,-12 247,-24 247,-24 247,-30 241,-36 235,-36"/>
<text text-anchor="middle" x="216" y="-20.8" font-family="Arial" font-size="9.00">Healthcare</text>
<text text-anchor="middle" x="216" y="-10.8" font-family="Arial" font-size="9.00">Provider</text>
</g>
<!-- vendor&#45;&gt;provider -->
<g id="edge2" class="edge">
<title>vendor&#45;&gt;provider</title>
<path fill="none" stroke="black" d="M149.12,-18C157.14,-18 166.15,-18 174.88,-18"/>
<polygon fill="black" stroke="black" points="174.92,-21.5 184.92,-18 174.92,-14.5 174.92,-21.5"/>
</g>
<!-- clinician -->
<g id="node4" class="node">
<title>clinician</title>
<path fill="#9467bd" stroke="black" stroke-width="1.5" d="M325,-36C325,-36 295,-36 295,-36 289,-36 283,-30 283,-24 283,-24 283,-12 283,-12 283,-6 289,0 295,0 295,0 325,0 325,0 331,0 337,-6 337,-12 337,-12 337,-24 337,-24 337,-30 331,-36 325,-36"/>
<text text-anchor="middle" x="310" y="-15.8" font-family="Arial" font-size="9.00" fill="white">Clinician</text>
</g>
<!-- provider&#45;&gt;clinician -->
<g id="edge3" class="edge">
<title>provider&#45;&gt;clinician</title>
<path fill="none" stroke="black" d="M247.12,-18C255.32,-18 264.28,-18 272.78,-18"/>
<polygon fill="black" stroke="black" points="272.83,-21.5 282.83,-18 272.83,-14.5 272.83,-21.5"/>
</g>
<!-- patient -->
<g id="node5" class="node">
<title>patient</title>
<path fill="#d62728" stroke="black" stroke-width="1.5" d="M415,-36C415,-36 385,-36 385,-36 379,-36 373,-30 373,-24 373,-24 373,-12 373,-12 373,-6 379,0 385,0 385,0 415,0 415,0 421,0 427,-6 427,-12 427,-12 427,-24 427,-24 427,-30 421,-36 415,-36"/>
<text text-anchor="middle" x="400" y="-20.8" font-family="Arial" font-size="9.00" fill="white">Patient</text>
<text text-anchor="middle" x="400" y="-10.8" font-family="Arial" font-size="9.00" fill="white">Outcome</text>
</g>
<!-- clinician&#45;&gt;patient -->
<g id="edge4" class="edge">
<title>clinician&#45;&gt;patient</title>
<path fill="none" stroke="black" d="M337.4,-18C345.39,-18 354.31,-18 362.82,-18"/>
<polygon fill="black" stroke="black" points="362.92,-21.5 372.92,-18 362.92,-14.5 362.92,-21.5"/>
</g>
</g>
</svg>
