<?xml version="1.0" encoding="UTF-8" standalone="no"?>
<!DOCTYPE svg PUBLIC "-//W3C//DTD SVG 1.1//EN"
 "http://www.w3.org/Graphics/SVG/1.1/DTD/svg11.dtd">
<!-- Generated by graphviz version 2.43.0 (0)
 -->
<!-- Title: consent Pages: 1 -->
<svg width="190pt" height="432pt"
 viewBox="0.00 0.00 190.02 432.00" xmlns="http://www.w3.org/2000/svg" xmlns:xlink="http://www.w3.org/1999/xlink">
<g id="graph0" class="graph" transform="scale(1.48 1.48) rotate(0) translate(4 287)">
<title>consent</title>
<polygon fill="white" stroke="transparent" points="-4,4 -4,-287 124,-287 124,4 -4,4"/>
<!-- broad -->
<g id="node1" class="node">
<title>broad</title>
<path fill="#2ca02c" stroke="black" stroke-width="1.5" d="M42,-283C42,-283 12,-283 12,-283 6,-283 0,-277 0,-271 0,-271 0,-259 0,-259 0,-253 6,-247 12,-247 12,-247 42,-247 42,-247 48,-247 54,-253 54,-259 54,-259 54,-271 54,-271 54,-277 48,-283 42,-283"/>
<text text-anchor="middle" x="27" y="-267.8" font-family="Arial" font-size="9.00" fill="white">Broad</text>
<text text-anchor="middle" x="27" y="-257.8" font-family="Arial" font-size="9.00" fill="white">Consent</text>
</g>
<!-- tiered -->
<g id="node2" class="node">
<title>tiered</title>
<path fill="#ff7f0e" stroke="black" stroke-width="1.5" d="M42,-196C42,-196 12,-196 12,-196 6,-196 0,-190 0,-184 0,-184 0,-172 0,-172 0,-166 6,-160 12,-160 12,-160 42,-160 42,-160 48,-160 54,-166 54,-172 54,-172 54,-184 54,-184 54,-190 48,-196 42,-196"/>
<text text-anchor="middle" x="27" y="-180.8" font-family="Arial" font-size="9.00">Tiered</text>
<text text-anchor="middle" x="27" y="-170.8" font-family="Arial" font-size="9.00">Consent</text>
</g>
<!-- broad&#45;&gt;tiered -->
<g id="edge1" class="edge">
<title>broad&#45;&gt;tiered</title>
<path fill="none" stroke="black" d="M27,-246.8C27,-235.16 27,-219.55 27,-206.24"/>
<polygon fill="black" stroke="black" points="30.5,-206.18 27,-196.18 23.5,-206.18 30.5,-206.18"/>
<text text-anchor="middle" x="73.5" y="-217.8" font-family="Times,serif" font-size="14.00">More control</text>
</g>
<!-- dynamic -->
<g id="node3" class="node">
<title>dynamic</title>
<path fill="#1f77b4" stroke="black" stroke-width="1.5" d="M42,-123C42,-123 12,-123 12,-123 6,-123 0,-117 0,-111 0,-111 0,-99 0,-99 0,-93 6,-87 12,-87 12,-87 42,-87 42,-87 48,-87 54,-93 54,-99 54,-99 54,-111 54,-111 54,-117 48,-123 42,-123"/>
<text text-anchor="middle" x="27" y="-107.8" font-family="Arial" font-size="9.00" fill="white">Dynamic</text>
<text text-anchor="middle" x="27" y="-97.8" font-family="Arial" font-size="9.00" fill="white">Consent</text>
</g>
<!-- tiered&#45;&gt;dynamic -->
<g id="edge2" class="edge">
<title>tiered&#45;&gt;dynamic</title>
<path fill="none" stroke="black" d="M27,-159.81C27,-151.79 27,-142.05 27,-133.07"/>
<polygon fill="black" stroke="black" points="30.5,-133.03 27,-123.03 23.5,-133.03 30.5,-133.03"/>
</g>
<!-- specific -->
<g id="node4" class="node">
<title>specific</title>
<path fill="#9467bd" stroke="black" stroke-width="1.5" d="M42,-36C42,-36 12,-36 12,-36 6,-36 0,-30 0,-24 0,-24 0,-12 0,-12 0,-6 6,0 12,0 12,0 42,0 42,0 48,0 54,-6 54,-12 54,-12 54,-24 54,-24 54,-30 48,-36 42,-36"/>
<text text-anchor="middle" x="27" y="-20.8" font-family="Arial" font-size="9.00" fill="white">Specific</text>
<text text-anchor="middle" x="27" y="-10.8" font-family="Arial" font-size="9.00" fill="white">Consent</text>
</g>
<!-- dynamic&#45;&gt;specific -->
<g id="edge3" class="edge">
<title>dynamic&#45;&gt;specific</title>
<path fill="none" stroke="black" d="M27,-86.8C27,-75.16 27,-59.55 27,-46.24"/>
<polygon fill="black" stroke="black" points="30.5,-46.18 27,-36.18 23.5,-46.18 30.5,-46.18"/>
<text text-anchor="middle" x="72.5" y="-57.8" font-family="Times,serif" font-size="14.00">Most control</text>
</g>
</g>
</svg>
