<?xml version="1.0" encoding="UTF-8" standalone="no"?>
<!DOCTYPE svg PUBLIC "-//W3C//DTD SVG 1.1//EN"
 "http://www.w3.org/Graphics/SVG/1.1/DTD/svg11.dtd">
<!-- Generated by graphviz version 2.43.0 (0)
 -->
<!-- Title: variant_pipeline Pages: 1 -->
<svg width="320pt" height="576pt"
 viewBox="0.00 0.00 319.52 576.00" xmlns="http://www.w3.org/2000/svg" xmlns:xlink="http://www.w3.org/1999/xlink">
<g id="graph0" class="graph" transform="scale(0.75 0.75) rotate(0) translate(14.4 751.4)">
<title>variant_pipeline</title>
<polygon fill="white" stroke="transparent" points="-14.4,14.4 -14.4,-751.4 410.4,-751.4 410.4,14.4 -14.4,14.4"/>
<g id="clust1" class="cluster">
<title>cluster_prep</title>
<path fill="#f8f9fa" stroke="#1f77b4" d="M80,-622C80,-622 196,-622 196,-622 202,-622 208,-628 208,-634 208,-634 208,-717 208,-717 208,-723 202,-729 196,-729 196,-729 80,-729 80,-729 74,-729 68,-723 68,-717 68,-717 68,-634 68,-634 68,-628 74,-622 80,-622"/>
<text text-anchor="middle" x="138" y="-717" font-family="Arial" font-size="10.00">Sample Preparation</text>
</g>
<g id="clust2" class="cluster">
<title>cluster_seq</title>
<path fill="#f8f9fa" stroke="#2ca02c" d="M20,-494C20,-494 248,-494 248,-494 254,-494 260,-500 260,-506 260,-506 260,-602 260,-602 260,-608 254,-614 248,-614 248,-614 20,-614 20,-614 14,-614 8,-608 8,-602 8,-602 8,-506 8,-506 8,-500 14,-494 20,-494"/>
<text text-anchor="middle" x="134" y="-602" font-family="Arial" font-size="10.00">Sequencing</text>
</g>
<g id="clust3" class="cluster">
<title>cluster_align</title>
<path fill="#f8f9fa" stroke="#9467bd" d="M280,-400C280,-400 376,-400 376,-400 382,-400 388,-406 388,-412 388,-412 388,-542 388,-542 388,-548 382,-554 376,-554 376,-554 280,-554 280,-554 274,-554 268,-548 268,-542 268,-542 268,-412 268,-412 268,-406 274,-400 280,-400"/>
<text text-anchor="middle" x="328" y="-542" font-family="Arial" font-size="10.00">Alignment</text>
</g>
<g id="clust4" class="cluster">
<title>cluster_post</title>
<path fill="#f8f9fa" stroke="#ff7f0e" d="M293,-285C293,-285 363,-285 363,-285 369,-285 375,-291 375,-297 375,-297 375,-380 375,-380 375,-386 369,-392 363,-392 363,-392 293,-392 293,-392 287,-392 281,-386 281,-380 281,-380 281,-297 281,-297 281,-291 287,-285 293,-285"/>
<text text-anchor="middle" x="328" y="-380" font-family="Arial" font-size="10.00">Post&#45;Processing</text>
</g>
<g id="clust5" class="cluster">
<title>cluster_call</title>
<path fill="#f8f9fa" stroke="#d62728" d="M285,-170C285,-170 371,-170 371,-170 377,-170 383,-176 383,-182 383,-182 383,-265 383,-265 383,-271 377,-277 371,-277 371,-277 285,-277 285,-277 279,-277 273,-271 273,-265 273,-265 273,-182 273,-182 273,-176 279,-170 285,-170"/>
<text text-anchor="middle" x="328" y="-265" font-family="Arial" font-size="10.00">Variant Calling</text>
</g>
<g id="clust6" class="cluster">
<title>cluster_joint</title>
<path fill="#f8f9fa" stroke="#2ca02c" d="M291,-8C291,-8 365,-8 365,-8 371,-8 377,-14 377,-20 377,-20 377,-150 377,-150 377,-156 371,-162 365,-162 365,-162 291,-162 291,-162 285,-162 279,-156 279,-150 279,-150 279,-20 279,-20 279,-14 285,-8 291,-8"/>
<text text-anchor="middle" x="328" y="-150" font-family="Arial" font-size="10.00">Cohort Analysis</text>
</g>
<!-- dna -->
<g id="node1" class="node">
<title>dna</title>
<path fill="#aec7e8" stroke="#1f77b4" stroke-width="1.2" d="M188.15,-702C188.15,-702 113.23,-702 113.23,-702 107.29,-702 97.12,-697.83 92.89,-693.67 92.89,-693.67 84.43,-685.33 84.43,-685.33 80.2,-681.17 81.91,-677 87.85,-677 87.85,-677 162.77,-677 162.77,-677 168.71,-677 178.88,-681.17 183.11,-685.33 183.11,-685.33 191.57,-693.67 191.57,-693.67 195.8,-697.83 194.09,-702 188.15,-702"/>
<text text-anchor="middle" x="138" y="-687.3" font-family="Arial" font-size="9.00">DNA Sample</text>
</g>
<!-- libprep -->
<g id="node2" class="node">
<title>libprep</title>
<path fill="#f0f0f0" stroke="#333333" stroke-width="1.2" d="M161.17,-655C161.17,-655 114.83,-655 114.83,-655 110.67,-655 106.5,-650.83 106.5,-646.67 106.5,-646.67 106.5,-638.33 106.5,-638.33 106.5,-634.17 110.67,-630 114.83,-630 114.83,-630 161.17,-630 161.17,-630 165.33,-630 169.5,-634.17 169.5,-638.33 169.5,-638.33 169.5,-646.67 169.5,-646.67 169.5,-650.83 165.33,-655 161.17,-655"/>
<text text-anchor="middle" x="138" y="-640.3" font-family="Arial" font-size="9.00">Library Prep</text>
</g>
<!-- dna&#45;&gt;libprep -->
<g id="edge1" class="edge">
<title>dna&#45;&gt;libprep</title>
<path fill="none" stroke="#555555" d="M138,-676.68C138,-671.99 138,-666.5 138,-661.35"/>
<polygon fill="#555555" stroke="#555555" points="140.1,-661.09 138,-655.09 135.9,-661.09 140.1,-661.09"/>
</g>
<!-- shortread -->
<g id="node3" class="node">
<title>shortread</title>
<path fill="#aec7e8" stroke="#1f77b4" stroke-width="1.2" d="M243.67,-587C243.67,-587 160.33,-587 160.33,-587 156.17,-587 152,-582.83 152,-578.67 152,-578.67 152,-570.33 152,-570.33 152,-566.17 156.17,-562 160.33,-562 160.33,-562 243.67,-562 243.67,-562 247.83,-562 252,-566.17 252,-570.33 252,-570.33 252,-578.67 252,-578.67 252,-582.83 247.83,-587 243.67,-587"/>
<text text-anchor="middle" x="202" y="-572.3" font-family="Arial" font-size="9.00">Short&#45;Read (Illumina)</text>
</g>
<!-- libprep&#45;&gt;shortread -->
<g id="edge2" class="edge">
<title>libprep&#45;&gt;shortread</title>
<path fill="none" stroke="#555555" d="M149.44,-629.7C159.73,-619.1 174.92,-603.42 186.33,-591.66"/>
<polygon fill="#555555" stroke="#555555" points="187.99,-592.97 190.66,-587.2 184.97,-590.04 187.99,-592.97"/>
</g>
<!-- longread -->
<g id="node4" class="node">
<title>longread</title>
<path fill="#98df8a" stroke="#2ca02c" stroke-width="1.2" d="M125.67,-587C125.67,-587 24.33,-587 24.33,-587 20.17,-587 16,-582.83 16,-578.67 16,-578.67 16,-570.33 16,-570.33 16,-566.17 20.17,-562 24.33,-562 24.33,-562 125.67,-562 125.67,-562 129.83,-562 134,-566.17 134,-570.33 134,-570.33 134,-578.67 134,-578.67 134,-582.83 129.83,-587 125.67,-587"/>
<text text-anchor="middle" x="75" y="-572.3" font-family="Arial" font-size="9.00">Long&#45;Read (PacBio/ONT)</text>
</g>
<!-- libprep&#45;&gt;longread -->
<g id="edge3" class="edge">
<title>libprep&#45;&gt;longread</title>
<path fill="none" stroke="#555555" d="M126.74,-629.7C116.61,-619.1 101.65,-603.42 90.42,-591.66"/>
<polygon fill="#555555" stroke="#555555" points="91.83,-590.09 86.17,-587.2 88.79,-592.99 91.83,-590.09"/>
</g>
<!-- fastq -->
<g id="node5" class="node">
<title>fastq</title>
<polygon fill="#e8e8e8" stroke="#333333" stroke-width="1.2" points="224.83,-527 175,-527 175,-502 229,-502 229,-522.83 224.83,-527"/>
<polyline fill="none" stroke="#333333" stroke-width="1.2" points="224.83,-527 224.83,-522.83 "/>
<polyline fill="none" stroke="#333333" stroke-width="1.2" points="229,-522.83 224.83,-522.83 "/>
<text text-anchor="middle" x="202" y="-512.3" font-family="Arial" font-size="9.00">FASTQ</text>
</g>
<!-- shortread&#45;&gt;fastq -->
<g id="edge4" class="edge">
<title>shortread&#45;&gt;fastq</title>
<path fill="none" stroke="#555555" d="M202,-561.76C202,-553.59 202,-542.53 202,-533.28"/>
<polygon fill="#555555" stroke="#555555" points="204.1,-533.22 202,-527.22 199.9,-533.22 204.1,-533.22"/>
</g>
<!-- longread&#45;&gt;fastq -->
<g id="edge5" class="edge">
<title>longread&#45;&gt;fastq</title>
<path fill="none" stroke="#555555" d="M100.4,-561.9C120.73,-552.62 149.33,-539.55 171.01,-529.65"/>
<polygon fill="#555555" stroke="#555555" points="172.06,-531.48 176.65,-527.08 170.32,-527.66 172.06,-531.48"/>
</g>
<!-- aligner -->
<g id="node7" class="node">
<title>aligner</title>
<path fill="#c5b0d5" stroke="#9467bd" stroke-width="1.2" d="M371.67,-480C371.67,-480 284.33,-480 284.33,-480 280.17,-480 276,-475.83 276,-471.67 276,-471.67 276,-463.33 276,-463.33 276,-459.17 280.17,-455 284.33,-455 284.33,-455 371.67,-455 371.67,-455 375.83,-455 380,-459.17 380,-463.33 380,-463.33 380,-471.67 380,-471.67 380,-475.83 375.83,-480 371.67,-480"/>
<text text-anchor="middle" x="328" y="-465.3" font-family="Arial" font-size="9.00">BWA&#45;MEM / minimap2</text>
</g>
<!-- fastq&#45;&gt;aligner -->
<g id="edge6" class="edge">
<title>fastq&#45;&gt;aligner</title>
<path fill="none" stroke="#555555" d="M229.03,-503.85C246.8,-497.5 270.31,-489.1 289.96,-482.09"/>
<polygon fill="#555555" stroke="#555555" points="290.71,-484.05 295.66,-480.05 289.3,-480.09 290.71,-484.05"/>
</g>
<!-- ref -->
<g id="node6" class="node">
<title>ref</title>
<path fill="#e0e0e0" stroke="#7f7f7f" stroke-width="1.2" d="M378,-524.73C378,-525.98 355.59,-527 328,-527 300.41,-527 278,-525.98 278,-524.73 278,-524.73 278,-504.27 278,-504.27 278,-503.02 300.41,-502 328,-502 355.59,-502 378,-503.02 378,-504.27 378,-504.27 378,-524.73 378,-524.73"/>
<path fill="none" stroke="#7f7f7f" stroke-width="1.2" d="M378,-524.73C378,-523.47 355.59,-522.45 328,-522.45 300.41,-522.45 278,-523.47 278,-524.73"/>
<text text-anchor="middle" x="328" y="-512.3" font-family="Arial" font-size="9.00">Reference (GRCh38)</text>
</g>
<!-- ref&#45;&gt;aligner -->
<g id="edge7" class="edge">
<title>ref&#45;&gt;aligner</title>
<path fill="none" stroke="#555555" d="M328,-501.68C328,-496.99 328,-491.5 328,-486.35"/>
<polygon fill="#555555" stroke="#555555" points="330.1,-486.09 328,-480.09 325.9,-486.09 330.1,-486.09"/>
</g>
<!-- bam -->
<g id="node8" class="node">
<title>bam</title>
<polygon fill="#e8e8e8" stroke="#333333" stroke-width="1.2" points="354.33,-433 297.5,-433 297.5,-408 358.5,-408 358.5,-428.83 354.33,-433"/>
<polyline fill="none" stroke="#333333" stroke-width="1.2" points="354.33,-433 354.33,-428.83 "/>
<polyline fill="none" stroke="#333333" stroke-width="1.2" points="358.5,-428.83 354.33,-428.83 "/>
<text text-anchor="middle" x="328" y="-418.3" font-family="Arial" font-size="9.00">BAM/CRAM</text>
</g>
<!-- aligner&#45;&gt;bam -->
<g id="edge8" class="edge">
<title>aligner&#45;&gt;bam</title>
<path fill="none" stroke="#555555" d="M328,-454.68C328,-449.99 328,-444.5 328,-439.35"/>
<polygon fill="#555555" stroke="#555555" points="330.1,-439.09 328,-433.09 325.9,-439.09 330.1,-439.09"/>
</g>
<!-- dedup -->
<g id="node9" class="node">
<title>dedup</title>
<path fill="#f0f0f0" stroke="#333333" stroke-width="1.2" d="M359.17,-365C359.17,-365 296.83,-365 296.83,-365 292.67,-365 288.5,-360.83 288.5,-356.67 288.5,-356.67 288.5,-348.33 288.5,-348.33 288.5,-344.17 292.67,-340 296.83,-340 296.83,-340 359.17,-340 359.17,-340 363.33,-340 367.5,-344.17 367.5,-348.33 367.5,-348.33 367.5,-356.67 367.5,-356.67 367.5,-360.83 363.33,-365 359.17,-365"/>
<text text-anchor="middle" x="328" y="-350.3" font-family="Arial" font-size="9.00">Mark Duplicates</text>
</g>
<!-- bam&#45;&gt;dedup -->
<g id="edge9" class="edge">
<title>bam&#45;&gt;dedup</title>
<path fill="none" stroke="#555555" d="M328,-407.7C328,-397.56 328,-382.8 328,-371.24"/>
<polygon fill="#555555" stroke="#555555" points="330.1,-371.2 328,-365.2 325.9,-371.2 330.1,-371.2"/>
</g>
<!-- bqsr -->
<g id="node10" class="node">
<title>bqsr</title>
<path fill="#f0f0f0" stroke="#333333" stroke-width="1.2" d="M346.67,-318C346.67,-318 309.33,-318 309.33,-318 305.17,-318 301,-313.83 301,-309.67 301,-309.67 301,-301.33 301,-301.33 301,-297.17 305.17,-293 309.33,-293 309.33,-293 346.67,-293 346.67,-293 350.83,-293 355,-297.17 355,-301.33 355,-301.33 355,-309.67 355,-309.67 355,-313.83 350.83,-318 346.67,-318"/>
<text text-anchor="middle" x="328" y="-303.3" font-family="Arial" font-size="9.00">BQSR</text>
</g>
<!-- dedup&#45;&gt;bqsr -->
<g id="edge10" class="edge">
<title>dedup&#45;&gt;bqsr</title>
<path fill="none" stroke="#555555" d="M328,-339.68C328,-334.99 328,-329.5 328,-324.35"/>
<polygon fill="#555555" stroke="#555555" points="330.1,-324.09 328,-318.09 325.9,-324.09 330.1,-324.09"/>
</g>
<!-- caller -->
<g id="node11" class="node">
<title>caller</title>
<path fill="#c5b0d5" stroke="#9467bd" stroke-width="1.2" d="M366.67,-250C366.67,-250 289.33,-250 289.33,-250 285.17,-250 281,-245.83 281,-241.67 281,-241.67 281,-233.33 281,-233.33 281,-229.17 285.17,-225 289.33,-225 289.33,-225 366.67,-225 366.67,-225 370.83,-225 375,-229.17 375,-233.33 375,-233.33 375,-241.67 375,-241.67 375,-245.83 370.83,-250 366.67,-250"/>
<text text-anchor="middle" x="328" y="-235.3" font-family="Arial" font-size="9.00">DeepVariant / GATK</text>
</g>
<!-- bqsr&#45;&gt;caller -->
<g id="edge11" class="edge">
<title>bqsr&#45;&gt;caller</title>
<path fill="none" stroke="#555555" d="M328,-292.7C328,-282.56 328,-267.8 328,-256.24"/>
<polygon fill="#555555" stroke="#555555" points="330.1,-256.2 328,-250.2 325.9,-256.2 330.1,-256.2"/>
</g>
<!-- gvcf -->
<g id="node12" class="node">
<title>gvcf</title>
<polygon fill="#ffbb78" stroke="#ff7f0e" stroke-width="1.2" points="350.83,-203 301,-203 301,-178 355,-178 355,-198.83 350.83,-203"/>
<polyline fill="none" stroke="#ff7f0e" stroke-width="1.2" points="350.83,-203 350.83,-198.83 "/>
<polyline fill="none" stroke="#ff7f0e" stroke-width="1.2" points="355,-198.83 350.83,-198.83 "/>
<text text-anchor="middle" x="328" y="-188.3" font-family="Arial" font-size="9.00">gVCF</text>
</g>
<!-- caller&#45;&gt;gvcf -->
<g id="edge12" class="edge">
<title>caller&#45;&gt;gvcf</title>
<path fill="none" stroke="#555555" d="M328,-224.68C328,-219.99 328,-214.5 328,-209.35"/>
<polygon fill="#555555" stroke="#555555" points="330.1,-209.09 328,-203.09 325.9,-209.09 330.1,-209.09"/>
</g>
<!-- jointcall -->
<g id="node13" class="node">
<title>jointcall</title>
<path fill="#c5b0d5" stroke="#9467bd" stroke-width="1.2" d="M360.67,-135C360.67,-135 295.33,-135 295.33,-135 291.17,-135 287,-130.83 287,-126.67 287,-126.67 287,-118.33 287,-118.33 287,-114.17 291.17,-110 295.33,-110 295.33,-110 360.67,-110 360.67,-110 364.83,-110 369,-114.17 369,-118.33 369,-118.33 369,-126.67 369,-126.67 369,-130.83 364.83,-135 360.67,-135"/>
<text text-anchor="middle" x="328" y="-120.3" font-family="Arial" font-size="9.00">Joint Genotyping</text>
</g>
<!-- gvcf&#45;&gt;jointcall -->
<g id="edge13" class="edge">
<title>gvcf&#45;&gt;jointcall</title>
<path fill="none" stroke="#555555" d="M328,-177.7C328,-167.56 328,-152.8 328,-141.24"/>
<polygon fill="#555555" stroke="#555555" points="330.1,-141.2 328,-135.2 325.9,-141.2 330.1,-141.2"/>
</g>
<!-- filter -->
<g id="node14" class="node">
<title>filter</title>
<path fill="#f0f0f0" stroke="#333333" stroke-width="1.2" d="M356.17,-88C356.17,-88 299.83,-88 299.83,-88 295.67,-88 291.5,-83.83 291.5,-79.67 291.5,-79.67 291.5,-71.33 291.5,-71.33 291.5,-67.17 295.67,-63 299.83,-63 299.83,-63 356.17,-63 356.17,-63 360.33,-63 364.5,-67.17 364.5,-71.33 364.5,-71.33 364.5,-79.67 364.5,-79.67 364.5,-83.83 360.33,-88 356.17,-88"/>
<text text-anchor="middle" x="328" y="-73.3" font-family="Arial" font-size="9.00">VQSR Filtering</text>
</g>
<!-- jointcall&#45;&gt;filter -->
<g id="edge14" class="edge">
<title>jointcall&#45;&gt;filter</title>
<path fill="none" stroke="#555555" d="M328,-109.68C328,-104.99 328,-99.5 328,-94.35"/>
<polygon fill="#555555" stroke="#555555" points="330.1,-94.09 328,-88.09 325.9,-94.09 330.1,-94.09"/>
</g>
<!-- vcf -->
<g id="node15" class="node">
<title>vcf</title>
<polygon fill="#98df8a" stroke="#2ca02c" stroke-width="2" points="350.83,-41 301,-41 301,-16 355,-16 355,-36.83 350.83,-41"/>
<polyline fill="none" stroke="#2ca02c" stroke-width="2" points="350.83,-41 350.83,-36.83 "/>
<polyline fill="none" stroke="#2ca02c" stroke-width="2" points="355,-36.83 350.83,-36.83 "/>
<text text-anchor="middle" x="328" y="-26.3" font-family="Arial" font-size="9.00">VCF</text>
</g>
<!-- filter&#45;&gt;vcf -->
<g id="edge15" class="edge">
<title>filter&#45;&gt;vcf</title>
<path fill="none" stroke="#555555" d="M328,-62.68C328,-57.99 328,-52.5 328,-47.35"/>
<polygon fill="#555555" stroke="#555555" points="330.1,-47.09 328,-41.09 325.9,-47.09 330.1,-47.09"/>
</g>
</g>
</svg>
