<?xml version="1.0" encoding="utf-8" standalone="no"?>
<!DOCTYPE svg PUBLIC "-//W3C//DTD SVG 1.1//EN"
  "http://www.w3.org/Graphics/SVG/1.1/DTD/svg11.dtd">
<svg xmlns:xlink="http://www.w3.org/1999/xlink" width="321.3pt" height="263.88pt" viewBox="0 0 321.3 263.88" xmlns="http://www.w3.org/2000/svg" version="1.1">
 <metadata>
  <rdf:RDF xmlns:dc="http://purl.org/dc/elements/1.1/" xmlns:cc="http://creativecommons.org/ns#" xmlns:rdf="http://www.w3.org/1999/02/22-rdf-syntax-ns#">
   <cc:Work>
    <dc:type rdf:resource="http://purl.org/dc/dcmitype/StillImage"/>
    <dc:date>2026-01-07T22:07:10.741523</dc:date>
    <dc:format>image/svg+xml</dc:format>
    <dc:creator>
     <cc:Agent>
      <dc:title>Matplotlib v3.10.7, https://matplotlib.org/</dc:title>
     </cc:Agent>
    </dc:creator>
   </cc:Work>
  </rdf:RDF>
 </metadata>
 <defs>
  <style type="text/css">*{stroke-linejoin: round; stroke-linecap: butt}</style>
 </defs>
 <g id="figure_1">
  <g id="patch_1">
   <path d="M 0 263.88 
L 321.3 263.88 
L 321.3 0 
L 0 0 
z
" style="fill: #ffffff"/>
  </g>
  <g id="axes_1">
   <g id="patch_2">
    <path d="M 51.7005 118.2186 
L 269.5995 118.2186 
Q 280.341 118.2186 280.341 109.4868 
L 280.341 104.4972 
Q 280.341 95.7654 269.5995 95.7654 
L 51.7005 95.7654 
Q 40.959 95.7654 40.959 104.4972 
L 40.959 109.4868 
Q 40.959 118.2186 51.7005 118.2186 
z
" clip-path="url(#peb054e9c54)" style="fill: #7f7f7f; opacity: 0.8; stroke: #333333; stroke-width: 1.5; stroke-linejoin: miter"/>
   </g>
   <g id="patch_3">
    <path d="M 123.822 113.229 
L 197.478 113.229 
L 197.478 100.755 
L 123.822 100.755 
z
" clip-path="url(#peb054e9c54)" style="fill: #e0e0e0; opacity: 0.95; stroke: #555555; stroke-linejoin: miter"/>
   </g>
   <g id="patch_4">
    <path d="M 51.7005 173.1042 
L 269.5995 173.1042 
Q 280.341 173.1042 280.341 164.3724 
L 280.341 159.3828 
Q 280.341 150.651 269.5995 150.651 
L 51.7005 150.651 
Q 40.959 150.651 40.959 159.3828 
L 40.959 164.3724 
Q 40.959 173.1042 51.7005 173.1042 
z
" clip-path="url(#peb054e9c54)" style="fill: #7f7f7f; opacity: 0.8; stroke: #333333; stroke-width: 1.5; stroke-linejoin: miter"/>
   </g>
   <g id="patch_5">
    <path d="M 123.822 168.1146 
L 197.478 168.1146 
L 197.478 155.6406 
L 123.822 155.6406 
z
" clip-path="url(#peb054e9c54)" style="fill: #e0e0e0; opacity: 0.95; stroke: #555555; stroke-linejoin: miter"/>
   </g>
   <g id="patch_6">
    <path d="M 136.098 95.7654 
L 128.4255 84.5388 
L 143.7705 84.5388 
z
" clip-path="url(#peb054e9c54)" style="fill: #d62728; stroke: #333333; stroke-linejoin: miter"/>
   </g>
   <g id="patch_7">
    <path d="M 172.926 95.7654 
L 165.2535 84.5388 
L 180.5985 84.5388 
z
" clip-path="url(#peb054e9c54)" style="fill: #d62728; stroke: #333333; stroke-linejoin: miter"/>
   </g>
   <g id="text_1">
    <!-- (A) Unphased Genotypes -->
    <g transform="translate(76.54875 28.792125) scale(0.12 -0.12)">
     <defs>
      <path id="DejaVuSans-Bold-28" d="M 2413 -844 
L 1484 -844 
Q 1006 -72 778 623 
Q 550 1319 550 2003 
Q 550 2688 779 3389 
Q 1009 4091 1484 4856 
L 2413 4856 
Q 2013 4116 1813 3408 
Q 1613 2700 1613 2009 
Q 1613 1319 1811 609 
Q 2009 -100 2413 -844 
z
" transform="scale(0.015625)"/>
      <path id="DejaVuSans-Bold-41" d="M 3419 850 
L 1538 850 
L 1241 0 
L 31 0 
L 1759 4666 
L 3194 4666 
L 4922 0 
L 3713 0 
L 3419 850 
z
M 1838 1716 
L 3116 1716 
L 2478 3572 
L 1838 1716 
z
" transform="scale(0.015625)"/>
      <path id="DejaVuSans-Bold-29" d="M 513 -844 
Q 913 -100 1113 609 
Q 1313 1319 1313 2009 
Q 1313 2700 1113 3408 
Q 913 4116 513 4856 
L 1441 4856 
Q 1916 4091 2145 3389 
Q 2375 2688 2375 2003 
Q 2375 1319 2147 623 
Q 1919 -72 1441 -844 
L 513 -844 
z
" transform="scale(0.015625)"/>
      <path id="DejaVuSans-Bold-20" transform="scale(0.015625)"/>
      <path id="DejaVuSans-Bold-55" d="M 588 4666 
L 1791 4666 
L 1791 1869 
Q 1791 1291 1980 1042 
Q 2169 794 2597 794 
Q 3028 794 3217 1042 
Q 3406 1291 3406 1869 
L 3406 4666 
L 4609 4666 
L 4609 1869 
Q 4609 878 4112 393 
Q 3616 -91 2597 -91 
Q 1581 -91 1084 393 
Q 588 878 588 1869 
L 588 4666 
z
" transform="scale(0.015625)"/>
      <path id="DejaVuSans-Bold-6e" d="M 4056 2131 
L 4056 0 
L 2931 0 
L 2931 347 
L 2931 1631 
Q 2931 2084 2911 2256 
Q 2891 2428 2841 2509 
Q 2775 2619 2662 2680 
Q 2550 2741 2406 2741 
Q 2056 2741 1856 2470 
Q 1656 2200 1656 1722 
L 1656 0 
L 538 0 
L 538 3500 
L 1656 3500 
L 1656 2988 
Q 1909 3294 2193 3439 
Q 2478 3584 2822 3584 
Q 3428 3584 3742 3212 
Q 4056 2841 4056 2131 
z
" transform="scale(0.015625)"/>
      <path id="DejaVuSans-Bold-70" d="M 1656 506 
L 1656 -1331 
L 538 -1331 
L 538 3500 
L 1656 3500 
L 1656 2988 
Q 1888 3294 2169 3439 
Q 2450 3584 2816 3584 
Q 3463 3584 3878 3070 
Q 4294 2556 4294 1747 
Q 4294 938 3878 423 
Q 3463 -91 2816 -91 
Q 2450 -91 2169 54 
Q 1888 200 1656 506 
z
M 2400 2772 
Q 2041 2772 1848 2508 
Q 1656 2244 1656 1747 
Q 1656 1250 1848 986 
Q 2041 722 2400 722 
Q 2759 722 2948 984 
Q 3138 1247 3138 1747 
Q 3138 2247 2948 2509 
Q 2759 2772 2400 2772 
z
" transform="scale(0.015625)"/>
      <path id="DejaVuSans-Bold-68" d="M 4056 2131 
L 4056 0 
L 2931 0 
L 2931 347 
L 2931 1625 
Q 2931 2084 2911 2256 
Q 2891 2428 2841 2509 
Q 2775 2619 2662 2680 
Q 2550 2741 2406 2741 
Q 2056 2741 1856 2470 
Q 1656 2200 1656 1722 
L 1656 0 
L 538 0 
L 538 4863 
L 1656 4863 
L 1656 2988 
Q 1909 3294 2193 3439 
Q 2478 3584 2822 3584 
Q 3428 3584 3742 3212 
Q 4056 2841 4056 2131 
z
" transform="scale(0.015625)"/>
      <path id="DejaVuSans-Bold-61" d="M 2106 1575 
Q 1756 1575 1579 1456 
Q 1403 1338 1403 1106 
Q 1403 894 1545 773 
Q 1688 653 1941 653 
Q 2256 653 2472 879 
Q 2688 1106 2688 1447 
L 2688 1575 
L 2106 1575 
z
M 3816 1997 
L 3816 0 
L 2688 0 
L 2688 519 
Q 2463 200 2181 54 
Q 1900 -91 1497 -91 
Q 953 -91 614 226 
Q 275 544 275 1050 
Q 275 1666 698 1953 
Q 1122 2241 2028 2241 
L 2688 2241 
L 2688 2328 
Q 2688 2594 2478 2717 
Q 2269 2841 1825 2841 
Q 1466 2841 1156 2769 
Q 847 2697 581 2553 
L 581 3406 
Q 941 3494 1303 3539 
Q 1666 3584 2028 3584 
Q 2975 3584 3395 3211 
Q 3816 2838 3816 1997 
z
" transform="scale(0.015625)"/>
      <path id="DejaVuSans-Bold-73" d="M 3272 3391 
L 3272 2541 
Q 2913 2691 2578 2766 
Q 2244 2841 1947 2841 
Q 1628 2841 1473 2761 
Q 1319 2681 1319 2516 
Q 1319 2381 1436 2309 
Q 1553 2238 1856 2203 
L 2053 2175 
Q 2913 2066 3209 1816 
Q 3506 1566 3506 1031 
Q 3506 472 3093 190 
Q 2681 -91 1863 -91 
Q 1516 -91 1145 -36 
Q 775 19 384 128 
L 384 978 
Q 719 816 1070 734 
Q 1422 653 1784 653 
Q 2113 653 2278 743 
Q 2444 834 2444 1013 
Q 2444 1163 2330 1236 
Q 2216 1309 1875 1350 
L 1678 1375 
Q 931 1469 631 1722 
Q 331 1975 331 2491 
Q 331 3047 712 3315 
Q 1094 3584 1881 3584 
Q 2191 3584 2531 3537 
Q 2872 3491 3272 3391 
z
" transform="scale(0.015625)"/>
      <path id="DejaVuSans-Bold-65" d="M 4031 1759 
L 4031 1441 
L 1416 1441 
Q 1456 1047 1700 850 
Q 1944 653 2381 653 
Q 2734 653 3104 758 
Q 3475 863 3866 1075 
L 3866 213 
Q 3469 63 3072 -14 
Q 2675 -91 2278 -91 
Q 1328 -91 801 392 
Q 275 875 275 1747 
Q 275 2603 792 3093 
Q 1309 3584 2216 3584 
Q 3041 3584 3536 3087 
Q 4031 2591 4031 1759 
z
M 2881 2131 
Q 2881 2450 2695 2645 
Q 2509 2841 2209 2841 
Q 1884 2841 1681 2658 
Q 1478 2475 1428 2131 
L 2881 2131 
z
" transform="scale(0.015625)"/>
      <path id="DejaVuSans-Bold-64" d="M 2919 2988 
L 2919 4863 
L 4044 4863 
L 4044 0 
L 2919 0 
L 2919 506 
Q 2688 197 2409 53 
Q 2131 -91 1766 -91 
Q 1119 -91 703 423 
Q 288 938 288 1747 
Q 288 2556 703 3070 
Q 1119 3584 1766 3584 
Q 2128 3584 2408 3439 
Q 2688 3294 2919 2988 
z
M 2181 722 
Q 2541 722 2730 984 
Q 2919 1247 2919 1747 
Q 2919 2247 2730 2509 
Q 2541 2772 2181 2772 
Q 1825 2772 1636 2509 
Q 1447 2247 1447 1747 
Q 1447 1247 1636 984 
Q 1825 722 2181 722 
z
" transform="scale(0.015625)"/>
      <path id="DejaVuSans-Bold-47" d="M 4781 347 
Q 4331 128 3847 18 
Q 3363 -91 2847 -91 
Q 1681 -91 1000 561 
Q 319 1213 319 2328 
Q 319 3456 1012 4103 
Q 1706 4750 2913 4750 
Q 3378 4750 3804 4662 
Q 4231 4575 4609 4403 
L 4609 3438 
Q 4219 3659 3833 3768 
Q 3447 3878 3059 3878 
Q 2341 3878 1952 3476 
Q 1563 3075 1563 2328 
Q 1563 1588 1938 1184 
Q 2313 781 3003 781 
Q 3191 781 3352 804 
Q 3513 828 3641 878 
L 3641 1784 
L 2906 1784 
L 2906 2591 
L 4781 2591 
L 4781 347 
z
" transform="scale(0.015625)"/>
      <path id="DejaVuSans-Bold-6f" d="M 2203 2784 
Q 1831 2784 1636 2517 
Q 1441 2250 1441 1747 
Q 1441 1244 1636 976 
Q 1831 709 2203 709 
Q 2569 709 2762 976 
Q 2956 1244 2956 1747 
Q 2956 2250 2762 2517 
Q 2569 2784 2203 2784 
z
M 2203 3584 
Q 3106 3584 3614 3096 
Q 4122 2609 4122 1747 
Q 4122 884 3614 396 
Q 3106 -91 2203 -91 
Q 1297 -91 786 396 
Q 275 884 275 1747 
Q 275 2609 786 3096 
Q 1297 3584 2203 3584 
z
" transform="scale(0.015625)"/>
      <path id="DejaVuSans-Bold-74" d="M 1759 4494 
L 1759 3500 
L 2913 3500 
L 2913 2700 
L 1759 2700 
L 1759 1216 
Q 1759 972 1856 886 
Q 1953 800 2241 800 
L 2816 800 
L 2816 0 
L 1856 0 
Q 1194 0 917 276 
Q 641 553 641 1216 
L 641 2700 
L 84 2700 
L 84 3500 
L 641 3500 
L 641 4494 
L 1759 4494 
z
" transform="scale(0.015625)"/>
      <path id="DejaVuSans-Bold-79" d="M 78 3500 
L 1197 3500 
L 2138 1125 
L 2938 3500 
L 4056 3500 
L 2584 -331 
Q 2363 -916 2067 -1148 
Q 1772 -1381 1288 -1381 
L 641 -1381 
L 641 -647 
L 991 -647 
Q 1275 -647 1404 -556 
Q 1534 -466 1606 -231 
L 1638 -134 
L 78 3500 
z
" transform="scale(0.015625)"/>
     </defs>
     <use xlink:href="#DejaVuSans-Bold-28"/>
     <use xlink:href="#DejaVuSans-Bold-41" transform="translate(45.703125 0)"/>
     <use xlink:href="#DejaVuSans-Bold-29" transform="translate(123.095703 0)"/>
     <use xlink:href="#DejaVuSans-Bold-20" transform="translate(168.798828 0)"/>
     <use xlink:href="#DejaVuSans-Bold-55" transform="translate(203.613281 0)"/>
     <use xlink:href="#DejaVuSans-Bold-6e" transform="translate(284.814453 0)"/>
     <use xlink:href="#DejaVuSans-Bold-70" transform="translate(356.005859 0)"/>
     <use xlink:href="#DejaVuSans-Bold-68" transform="translate(427.587891 0)"/>
     <use xlink:href="#DejaVuSans-Bold-61" transform="translate(498.779297 0)"/>
     <use xlink:href="#DejaVuSans-Bold-73" transform="translate(566.259766 0)"/>
     <use xlink:href="#DejaVuSans-Bold-65" transform="translate(625.78125 0)"/>
     <use xlink:href="#DejaVuSans-Bold-64" transform="translate(693.603516 0)"/>
     <use xlink:href="#DejaVuSans-Bold-20" transform="translate(765.185547 0)"/>
     <use xlink:href="#DejaVuSans-Bold-47" transform="translate(800 0)"/>
     <use xlink:href="#DejaVuSans-Bold-65" transform="translate(882.080078 0)"/>
     <use xlink:href="#DejaVuSans-Bold-6e" transform="translate(949.902344 0)"/>
     <use xlink:href="#DejaVuSans-Bold-6f" transform="translate(1021.09375 0)"/>
     <use xlink:href="#DejaVuSans-Bold-74" transform="translate(1089.794922 0)"/>
     <use xlink:href="#DejaVuSans-Bold-79" transform="translate(1137.597656 0)"/>
     <use xlink:href="#DejaVuSans-Bold-70" transform="translate(1202.783203 0)"/>
     <use xlink:href="#DejaVuSans-Bold-65" transform="translate(1274.365234 0)"/>
     <use xlink:href="#DejaVuSans-Bold-73" transform="translate(1342.1875 0)"/>
    </g>
   </g>
   <g id="text_2">
    <!-- VCF shows: 0/1, 0/1 -->
    <g style="fill: #555555" transform="translate(103.457031 47.283963) scale(0.1 -0.1)">
     <defs>
      <path id="DejaVuSansMono-56" d="M 1925 531 
L 3022 4666 
L 3675 4666 
L 2309 0 
L 1544 0 
L 178 4666 
L 831 4666 
L 1925 531 
z
" transform="scale(0.015625)"/>
      <path id="DejaVuSansMono-43" d="M 3353 166 
Q 3113 38 2859 -26 
Q 2606 -91 2322 -91 
Q 1425 -91 929 543 
Q 434 1178 434 2328 
Q 434 3472 932 4111 
Q 1431 4750 2322 4750 
Q 2606 4750 2859 4686 
Q 3113 4622 3353 4494 
L 3353 3847 
Q 3122 4038 2856 4138 
Q 2591 4238 2322 4238 
Q 1706 4238 1400 3763 
Q 1094 3288 1094 2328 
Q 1094 1372 1400 897 
Q 1706 422 2322 422 
Q 2597 422 2861 522 
Q 3125 622 3353 813 
L 3353 166 
z
" transform="scale(0.015625)"/>
      <path id="DejaVuSansMono-46" d="M 728 4666 
L 3475 4666 
L 3475 4134 
L 1363 4134 
L 1363 2759 
L 3278 2759 
L 3278 2228 
L 1363 2228 
L 1363 0 
L 728 0 
L 728 4666 
z
" transform="scale(0.015625)"/>
      <path id="DejaVuSansMono-20" transform="scale(0.015625)"/>
      <path id="DejaVuSansMono-73" d="M 3041 3378 
L 3041 2816 
Q 2794 2959 2544 3031 
Q 2294 3103 2034 3103 
Q 1644 3103 1451 2976 
Q 1259 2850 1259 2591 
Q 1259 2356 1403 2240 
Q 1547 2125 2119 2016 
L 2350 1972 
Q 2778 1891 2998 1647 
Q 3219 1403 3219 1013 
Q 3219 494 2850 201 
Q 2481 -91 1825 -91 
Q 1566 -91 1281 -36 
Q 997 19 666 128 
L 666 722 
Q 988 556 1281 473 
Q 1575 391 1838 391 
Q 2219 391 2428 545 
Q 2638 700 2638 978 
Q 2638 1378 1872 1531 
L 1847 1538 
L 1631 1581 
Q 1134 1678 906 1908 
Q 678 2138 678 2534 
Q 678 3038 1018 3311 
Q 1359 3584 1991 3584 
Q 2272 3584 2531 3532 
Q 2791 3481 3041 3378 
z
" transform="scale(0.015625)"/>
      <path id="DejaVuSansMono-68" d="M 3284 2169 
L 3284 0 
L 2706 0 
L 2706 2169 
Q 2706 2641 2540 2862 
Q 2375 3084 2022 3084 
Q 1619 3084 1401 2798 
Q 1184 2513 1184 1978 
L 1184 0 
L 609 0 
L 609 4863 
L 1184 4863 
L 1184 2975 
Q 1338 3275 1600 3429 
Q 1863 3584 2222 3584 
Q 2756 3584 3020 3232 
Q 3284 2881 3284 2169 
z
" transform="scale(0.015625)"/>
      <path id="DejaVuSansMono-6f" d="M 1925 3097 
Q 1488 3097 1263 2756 
Q 1038 2416 1038 1747 
Q 1038 1081 1263 739 
Q 1488 397 1925 397 
Q 2366 397 2591 739 
Q 2816 1081 2816 1747 
Q 2816 2416 2591 2756 
Q 2366 3097 1925 3097 
z
M 1925 3584 
Q 2653 3584 3039 3112 
Q 3425 2641 3425 1747 
Q 3425 850 3040 379 
Q 2656 -91 1925 -91 
Q 1197 -91 812 379 
Q 428 850 428 1747 
Q 428 2641 812 3112 
Q 1197 3584 1925 3584 
z
" transform="scale(0.015625)"/>
      <path id="DejaVuSansMono-77" d="M 0 3500 
L 569 3500 
L 1178 672 
L 1678 2478 
L 2169 2478 
L 2675 672 
L 3284 3500 
L 3853 3500 
L 3034 0 
L 2484 0 
L 1925 1919 
L 1369 0 
L 819 0 
L 0 3500 
z
" transform="scale(0.015625)"/>
      <path id="DejaVuSansMono-3a" d="M 1528 3322 
L 2316 3322 
L 2316 2375 
L 1528 2375 
L 1528 3322 
z
M 1528 953 
L 2316 953 
L 2316 0 
L 1528 0 
L 1528 953 
z
" transform="scale(0.015625)"/>
      <path id="DejaVuSansMono-30" d="M 1509 2344 
Q 1509 2516 1629 2641 
Q 1750 2766 1919 2766 
Q 2094 2766 2219 2641 
Q 2344 2516 2344 2344 
Q 2344 2169 2220 2047 
Q 2097 1925 1919 1925 
Q 1744 1925 1626 2044 
Q 1509 2163 1509 2344 
z
M 1925 4250 
Q 1484 4250 1267 3775 
Q 1050 3300 1050 2328 
Q 1050 1359 1267 884 
Q 1484 409 1925 409 
Q 2369 409 2586 884 
Q 2803 1359 2803 2328 
Q 2803 3300 2586 3775 
Q 2369 4250 1925 4250 
z
M 1925 4750 
Q 2672 4750 3055 4137 
Q 3438 3525 3438 2328 
Q 3438 1134 3055 521 
Q 2672 -91 1925 -91 
Q 1178 -91 797 521 
Q 416 1134 416 2328 
Q 416 3525 797 4137 
Q 1178 4750 1925 4750 
z
" transform="scale(0.015625)"/>
      <path id="DejaVuSansMono-2f" d="M 2778 4666 
L 3372 4666 
L 916 -594 
L 319 -594 
L 2778 4666 
z
" transform="scale(0.015625)"/>
      <path id="DejaVuSansMono-31" d="M 844 531 
L 1825 531 
L 1825 4097 
L 769 3859 
L 769 4434 
L 1819 4666 
L 2450 4666 
L 2450 531 
L 3419 531 
L 3419 0 
L 844 0 
L 844 531 
z
" transform="scale(0.015625)"/>
      <path id="DejaVuSansMono-2c" d="M 1569 947 
L 2356 947 
L 2356 300 
L 1741 -897 
L 1259 -897 
L 1569 300 
L 1569 947 
z
" transform="scale(0.015625)"/>
     </defs>
     <use xlink:href="#DejaVuSansMono-56"/>
     <use xlink:href="#DejaVuSansMono-43" transform="translate(60.205078 0)"/>
     <use xlink:href="#DejaVuSansMono-46" transform="translate(120.410156 0)"/>
     <use xlink:href="#DejaVuSansMono-20" transform="translate(180.615234 0)"/>
     <use xlink:href="#DejaVuSansMono-73" transform="translate(240.820312 0)"/>
     <use xlink:href="#DejaVuSansMono-68" transform="translate(301.025391 0)"/>
     <use xlink:href="#DejaVuSansMono-6f" transform="translate(361.230469 0)"/>
     <use xlink:href="#DejaVuSansMono-77" transform="translate(421.435547 0)"/>
     <use xlink:href="#DejaVuSansMono-73" transform="translate(481.640625 0)"/>
     <use xlink:href="#DejaVuSansMono-3a" transform="translate(541.845703 0)"/>
     <use xlink:href="#DejaVuSansMono-20" transform="translate(602.050781 0)"/>
     <use xlink:href="#DejaVuSansMono-30" transform="translate(662.255859 0)"/>
     <use xlink:href="#DejaVuSansMono-2f" transform="translate(722.460938 0)"/>
     <use xlink:href="#DejaVuSansMono-31" transform="translate(782.666016 0)"/>
     <use xlink:href="#DejaVuSansMono-2c" transform="translate(842.871094 0)"/>
     <use xlink:href="#DejaVuSansMono-20" transform="translate(903.076172 0)"/>
     <use xlink:href="#DejaVuSansMono-30" transform="translate(963.28125 0)"/>
     <use xlink:href="#DejaVuSansMono-2f" transform="translate(1023.486328 0)"/>
     <use xlink:href="#DejaVuSansMono-31" transform="translate(1083.691406 0)"/>
    </g>
   </g>
   <g id="text_3">
    <!-- (phase unknown) -->
    <g style="fill: #555555" transform="translate(117.352344 62.199637) scale(0.1 -0.1)">
     <defs>
      <path id="DejaVuSans-Oblique-28" d="M 2731 4856 
Q 1903 3822 1495 2892 
Q 1088 1963 1088 1100 
Q 1088 606 1206 120 
Q 1325 -366 1563 -844 
L 1063 -844 
Q 775 -306 634 201 
Q 494 709 494 1197 
Q 494 2125 923 3036 
Q 1353 3947 2222 4856 
L 2731 4856 
z
" transform="scale(0.015625)"/>
      <path id="DejaVuSans-Oblique-70" d="M 3175 2156 
Q 3175 2616 2975 2859 
Q 2775 3103 2400 3103 
Q 2144 3103 1911 2972 
Q 1678 2841 1497 2591 
Q 1319 2344 1212 1994 
Q 1106 1644 1106 1300 
Q 1106 863 1306 627 
Q 1506 391 1875 391 
Q 2147 391 2380 519 
Q 2613 647 2778 891 
Q 2956 1147 3065 1494 
Q 3175 1841 3175 2156 
z
M 1394 2969 
Q 1625 3272 1939 3428 
Q 2253 3584 2638 3584 
Q 3175 3584 3472 3232 
Q 3769 2881 3769 2247 
Q 3769 1728 3584 1258 
Q 3400 788 3053 416 
Q 2822 169 2531 39 
Q 2241 -91 1919 -91 
Q 1547 -91 1294 64 
Q 1041 219 916 525 
L 556 -1331 
L -19 -1331 
L 922 3500 
L 1497 3500 
L 1394 2969 
z
" transform="scale(0.015625)"/>
      <path id="DejaVuSans-Oblique-68" d="M 3566 2113 
L 3156 0 
L 2578 0 
L 2988 2091 
Q 3016 2238 3031 2350 
Q 3047 2463 3047 2528 
Q 3047 2791 2881 2937 
Q 2716 3084 2419 3084 
Q 1956 3084 1617 2771 
Q 1278 2459 1178 1941 
L 800 0 
L 225 0 
L 1172 4863 
L 1747 4863 
L 1375 2950 
Q 1594 3244 1934 3414 
Q 2275 3584 2650 3584 
Q 3113 3584 3367 3334 
Q 3622 3084 3622 2631 
Q 3622 2519 3608 2391 
Q 3594 2263 3566 2113 
z
" transform="scale(0.015625)"/>
      <path id="DejaVuSans-Oblique-61" d="M 3438 1997 
L 3047 0 
L 2472 0 
L 2578 531 
Q 2325 219 2001 64 
Q 1678 -91 1281 -91 
Q 834 -91 548 182 
Q 263 456 263 884 
Q 263 1497 752 1853 
Q 1241 2209 2100 2209 
L 2900 2209 
L 2931 2363 
Q 2938 2388 2941 2417 
Q 2944 2447 2944 2509 
Q 2944 2788 2717 2942 
Q 2491 3097 2081 3097 
Q 1800 3097 1504 3025 
Q 1209 2953 897 2809 
L 997 3341 
Q 1322 3463 1633 3523 
Q 1944 3584 2234 3584 
Q 2853 3584 3176 3315 
Q 3500 3047 3500 2534 
Q 3500 2431 3484 2292 
Q 3469 2153 3438 1997 
z
M 2816 1759 
L 2241 1759 
Q 1534 1759 1195 1570 
Q 856 1381 856 984 
Q 856 709 1029 553 
Q 1203 397 1509 397 
Q 1978 397 2328 733 
Q 2678 1069 2791 1631 
L 2816 1759 
z
" transform="scale(0.015625)"/>
      <path id="DejaVuSans-Oblique-73" d="M 3200 3397 
L 3091 2853 
Q 2863 2978 2609 3040 
Q 2356 3103 2088 3103 
Q 1634 3103 1373 2948 
Q 1113 2794 1113 2528 
Q 1113 2219 1719 2053 
Q 1766 2041 1788 2034 
L 1972 1978 
Q 2547 1819 2739 1644 
Q 2931 1469 2931 1166 
Q 2931 609 2489 259 
Q 2047 -91 1331 -91 
Q 1053 -91 747 -37 
Q 441 16 72 128 
L 184 722 
Q 500 559 806 475 
Q 1113 391 1394 391 
Q 1816 391 2080 572 
Q 2344 753 2344 1031 
Q 2344 1331 1650 1516 
L 1591 1531 
L 1394 1581 
Q 956 1697 753 1886 
Q 550 2075 550 2369 
Q 550 2928 970 3256 
Q 1391 3584 2113 3584 
Q 2397 3584 2667 3537 
Q 2938 3491 3200 3397 
z
" transform="scale(0.015625)"/>
      <path id="DejaVuSans-Oblique-65" d="M 3078 2063 
Q 3088 2113 3092 2166 
Q 3097 2219 3097 2272 
Q 3097 2653 2873 2875 
Q 2650 3097 2266 3097 
Q 1838 3097 1509 2826 
Q 1181 2556 1013 2059 
L 3078 2063 
z
M 3578 1613 
L 903 1613 
Q 884 1494 878 1425 
Q 872 1356 872 1306 
Q 872 872 1139 634 
Q 1406 397 1894 397 
Q 2269 397 2603 481 
Q 2938 566 3225 728 
L 3116 159 
Q 2806 34 2476 -28 
Q 2147 -91 1806 -91 
Q 1078 -91 686 257 
Q 294 606 294 1247 
Q 294 1794 489 2264 
Q 684 2734 1063 3103 
Q 1306 3334 1642 3459 
Q 1978 3584 2356 3584 
Q 2950 3584 3301 3228 
Q 3653 2872 3653 2272 
Q 3653 2128 3634 1964 
Q 3616 1800 3578 1613 
z
" transform="scale(0.015625)"/>
      <path id="DejaVuSans-Oblique-20" transform="scale(0.015625)"/>
      <path id="DejaVuSans-Oblique-75" d="M 428 1388 
L 838 3500 
L 1416 3500 
L 1006 1409 
Q 975 1256 961 1147 
Q 947 1038 947 966 
Q 947 700 1109 554 
Q 1272 409 1569 409 
Q 2031 409 2368 721 
Q 2706 1034 2809 1563 
L 3194 3500 
L 3769 3500 
L 3091 0 
L 2516 0 
L 2631 550 
Q 2388 244 2052 76 
Q 1716 -91 1338 -91 
Q 878 -91 622 161 
Q 366 413 366 863 
Q 366 956 381 1097 
Q 397 1238 428 1388 
z
" transform="scale(0.015625)"/>
      <path id="DejaVuSans-Oblique-6e" d="M 3566 2113 
L 3156 0 
L 2578 0 
L 2988 2091 
Q 3016 2238 3031 2350 
Q 3047 2463 3047 2528 
Q 3047 2791 2881 2937 
Q 2716 3084 2419 3084 
Q 1956 3084 1622 2776 
Q 1288 2469 1184 1941 
L 800 0 
L 225 0 
L 903 3500 
L 1478 3500 
L 1363 2950 
Q 1603 3253 1940 3418 
Q 2278 3584 2650 3584 
Q 3113 3584 3367 3334 
Q 3622 3084 3622 2631 
Q 3622 2519 3608 2391 
Q 3594 2263 3566 2113 
z
" transform="scale(0.015625)"/>
      <path id="DejaVuSans-Oblique-6b" d="M 1172 4863 
L 1747 4863 
L 1197 2028 
L 3169 3500 
L 3916 3500 
L 1716 1825 
L 3322 0 
L 2625 0 
L 1131 1709 
L 800 0 
L 225 0 
L 1172 4863 
z
" transform="scale(0.015625)"/>
      <path id="DejaVuSans-Oblique-6f" d="M 1625 -91 
Q 1009 -91 651 289 
Q 294 669 294 1325 
Q 294 1706 417 2101 
Q 541 2497 738 2766 
Q 1047 3184 1428 3384 
Q 1809 3584 2291 3584 
Q 2888 3584 3255 3212 
Q 3622 2841 3622 2241 
Q 3622 1825 3500 1412 
Q 3378 1000 3181 728 
Q 2875 309 2494 109 
Q 2113 -91 1625 -91 
z
M 891 1344 
Q 891 869 1089 633 
Q 1288 397 1691 397 
Q 2269 397 2648 901 
Q 3028 1406 3028 2181 
Q 3028 2634 2825 2865 
Q 2622 3097 2228 3097 
Q 1903 3097 1650 2945 
Q 1397 2794 1197 2484 
Q 1050 2253 970 1956 
Q 891 1659 891 1344 
z
" transform="scale(0.015625)"/>
      <path id="DejaVuSans-Oblique-77" d="M 544 3500 
L 1113 3500 
L 1259 684 
L 2566 3500 
L 3231 3500 
L 3425 684 
L 4666 3500 
L 5241 3500 
L 3641 0 
L 2969 0 
L 2797 2900 
L 1459 0 
L 781 0 
L 544 3500 
z
" transform="scale(0.015625)"/>
      <path id="DejaVuSans-Oblique-29" d="M -397 -844 
Q 434 191 840 1120 
Q 1247 2050 1247 2913 
Q 1247 3406 1130 3892 
Q 1013 4378 775 4856 
L 1275 4856 
Q 1563 4316 1703 3812 
Q 1844 3309 1844 2822 
Q 1844 1891 1411 973 
Q 978 56 116 -844 
L -397 -844 
z
" transform="scale(0.015625)"/>
     </defs>
     <use xlink:href="#DejaVuSans-Oblique-28"/>
     <use xlink:href="#DejaVuSans-Oblique-70" transform="translate(39.013672 0)"/>
     <use xlink:href="#DejaVuSans-Oblique-68" transform="translate(102.490234 0)"/>
     <use xlink:href="#DejaVuSans-Oblique-61" transform="translate(165.869141 0)"/>
     <use xlink:href="#DejaVuSans-Oblique-73" transform="translate(227.148438 0)"/>
     <use xlink:href="#DejaVuSans-Oblique-65" transform="translate(279.248047 0)"/>
     <use xlink:href="#DejaVuSans-Oblique-20" transform="translate(340.771484 0)"/>
     <use xlink:href="#DejaVuSans-Oblique-75" transform="translate(372.558594 0)"/>
     <use xlink:href="#DejaVuSans-Oblique-6e" transform="translate(435.9375 0)"/>
     <use xlink:href="#DejaVuSans-Oblique-6b" transform="translate(499.316406 0)"/>
     <use xlink:href="#DejaVuSans-Oblique-6e" transform="translate(557.226562 0)"/>
     <use xlink:href="#DejaVuSans-Oblique-6f" transform="translate(620.605469 0)"/>
     <use xlink:href="#DejaVuSans-Oblique-77" transform="translate(681.787109 0)"/>
     <use xlink:href="#DejaVuSans-Oblique-6e" transform="translate(763.574219 0)"/>
     <use xlink:href="#DejaVuSans-Oblique-29" transform="translate(826.953125 0)"/>
    </g>
   </g>
   <g id="text_4">
    <!-- CFTR -->
    <g style="fill: #333333" transform="translate(146.303906 109.751375) scale(0.1 -0.1)">
     <defs>
      <path id="DejaVuSans-Bold-43" d="M 4288 256 
Q 3956 84 3597 -3 
Q 3238 -91 2847 -91 
Q 1681 -91 1000 561 
Q 319 1213 319 2328 
Q 319 3447 1000 4098 
Q 1681 4750 2847 4750 
Q 3238 4750 3597 4662 
Q 3956 4575 4288 4403 
L 4288 3438 
Q 3953 3666 3628 3772 
Q 3303 3878 2944 3878 
Q 2300 3878 1931 3465 
Q 1563 3053 1563 2328 
Q 1563 1606 1931 1193 
Q 2300 781 2944 781 
Q 3303 781 3628 887 
Q 3953 994 4288 1222 
L 4288 256 
z
" transform="scale(0.015625)"/>
      <path id="DejaVuSans-Bold-46" d="M 588 4666 
L 3834 4666 
L 3834 3756 
L 1791 3756 
L 1791 2888 
L 3713 2888 
L 3713 1978 
L 1791 1978 
L 1791 0 
L 588 0 
L 588 4666 
z
" transform="scale(0.015625)"/>
      <path id="DejaVuSans-Bold-54" d="M 31 4666 
L 4331 4666 
L 4331 3756 
L 2784 3756 
L 2784 0 
L 1581 0 
L 1581 3756 
L 31 3756 
L 31 4666 
z
" transform="scale(0.015625)"/>
      <path id="DejaVuSans-Bold-52" d="M 2297 2597 
Q 2675 2597 2839 2737 
Q 3003 2878 3003 3200 
Q 3003 3519 2839 3656 
Q 2675 3794 2297 3794 
L 1791 3794 
L 1791 2597 
L 2297 2597 
z
M 1791 1766 
L 1791 0 
L 588 0 
L 588 4666 
L 2425 4666 
Q 3347 4666 3776 4356 
Q 4206 4047 4206 3378 
Q 4206 2916 3982 2619 
Q 3759 2322 3309 2181 
Q 3556 2125 3751 1926 
Q 3947 1728 4147 1325 
L 4800 0 
L 3519 0 
L 2950 1159 
Q 2778 1509 2601 1637 
Q 2425 1766 2131 1766 
L 1791 1766 
z
" transform="scale(0.015625)"/>
     </defs>
     <use xlink:href="#DejaVuSans-Bold-43"/>
     <use xlink:href="#DejaVuSans-Bold-46" transform="translate(73.388672 0)"/>
     <use xlink:href="#DejaVuSans-Bold-54" transform="translate(141.699219 0)"/>
     <use xlink:href="#DejaVuSans-Bold-52" transform="translate(209.912109 0)"/>
    </g>
   </g>
   <g id="text_5">
    <!-- Haplotype ? -->
    <g style="fill: #7f7f7f" transform="translate(16.407 109.712312) scale(0.1 -0.1)">
     <defs>
      <path id="DejaVuSans-Bold-48" d="M 588 4666 
L 1791 4666 
L 1791 2888 
L 3566 2888 
L 3566 4666 
L 4769 4666 
L 4769 0 
L 3566 0 
L 3566 1978 
L 1791 1978 
L 1791 0 
L 588 0 
L 588 4666 
z
" transform="scale(0.015625)"/>
      <path id="DejaVuSans-Bold-6c" d="M 538 4863 
L 1656 4863 
L 1656 0 
L 538 0 
L 538 4863 
z
" transform="scale(0.015625)"/>
      <path id="DejaVuSans-Bold-3f" d="M 2216 1575 
L 1088 1575 
L 1088 1728 
Q 1088 1984 1191 2182 
Q 1294 2381 1625 2688 
L 1825 2869 
Q 2003 3031 2086 3175 
Q 2169 3319 2169 3463 
Q 2169 3681 2019 3804 
Q 1869 3928 1600 3928 
Q 1347 3928 1053 3823 
Q 759 3719 441 3513 
L 441 4494 
Q 819 4625 1131 4687 
Q 1444 4750 1734 4750 
Q 2497 4750 2897 4439 
Q 3297 4128 3297 3531 
Q 3297 3225 3175 2983 
Q 3053 2741 2759 2463 
L 2559 2284 
Q 2347 2091 2281 1973 
Q 2216 1856 2216 1716 
L 2216 1575 
z
M 1088 1113 
L 2216 1113 
L 2216 0 
L 1088 0 
L 1088 1113 
z
" transform="scale(0.015625)"/>
     </defs>
     <use xlink:href="#DejaVuSans-Bold-48"/>
     <use xlink:href="#DejaVuSans-Bold-61" transform="translate(83.691406 0)"/>
     <use xlink:href="#DejaVuSans-Bold-70" transform="translate(151.171875 0)"/>
     <use xlink:href="#DejaVuSans-Bold-6c" transform="translate(222.753906 0)"/>
     <use xlink:href="#DejaVuSans-Bold-6f" transform="translate(257.03125 0)"/>
     <use xlink:href="#DejaVuSans-Bold-74" transform="translate(325.732422 0)"/>
     <use xlink:href="#DejaVuSans-Bold-79" transform="translate(373.535156 0)"/>
     <use xlink:href="#DejaVuSans-Bold-70" transform="translate(438.720703 0)"/>
     <use xlink:href="#DejaVuSans-Bold-65" transform="translate(510.302734 0)"/>
     <use xlink:href="#DejaVuSans-Bold-20" transform="translate(578.125 0)"/>
     <use xlink:href="#DejaVuSans-Bold-3f" transform="translate(612.939453 0)"/>
    </g>
   </g>
   <g id="text_6">
    <!-- CFTR -->
    <g style="fill: #333333" transform="translate(146.303906 164.636975) scale(0.1 -0.1)">
     <use xlink:href="#DejaVuSans-Bold-43"/>
     <use xlink:href="#DejaVuSans-Bold-46" transform="translate(73.388672 0)"/>
     <use xlink:href="#DejaVuSans-Bold-54" transform="translate(141.699219 0)"/>
     <use xlink:href="#DejaVuSans-Bold-52" transform="translate(209.912109 0)"/>
    </g>
   </g>
   <g id="text_7">
    <!-- Haplotype ? -->
    <g style="fill: #7f7f7f" transform="translate(16.407 164.597913) scale(0.1 -0.1)">
     <use xlink:href="#DejaVuSans-Bold-48"/>
     <use xlink:href="#DejaVuSans-Bold-61" transform="translate(83.691406 0)"/>
     <use xlink:href="#DejaVuSans-Bold-70" transform="translate(151.171875 0)"/>
     <use xlink:href="#DejaVuSans-Bold-6c" transform="translate(222.753906 0)"/>
     <use xlink:href="#DejaVuSans-Bold-6f" transform="translate(257.03125 0)"/>
     <use xlink:href="#DejaVuSans-Bold-74" transform="translate(325.732422 0)"/>
     <use xlink:href="#DejaVuSans-Bold-79" transform="translate(373.535156 0)"/>
     <use xlink:href="#DejaVuSans-Bold-70" transform="translate(438.720703 0)"/>
     <use xlink:href="#DejaVuSans-Bold-65" transform="translate(510.302734 0)"/>
     <use xlink:href="#DejaVuSans-Bold-20" transform="translate(578.125 0)"/>
     <use xlink:href="#DejaVuSans-Bold-3f" transform="translate(612.939453 0)"/>
    </g>
   </g>
   <g id="text_8">
    <!-- F508del -->
    <g style="fill: #d62728" transform="translate(115.814953 82.032638) scale(0.09 -0.09)">
     <defs>
      <path id="DejaVuSans-Bold-35" d="M 678 4666 
L 3669 4666 
L 3669 3781 
L 1638 3781 
L 1638 3059 
Q 1775 3097 1914 3117 
Q 2053 3138 2203 3138 
Q 3056 3138 3531 2711 
Q 4006 2284 4006 1522 
Q 4006 766 3489 337 
Q 2972 -91 2053 -91 
Q 1656 -91 1267 -14 
Q 878 63 494 219 
L 494 1166 
Q 875 947 1217 837 
Q 1559 728 1863 728 
Q 2300 728 2551 942 
Q 2803 1156 2803 1522 
Q 2803 1891 2551 2103 
Q 2300 2316 1863 2316 
Q 1603 2316 1309 2248 
Q 1016 2181 678 2041 
L 678 4666 
z
" transform="scale(0.015625)"/>
      <path id="DejaVuSans-Bold-30" d="M 2944 2338 
Q 2944 3213 2780 3570 
Q 2616 3928 2228 3928 
Q 1841 3928 1675 3570 
Q 1509 3213 1509 2338 
Q 1509 1453 1675 1090 
Q 1841 728 2228 728 
Q 2613 728 2778 1090 
Q 2944 1453 2944 2338 
z
M 4147 2328 
Q 4147 1169 3647 539 
Q 3147 -91 2228 -91 
Q 1306 -91 806 539 
Q 306 1169 306 2328 
Q 306 3491 806 4120 
Q 1306 4750 2228 4750 
Q 3147 4750 3647 4120 
Q 4147 3491 4147 2328 
z
" transform="scale(0.015625)"/>
      <path id="DejaVuSans-Bold-38" d="M 2228 2088 
Q 1891 2088 1709 1903 
Q 1528 1719 1528 1375 
Q 1528 1031 1709 848 
Q 1891 666 2228 666 
Q 2563 666 2741 848 
Q 2919 1031 2919 1375 
Q 2919 1722 2741 1905 
Q 2563 2088 2228 2088 
z
M 1350 2484 
Q 925 2613 709 2878 
Q 494 3144 494 3541 
Q 494 4131 934 4440 
Q 1375 4750 2228 4750 
Q 3075 4750 3515 4442 
Q 3956 4134 3956 3541 
Q 3956 3144 3739 2878 
Q 3522 2613 3097 2484 
Q 3572 2353 3814 2058 
Q 4056 1763 4056 1313 
Q 4056 619 3595 264 
Q 3134 -91 2228 -91 
Q 1319 -91 855 264 
Q 391 619 391 1313 
Q 391 1763 633 2058 
Q 875 2353 1350 2484 
z
M 1631 3419 
Q 1631 3141 1786 2991 
Q 1941 2841 2228 2841 
Q 2509 2841 2662 2991 
Q 2816 3141 2816 3419 
Q 2816 3697 2662 3845 
Q 2509 3994 2228 3994 
Q 1941 3994 1786 3844 
Q 1631 3694 1631 3419 
z
" transform="scale(0.015625)"/>
     </defs>
     <use xlink:href="#DejaVuSans-Bold-46"/>
     <use xlink:href="#DejaVuSans-Bold-35" transform="translate(68.310547 0)"/>
     <use xlink:href="#DejaVuSans-Bold-30" transform="translate(137.890625 0)"/>
     <use xlink:href="#DejaVuSans-Bold-38" transform="translate(207.470703 0)"/>
     <use xlink:href="#DejaVuSans-Bold-64" transform="translate(277.050781 0)"/>
     <use xlink:href="#DejaVuSans-Bold-65" transform="translate(348.632812 0)"/>
     <use xlink:href="#DejaVuSans-Bold-6c" transform="translate(416.455078 0)"/>
    </g>
   </g>
   <g id="text_9">
    <!-- G551D -->
    <g style="fill: #d62728" transform="translate(156.103734 82.032638) scale(0.09 -0.09)">
     <defs>
      <path id="DejaVuSans-Bold-31" d="M 750 831 
L 1813 831 
L 1813 3847 
L 722 3622 
L 722 4441 
L 1806 4666 
L 2950 4666 
L 2950 831 
L 4013 831 
L 4013 0 
L 750 0 
L 750 831 
z
" transform="scale(0.015625)"/>
      <path id="DejaVuSans-Bold-44" d="M 1791 3756 
L 1791 909 
L 2222 909 
Q 2959 909 3348 1275 
Q 3738 1641 3738 2338 
Q 3738 3031 3350 3393 
Q 2963 3756 2222 3756 
L 1791 3756 
z
M 588 4666 
L 1856 4666 
Q 2919 4666 3439 4514 
Q 3959 4363 4331 4000 
Q 4659 3684 4818 3271 
Q 4978 2859 4978 2338 
Q 4978 1809 4818 1395 
Q 4659 981 4331 666 
Q 3956 303 3431 151 
Q 2906 0 1856 0 
L 588 0 
L 588 4666 
z
" transform="scale(0.015625)"/>
     </defs>
     <use xlink:href="#DejaVuSans-Bold-47"/>
     <use xlink:href="#DejaVuSans-Bold-35" transform="translate(82.080078 0)"/>
     <use xlink:href="#DejaVuSans-Bold-35" transform="translate(151.660156 0)"/>
     <use xlink:href="#DejaVuSans-Bold-31" transform="translate(221.240234 0)"/>
     <use xlink:href="#DejaVuSans-Bold-44" transform="translate(290.820312 0)"/>
    </g>
   </g>
   <g id="text_10">
    <!-- ? -->
    <g style="fill: #d62728" transform="translate(147.550125 141.0573) scale(0.24 -0.24)">
     <use xlink:href="#DejaVuSans-Bold-3f"/>
    </g>
   </g>
   <g id="text_11">
    <!-- Which variants are inherited together? -->
    <g style="fill: #555555" transform="translate(63.76875 214.532975) scale(0.1 -0.1)">
     <defs>
      <path id="DejaVuSans-Oblique-57" d="M 616 4666 
L 1228 4666 
L 1453 697 
L 3213 4666 
L 3916 4666 
L 4147 697 
L 5888 4666 
L 6528 4666 
L 4453 0 
L 3659 0 
L 3444 3891 
L 1697 0 
L 903 0 
L 616 4666 
z
" transform="scale(0.015625)"/>
      <path id="DejaVuSans-Oblique-69" d="M 1172 4863 
L 1747 4863 
L 1606 4134 
L 1031 4134 
L 1172 4863 
z
M 909 3500 
L 1484 3500 
L 800 0 
L 225 0 
L 909 3500 
z
" transform="scale(0.015625)"/>
      <path id="DejaVuSans-Oblique-63" d="M 3431 3366 
L 3316 2797 
Q 3109 2947 2876 3022 
Q 2644 3097 2394 3097 
Q 2119 3097 1870 3000 
Q 1622 2903 1453 2725 
Q 1184 2453 1037 2087 
Q 891 1722 891 1331 
Q 891 859 1127 628 
Q 1363 397 1844 397 
Q 2081 397 2348 469 
Q 2616 541 2906 684 
L 2797 116 
Q 2547 13 2283 -39 
Q 2019 -91 1741 -91 
Q 1044 -91 669 257 
Q 294 606 294 1253 
Q 294 1797 489 2255 
Q 684 2713 1069 3078 
Q 1331 3328 1684 3456 
Q 2038 3584 2456 3584 
Q 2700 3584 2940 3529 
Q 3181 3475 3431 3366 
z
" transform="scale(0.015625)"/>
      <path id="DejaVuSans-Oblique-76" d="M 459 3500 
L 1069 3500 
L 1581 525 
L 3256 3500 
L 3866 3500 
L 1875 0 
L 1100 0 
L 459 3500 
z
" transform="scale(0.015625)"/>
      <path id="DejaVuSans-Oblique-72" d="M 2853 2969 
Q 2766 3016 2653 3041 
Q 2541 3066 2413 3066 
Q 1953 3066 1609 2717 
Q 1266 2369 1153 1784 
L 800 0 
L 225 0 
L 909 3500 
L 1484 3500 
L 1375 2956 
Q 1603 3259 1920 3421 
Q 2238 3584 2597 3584 
Q 2691 3584 2781 3573 
Q 2872 3563 2963 3538 
L 2853 2969 
z
" transform="scale(0.015625)"/>
      <path id="DejaVuSans-Oblique-74" d="M 2706 3500 
L 2619 3053 
L 1472 3053 
L 1100 1153 
Q 1081 1047 1072 975 
Q 1063 903 1063 863 
Q 1063 663 1183 572 
Q 1303 481 1569 481 
L 2150 481 
L 2053 0 
L 1503 0 
Q 991 0 739 200 
Q 488 400 488 806 
Q 488 878 497 964 
Q 506 1050 525 1153 
L 897 3053 
L 409 3053 
L 500 3500 
L 978 3500 
L 1172 4494 
L 1747 4494 
L 1556 3500 
L 2706 3500 
z
" transform="scale(0.015625)"/>
      <path id="DejaVuSans-Oblique-64" d="M 2675 525 
Q 2444 222 2128 65 
Q 1813 -91 1428 -91 
Q 903 -91 598 267 
Q 294 625 294 1247 
Q 294 1766 478 2236 
Q 663 2706 1013 3078 
Q 1244 3325 1534 3454 
Q 1825 3584 2144 3584 
Q 2481 3584 2739 3421 
Q 2997 3259 3138 2956 
L 3513 4863 
L 4091 4863 
L 3144 0 
L 2566 0 
L 2675 525 
z
M 891 1350 
Q 891 897 1095 644 
Q 1300 391 1663 391 
Q 1931 391 2161 520 
Q 2391 650 2566 903 
Q 2750 1166 2856 1509 
Q 2963 1853 2963 2188 
Q 2963 2622 2758 2865 
Q 2553 3109 2194 3109 
Q 1922 3109 1687 2981 
Q 1453 2853 1288 2613 
Q 1106 2353 998 2009 
Q 891 1666 891 1350 
z
" transform="scale(0.015625)"/>
      <path id="DejaVuSans-Oblique-67" d="M 3816 3500 
L 3219 434 
Q 3047 -456 2561 -893 
Q 2075 -1331 1253 -1331 
Q 950 -1331 690 -1286 
Q 431 -1241 206 -1147 
L 313 -588 
Q 525 -725 762 -790 
Q 1000 -856 1269 -856 
Q 1816 -856 2167 -557 
Q 2519 -259 2631 300 
L 2681 563 
Q 2441 288 2122 144 
Q 1803 0 1434 0 
Q 903 0 598 351 
Q 294 703 294 1319 
Q 294 1803 478 2267 
Q 663 2731 997 3091 
Q 1219 3328 1514 3456 
Q 1809 3584 2131 3584 
Q 2484 3584 2746 3420 
Q 3009 3256 3138 2956 
L 3238 3500 
L 3816 3500 
z
M 2950 2216 
Q 2950 2641 2750 2872 
Q 2550 3103 2181 3103 
Q 1953 3103 1747 3012 
Q 1541 2922 1394 2759 
Q 1156 2491 1023 2127 
Q 891 1763 891 1375 
Q 891 944 1092 712 
Q 1294 481 1672 481 
Q 2219 481 2584 976 
Q 2950 1472 2950 2216 
z
" transform="scale(0.015625)"/>
      <path id="DejaVuSans-Oblique-3f" d="M 1594 794 
L 1441 0 
L 806 0 
L 959 794 
L 1594 794 
z
M 903 4397 
Q 1222 4575 1539 4662 
Q 1856 4750 2188 4750 
Q 2691 4750 2981 4515 
Q 3272 4281 3272 3878 
Q 3272 3556 3105 3275 
Q 2938 2994 2559 2688 
L 2234 2425 
Q 1972 2219 1884 2072 
Q 1797 1925 1741 1638 
L 1663 1253 
L 1069 1253 
L 1166 1734 
Q 1222 2028 1344 2233 
Q 1466 2438 1813 2725 
L 2144 3003 
Q 2406 3222 2512 3387 
Q 2619 3553 2619 3731 
Q 2619 3969 2448 4103 
Q 2278 4238 1978 4238 
Q 1728 4238 1420 4127 
Q 1113 4016 788 3809 
L 903 4397 
z
" transform="scale(0.015625)"/>
     </defs>
     <use xlink:href="#DejaVuSans-Oblique-57"/>
     <use xlink:href="#DejaVuSans-Oblique-68" transform="translate(98.876953 0)"/>
     <use xlink:href="#DejaVuSans-Oblique-69" transform="translate(162.255859 0)"/>
     <use xlink:href="#DejaVuSans-Oblique-63" transform="translate(190.039062 0)"/>
     <use xlink:href="#DejaVuSans-Oblique-68" transform="translate(245.019531 0)"/>
     <use xlink:href="#DejaVuSans-Oblique-20" transform="translate(308.398438 0)"/>
     <use xlink:href="#DejaVuSans-Oblique-76" transform="translate(340.185547 0)"/>
     <use xlink:href="#DejaVuSans-Oblique-61" transform="translate(399.365234 0)"/>
     <use xlink:href="#DejaVuSans-Oblique-72" transform="translate(460.644531 0)"/>
     <use xlink:href="#DejaVuSans-Oblique-69" transform="translate(501.757812 0)"/>
     <use xlink:href="#DejaVuSans-Oblique-61" transform="translate(529.541016 0)"/>
     <use xlink:href="#DejaVuSans-Oblique-6e" transform="translate(590.820312 0)"/>
     <use xlink:href="#DejaVuSans-Oblique-74" transform="translate(654.199219 0)"/>
     <use xlink:href="#DejaVuSans-Oblique-73" transform="translate(693.408203 0)"/>
     <use xlink:href="#DejaVuSans-Oblique-20" transform="translate(745.507812 0)"/>
     <use xlink:href="#DejaVuSans-Oblique-61" transform="translate(777.294922 0)"/>
     <use xlink:href="#DejaVuSans-Oblique-72" transform="translate(838.574219 0)"/>
     <use xlink:href="#DejaVuSans-Oblique-65" transform="translate(879.6875 0)"/>
     <use xlink:href="#DejaVuSans-Oblique-20" transform="translate(941.210938 0)"/>
     <use xlink:href="#DejaVuSans-Oblique-69" transform="translate(972.998047 0)"/>
     <use xlink:href="#DejaVuSans-Oblique-6e" transform="translate(1000.78125 0)"/>
     <use xlink:href="#DejaVuSans-Oblique-68" transform="translate(1064.160156 0)"/>
     <use xlink:href="#DejaVuSans-Oblique-65" transform="translate(1127.539062 0)"/>
     <use xlink:href="#DejaVuSans-Oblique-72" transform="translate(1189.0625 0)"/>
     <use xlink:href="#DejaVuSans-Oblique-69" transform="translate(1230.175781 0)"/>
     <use xlink:href="#DejaVuSans-Oblique-74" transform="translate(1257.958984 0)"/>
     <use xlink:href="#DejaVuSans-Oblique-65" transform="translate(1297.167969 0)"/>
     <use xlink:href="#DejaVuSans-Oblique-64" transform="translate(1358.691406 0)"/>
     <use xlink:href="#DejaVuSans-Oblique-20" transform="translate(1422.167969 0)"/>
     <use xlink:href="#DejaVuSans-Oblique-74" transform="translate(1453.955078 0)"/>
     <use xlink:href="#DejaVuSans-Oblique-6f" transform="translate(1493.164062 0)"/>
     <use xlink:href="#DejaVuSans-Oblique-67" transform="translate(1554.345703 0)"/>
     <use xlink:href="#DejaVuSans-Oblique-65" transform="translate(1617.822266 0)"/>
     <use xlink:href="#DejaVuSans-Oblique-74" transform="translate(1679.345703 0)"/>
     <use xlink:href="#DejaVuSans-Oblique-68" transform="translate(1718.554688 0)"/>
     <use xlink:href="#DejaVuSans-Oblique-65" transform="translate(1781.933594 0)"/>
     <use xlink:href="#DejaVuSans-Oblique-72" transform="translate(1843.457031 0)"/>
     <use xlink:href="#DejaVuSans-Oblique-3f" transform="translate(1884.570312 0)"/>
    </g>
   </g>
   <g id="text_12">
    <!-- Phase determines clinical outcome -->
    <g style="fill: #333333" transform="translate(62.291406 234.491375) scale(0.1 -0.1)">
     <defs>
      <path id="DejaVuSans-Bold-50" d="M 588 4666 
L 2584 4666 
Q 3475 4666 3951 4270 
Q 4428 3875 4428 3144 
Q 4428 2409 3951 2014 
Q 3475 1619 2584 1619 
L 1791 1619 
L 1791 0 
L 588 0 
L 588 4666 
z
M 1791 3794 
L 1791 2491 
L 2456 2491 
Q 2806 2491 2997 2661 
Q 3188 2831 3188 3144 
Q 3188 3456 2997 3625 
Q 2806 3794 2456 3794 
L 1791 3794 
z
" transform="scale(0.015625)"/>
      <path id="DejaVuSans-Bold-72" d="M 3138 2547 
Q 2991 2616 2845 2648 
Q 2700 2681 2553 2681 
Q 2122 2681 1889 2404 
Q 1656 2128 1656 1613 
L 1656 0 
L 538 0 
L 538 3500 
L 1656 3500 
L 1656 2925 
Q 1872 3269 2151 3426 
Q 2431 3584 2822 3584 
Q 2878 3584 2943 3579 
Q 3009 3575 3134 3559 
L 3138 2547 
z
" transform="scale(0.015625)"/>
      <path id="DejaVuSans-Bold-6d" d="M 3781 2919 
Q 3994 3244 4286 3414 
Q 4578 3584 4928 3584 
Q 5531 3584 5847 3212 
Q 6163 2841 6163 2131 
L 6163 0 
L 5038 0 
L 5038 1825 
Q 5041 1866 5042 1909 
Q 5044 1953 5044 2034 
Q 5044 2406 4934 2573 
Q 4825 2741 4581 2741 
Q 4263 2741 4089 2478 
Q 3916 2216 3909 1719 
L 3909 0 
L 2784 0 
L 2784 1825 
Q 2784 2406 2684 2573 
Q 2584 2741 2328 2741 
Q 2006 2741 1831 2477 
Q 1656 2213 1656 1722 
L 1656 0 
L 531 0 
L 531 3500 
L 1656 3500 
L 1656 2988 
Q 1863 3284 2130 3434 
Q 2397 3584 2719 3584 
Q 3081 3584 3359 3409 
Q 3638 3234 3781 2919 
z
" transform="scale(0.015625)"/>
      <path id="DejaVuSans-Bold-69" d="M 538 3500 
L 1656 3500 
L 1656 0 
L 538 0 
L 538 3500 
z
M 538 4863 
L 1656 4863 
L 1656 3950 
L 538 3950 
L 538 4863 
z
" transform="scale(0.015625)"/>
      <path id="DejaVuSans-Bold-63" d="M 3366 3391 
L 3366 2478 
Q 3138 2634 2908 2709 
Q 2678 2784 2431 2784 
Q 1963 2784 1702 2511 
Q 1441 2238 1441 1747 
Q 1441 1256 1702 982 
Q 1963 709 2431 709 
Q 2694 709 2930 787 
Q 3166 866 3366 1019 
L 3366 103 
Q 3103 6 2833 -42 
Q 2563 -91 2291 -91 
Q 1344 -91 809 395 
Q 275 881 275 1747 
Q 275 2613 809 3098 
Q 1344 3584 2291 3584 
Q 2566 3584 2833 3536 
Q 3100 3488 3366 3391 
z
" transform="scale(0.015625)"/>
      <path id="DejaVuSans-Bold-75" d="M 500 1363 
L 500 3500 
L 1625 3500 
L 1625 3150 
Q 1625 2866 1622 2436 
Q 1619 2006 1619 1863 
Q 1619 1441 1641 1255 
Q 1663 1069 1716 984 
Q 1784 875 1895 815 
Q 2006 756 2150 756 
Q 2500 756 2700 1025 
Q 2900 1294 2900 1772 
L 2900 3500 
L 4019 3500 
L 4019 0 
L 2900 0 
L 2900 506 
Q 2647 200 2364 54 
Q 2081 -91 1741 -91 
Q 1134 -91 817 281 
Q 500 653 500 1363 
z
" transform="scale(0.015625)"/>
     </defs>
     <use xlink:href="#DejaVuSans-Bold-50"/>
     <use xlink:href="#DejaVuSans-Bold-68" transform="translate(73.291016 0)"/>
     <use xlink:href="#DejaVuSans-Bold-61" transform="translate(144.482422 0)"/>
     <use xlink:href="#DejaVuSans-Bold-73" transform="translate(211.962891 0)"/>
     <use xlink:href="#DejaVuSans-Bold-65" transform="translate(271.484375 0)"/>
     <use xlink:href="#DejaVuSans-Bold-20" transform="translate(339.306641 0)"/>
     <use xlink:href="#DejaVuSans-Bold-64" transform="translate(374.121094 0)"/>
     <use xlink:href="#DejaVuSans-Bold-65" transform="translate(445.703125 0)"/>
     <use xlink:href="#DejaVuSans-Bold-74" transform="translate(513.525391 0)"/>
     <use xlink:href="#DejaVuSans-Bold-65" transform="translate(561.328125 0)"/>
     <use xlink:href="#DejaVuSans-Bold-72" transform="translate(629.150391 0)"/>
     <use xlink:href="#DejaVuSans-Bold-6d" transform="translate(678.466797 0)"/>
     <use xlink:href="#DejaVuSans-Bold-69" transform="translate(782.666016 0)"/>
     <use xlink:href="#DejaVuSans-Bold-6e" transform="translate(816.943359 0)"/>
     <use xlink:href="#DejaVuSans-Bold-65" transform="translate(888.134766 0)"/>
     <use xlink:href="#DejaVuSans-Bold-73" transform="translate(955.957031 0)"/>
     <use xlink:href="#DejaVuSans-Bold-20" transform="translate(1015.478516 0)"/>
     <use xlink:href="#DejaVuSans-Bold-63" transform="translate(1050.292969 0)"/>
     <use xlink:href="#DejaVuSans-Bold-6c" transform="translate(1109.570312 0)"/>
     <use xlink:href="#DejaVuSans-Bold-69" transform="translate(1143.847656 0)"/>
     <use xlink:href="#DejaVuSans-Bold-6e" transform="translate(1178.125 0)"/>
     <use xlink:href="#DejaVuSans-Bold-69" transform="translate(1249.316406 0)"/>
     <use xlink:href="#DejaVuSans-Bold-63" transform="translate(1283.59375 0)"/>
     <use xlink:href="#DejaVuSans-Bold-61" transform="translate(1342.871094 0)"/>
     <use xlink:href="#DejaVuSans-Bold-6c" transform="translate(1410.351562 0)"/>
     <use xlink:href="#DejaVuSans-Bold-20" transform="translate(1444.628906 0)"/>
     <use xlink:href="#DejaVuSans-Bold-6f" transform="translate(1479.443359 0)"/>
     <use xlink:href="#DejaVuSans-Bold-75" transform="translate(1548.144531 0)"/>
     <use xlink:href="#DejaVuSans-Bold-74" transform="translate(1619.335938 0)"/>
     <use xlink:href="#DejaVuSans-Bold-63" transform="translate(1667.138672 0)"/>
     <use xlink:href="#DejaVuSans-Bold-6f" transform="translate(1726.416016 0)"/>
     <use xlink:href="#DejaVuSans-Bold-6d" transform="translate(1795.117188 0)"/>
     <use xlink:href="#DejaVuSans-Bold-65" transform="translate(1899.316406 0)"/>
    </g>
   </g>
  </g>
 </g>
 <defs>
  <clipPath id="peb054e9c54">
   <rect x="7.2" y="7.2" width="306.9" height="249.48"/>
  </clipPath>
 </defs>
</svg>
