<?xml version="1.0" encoding="utf-8" standalone="no"?>
<!DOCTYPE svg PUBLIC "-//W3C//DTD SVG 1.1//EN"
  "http://www.w3.org/Graphics/SVG/1.1/DTD/svg11.dtd">
<svg xmlns:xlink="http://www.w3.org/1999/xlink" width="644.94375pt" height="459.154375pt" viewBox="0 0 644.94375 459.154375" xmlns="http://www.w3.org/2000/svg" version="1.1">
 <metadata>
  <rdf:RDF xmlns:dc="http://purl.org/dc/elements/1.1/" xmlns:cc="http://creativecommons.org/ns#" xmlns:rdf="http://www.w3.org/1999/02/22-rdf-syntax-ns#">
   <cc:Work>
    <dc:type rdf:resource="http://purl.org/dc/dcmitype/StillImage"/>
    <dc:date>2026-01-07T22:08:12.660497</dc:date>
    <dc:format>image/svg+xml</dc:format>
    <dc:creator>
     <cc:Agent>
      <dc:title>Matplotlib v3.10.7, https://matplotlib.org/</dc:title>
     </cc:Agent>
    </dc:creator>
   </cc:Work>
  </rdf:RDF>
 </metadata>
 <defs>
  <style type="text/css">*{stroke-linejoin: round; stroke-linecap: butt}</style>
 </defs>
 <g id="figure_1">
  <g id="patch_1">
   <path d="M 0 459.154375 
L 644.94375 459.154375 
L 644.94375 0 
L 0 0 
z
" style="fill: #ffffff"/>
  </g>
  <g id="axes_1">
   <g id="patch_2">
    <path d="M 118.215 72.524355 
L 418.3632 72.524355 
Q 436.7772 72.524355 436.7772 66.579299 
L 436.7772 64.597614 
Q 436.7772 58.652559 418.3632 58.652559 
L 118.215 58.652559 
Q 99.801 58.652559 99.801 64.597614 
L 99.801 66.579299 
Q 99.801 72.524355 118.215 72.524355 
z
" clip-path="url(#pcbb95452e9)" style="fill: #e8e8e8; stroke: #666666; stroke-linejoin: miter"/>
   </g>
   <g id="patch_3">
    <path d="M 176.37255 70.54267 
L 194.78655 70.54267 
L 194.78655 60.634244 
L 176.37255 60.634244 
z
" clip-path="url(#pcbb95452e9)" style="fill: #7f7f7f"/>
   </g>
   <g id="patch_4">
    <path d="M 109.486764 70.54267 
L 122.720292 70.54267 
L 122.720292 60.634244 
L 109.486764 60.634244 
z
" clip-path="url(#pcbb95452e9)" style="fill: #d62728; opacity: 0.9"/>
   </g>
   <g id="patch_5">
    <path d="M 118.215 120.084797 
L 383.9904 120.084797 
Q 402.4044 120.084797 402.4044 114.139742 
L 402.4044 112.158057 
Q 402.4044 106.213002 383.9904 106.213002 
L 118.215 106.213002 
Q 99.801 106.213002 99.801 112.158057 
L 99.801 114.139742 
Q 99.801 120.084797 118.215 120.084797 
z
" clip-path="url(#pcbb95452e9)" style="fill: #e8e8e8; stroke: #666666; stroke-linejoin: miter"/>
   </g>
   <g id="patch_6">
    <path d="M 197.42589 118.103112 
L 215.83989 118.103112 
L 215.83989 108.194687 
L 197.42589 108.194687 
z
" clip-path="url(#pcbb95452e9)" style="fill: #7f7f7f"/>
   </g>
   <g id="patch_7">
    <path d="M 185.880312 118.103112 
L 215.526852 118.103112 
L 215.526852 108.194687 
L 185.880312 108.194687 
z
" clip-path="url(#pcbb95452e9)" style="fill: #ff7f0e; opacity: 0.9"/>
   </g>
   <g id="patch_8">
    <path d="M 118.215 167.64524 
L 177.7536 167.64524 
Q 196.1676 167.64524 196.1676 161.700185 
L 196.1676 159.718499 
Q 196.1676 153.773444 177.7536 153.773444 
L 118.215 153.773444 
Q 99.801 153.773444 99.801 159.718499 
L 99.801 161.700185 
Q 99.801 167.64524 118.215 167.64524 
z
" clip-path="url(#pcbb95452e9)" style="fill: #e8e8e8; stroke: #666666; stroke-linejoin: miter"/>
   </g>
   <g id="patch_9">
    <path d="M 125.24301 165.663555 
L 143.65701 165.663555 
L 143.65701 155.755129 
L 125.24301 155.755129 
z
" clip-path="url(#pcbb95452e9)" style="fill: #7f7f7f"/>
   </g>
   <g id="patch_10">
    <path d="M 152.49573 165.663555 
L 164.225448 165.663555 
L 164.225448 155.755129 
L 152.49573 155.755129 
z
" clip-path="url(#pcbb95452e9)" style="fill: #9467bd; opacity: 0.9"/>
   </g>
   <g id="patch_11">
    <path d="M 116.40429 165.663555 
L 125.42715 165.663555 
L 125.42715 155.755129 
L 116.40429 155.755129 
z
" clip-path="url(#pcbb95452e9)" style="fill: #ffbb78; opacity: 0.9"/>
   </g>
   <g id="patch_12">
    <path d="M 118.215 215.205682 
L 358.2108 215.205682 
Q 376.6248 215.205682 376.6248 209.260627 
L 376.6248 207.278942 
Q 376.6248 201.333887 358.2108 201.333887 
L 118.215 201.333887 
Q 99.801 201.333887 99.801 207.278942 
L 99.801 209.260627 
Q 99.801 215.205682 118.215 215.205682 
z
" clip-path="url(#pcbb95452e9)" style="fill: #e8e8e8; stroke: #666666; stroke-linejoin: miter"/>
   </g>
   <g id="patch_13">
    <path d="M 196.523604 213.223997 
L 214.937604 213.223997 
L 214.937604 203.315572 
L 196.523604 203.315572 
z
" clip-path="url(#pcbb95452e9)" style="fill: #7f7f7f"/>
   </g>
   <g id="patch_14">
    <path d="M 332.95293 213.223997 
L 351.900936 213.223997 
L 351.900936 203.315572 
L 332.95293 203.315572 
z
" clip-path="url(#pcbb95452e9)" style="fill: #d62728; opacity: 0.9"/>
   </g>
   <g id="text_1">
    <!-- Chr 4 -->
    <g transform="translate(30.075875 68.347832) scale(0.1 -0.1)">
     <defs>
      <path id="DejaVuSans-Bold-43" d="M 4288 256 
Q 3956 84 3597 -3 
Q 3238 -91 2847 -91 
Q 1681 -91 1000 561 
Q 319 1213 319 2328 
Q 319 3447 1000 4098 
Q 1681 4750 2847 4750 
Q 3238 4750 3597 4662 
Q 3956 4575 4288 4403 
L 4288 3438 
Q 3953 3666 3628 3772 
Q 3303 3878 2944 3878 
Q 2300 3878 1931 3465 
Q 1563 3053 1563 2328 
Q 1563 1606 1931 1193 
Q 2300 781 2944 781 
Q 3303 781 3628 887 
Q 3953 994 4288 1222 
L 4288 256 
z
" transform="scale(0.015625)"/>
      <path id="DejaVuSans-Bold-68" d="M 4056 2131 
L 4056 0 
L 2931 0 
L 2931 347 
L 2931 1625 
Q 2931 2084 2911 2256 
Q 2891 2428 2841 2509 
Q 2775 2619 2662 2680 
Q 2550 2741 2406 2741 
Q 2056 2741 1856 2470 
Q 1656 2200 1656 1722 
L 1656 0 
L 538 0 
L 538 4863 
L 1656 4863 
L 1656 2988 
Q 1909 3294 2193 3439 
Q 2478 3584 2822 3584 
Q 3428 3584 3742 3212 
Q 4056 2841 4056 2131 
z
" transform="scale(0.015625)"/>
      <path id="DejaVuSans-Bold-72" d="M 3138 2547 
Q 2991 2616 2845 2648 
Q 2700 2681 2553 2681 
Q 2122 2681 1889 2404 
Q 1656 2128 1656 1613 
L 1656 0 
L 538 0 
L 538 3500 
L 1656 3500 
L 1656 2925 
Q 1872 3269 2151 3426 
Q 2431 3584 2822 3584 
Q 2878 3584 2943 3579 
Q 3009 3575 3134 3559 
L 3138 2547 
z
" transform="scale(0.015625)"/>
      <path id="DejaVuSans-Bold-20" transform="scale(0.015625)"/>
      <path id="DejaVuSans-Bold-34" d="M 2356 3675 
L 1038 1722 
L 2356 1722 
L 2356 3675 
z
M 2156 4666 
L 3494 4666 
L 3494 1722 
L 4159 1722 
L 4159 850 
L 3494 850 
L 3494 0 
L 2356 0 
L 2356 850 
L 288 850 
L 288 1881 
L 2156 4666 
z
" transform="scale(0.015625)"/>
     </defs>
     <use xlink:href="#DejaVuSans-Bold-43"/>
     <use xlink:href="#DejaVuSans-Bold-68" transform="translate(73.388672 0)"/>
     <use xlink:href="#DejaVuSans-Bold-72" transform="translate(144.580078 0)"/>
     <use xlink:href="#DejaVuSans-Bold-20" transform="translate(193.896484 0)"/>
     <use xlink:href="#DejaVuSans-Bold-34" transform="translate(228.710938 0)"/>
    </g>
   </g>
   <g id="text_2">
    <g id="patch_15">
     <path d="M 87.411809 59.461716 
L 144.795247 59.461716 
Q 146.595247 59.461716 146.595247 57.661716 
L 146.595247 38.873373 
Q 146.595247 37.073373 144.795247 37.073373 
L 87.411809 37.073373 
Q 85.611809 37.073373 85.611809 38.873373 
L 85.611809 57.661716 
Q 85.611809 59.461716 87.411809 59.461716 
z
" style="fill: #ffffff; opacity: 0.95; stroke: #d62728; stroke-linejoin: miter"/>
    </g>
    <!-- HTT -->
    <g transform="translate(107.301106 45.711966) scale(0.09 -0.09)">
     <defs>
      <path id="DejaVuSans-48" d="M 628 4666 
L 1259 4666 
L 1259 2753 
L 3553 2753 
L 3553 4666 
L 4184 4666 
L 4184 0 
L 3553 0 
L 3553 2222 
L 1259 2222 
L 1259 0 
L 628 0 
L 628 4666 
z
" transform="scale(0.015625)"/>
      <path id="DejaVuSans-54" d="M -19 4666 
L 3928 4666 
L 3928 4134 
L 2272 4134 
L 2272 0 
L 1638 0 
L 1638 4134 
L -19 4134 
L -19 4666 
z
" transform="scale(0.015625)"/>
     </defs>
     <use xlink:href="#DejaVuSans-48"/>
     <use xlink:href="#DejaVuSans-54" transform="translate(75.195312 0)"/>
     <use xlink:href="#DejaVuSans-54" transform="translate(134.529297 0)"/>
    </g>
    <!-- (Huntington) -->
    <g transform="translate(87.411809 55.789998) scale(0.09 -0.09)">
     <defs>
      <path id="DejaVuSans-28" d="M 1984 4856 
Q 1566 4138 1362 3434 
Q 1159 2731 1159 2009 
Q 1159 1288 1364 580 
Q 1569 -128 1984 -844 
L 1484 -844 
Q 1016 -109 783 600 
Q 550 1309 550 2009 
Q 550 2706 781 3412 
Q 1013 4119 1484 4856 
L 1984 4856 
z
" transform="scale(0.015625)"/>
      <path id="DejaVuSans-75" d="M 544 1381 
L 544 3500 
L 1119 3500 
L 1119 1403 
Q 1119 906 1312 657 
Q 1506 409 1894 409 
Q 2359 409 2629 706 
Q 2900 1003 2900 1516 
L 2900 3500 
L 3475 3500 
L 3475 0 
L 2900 0 
L 2900 538 
Q 2691 219 2414 64 
Q 2138 -91 1772 -91 
Q 1169 -91 856 284 
Q 544 659 544 1381 
z
M 1991 3584 
L 1991 3584 
z
" transform="scale(0.015625)"/>
      <path id="DejaVuSans-6e" d="M 3513 2113 
L 3513 0 
L 2938 0 
L 2938 2094 
Q 2938 2591 2744 2837 
Q 2550 3084 2163 3084 
Q 1697 3084 1428 2787 
Q 1159 2491 1159 1978 
L 1159 0 
L 581 0 
L 581 3500 
L 1159 3500 
L 1159 2956 
Q 1366 3272 1645 3428 
Q 1925 3584 2291 3584 
Q 2894 3584 3203 3211 
Q 3513 2838 3513 2113 
z
" transform="scale(0.015625)"/>
      <path id="DejaVuSans-74" d="M 1172 4494 
L 1172 3500 
L 2356 3500 
L 2356 3053 
L 1172 3053 
L 1172 1153 
Q 1172 725 1289 603 
Q 1406 481 1766 481 
L 2356 481 
L 2356 0 
L 1766 0 
Q 1100 0 847 248 
Q 594 497 594 1153 
L 594 3053 
L 172 3053 
L 172 3500 
L 594 3500 
L 594 4494 
L 1172 4494 
z
" transform="scale(0.015625)"/>
      <path id="DejaVuSans-69" d="M 603 3500 
L 1178 3500 
L 1178 0 
L 603 0 
L 603 3500 
z
M 603 4863 
L 1178 4863 
L 1178 4134 
L 603 4134 
L 603 4863 
z
" transform="scale(0.015625)"/>
      <path id="DejaVuSans-67" d="M 2906 1791 
Q 2906 2416 2648 2759 
Q 2391 3103 1925 3103 
Q 1463 3103 1205 2759 
Q 947 2416 947 1791 
Q 947 1169 1205 825 
Q 1463 481 1925 481 
Q 2391 481 2648 825 
Q 2906 1169 2906 1791 
z
M 3481 434 
Q 3481 -459 3084 -895 
Q 2688 -1331 1869 -1331 
Q 1566 -1331 1297 -1286 
Q 1028 -1241 775 -1147 
L 775 -588 
Q 1028 -725 1275 -790 
Q 1522 -856 1778 -856 
Q 2344 -856 2625 -561 
Q 2906 -266 2906 331 
L 2906 616 
Q 2728 306 2450 153 
Q 2172 0 1784 0 
Q 1141 0 747 490 
Q 353 981 353 1791 
Q 353 2603 747 3093 
Q 1141 3584 1784 3584 
Q 2172 3584 2450 3431 
Q 2728 3278 2906 2969 
L 2906 3500 
L 3481 3500 
L 3481 434 
z
" transform="scale(0.015625)"/>
      <path id="DejaVuSans-6f" d="M 1959 3097 
Q 1497 3097 1228 2736 
Q 959 2375 959 1747 
Q 959 1119 1226 758 
Q 1494 397 1959 397 
Q 2419 397 2687 759 
Q 2956 1122 2956 1747 
Q 2956 2369 2687 2733 
Q 2419 3097 1959 3097 
z
M 1959 3584 
Q 2709 3584 3137 3096 
Q 3566 2609 3566 1747 
Q 3566 888 3137 398 
Q 2709 -91 1959 -91 
Q 1206 -91 779 398 
Q 353 888 353 1747 
Q 353 2609 779 3096 
Q 1206 3584 1959 3584 
z
" transform="scale(0.015625)"/>
      <path id="DejaVuSans-29" d="M 513 4856 
L 1013 4856 
Q 1481 4119 1714 3412 
Q 1947 2706 1947 2009 
Q 1947 1309 1714 600 
Q 1481 -109 1013 -844 
L 513 -844 
Q 928 -128 1133 580 
Q 1338 1288 1338 2009 
Q 1338 2731 1133 3434 
Q 928 4138 513 4856 
z
" transform="scale(0.015625)"/>
     </defs>
     <use xlink:href="#DejaVuSans-28"/>
     <use xlink:href="#DejaVuSans-48" transform="translate(39.013672 0)"/>
     <use xlink:href="#DejaVuSans-75" transform="translate(114.208984 0)"/>
     <use xlink:href="#DejaVuSans-6e" transform="translate(177.587891 0)"/>
     <use xlink:href="#DejaVuSans-74" transform="translate(240.966797 0)"/>
     <use xlink:href="#DejaVuSans-69" transform="translate(280.175781 0)"/>
     <use xlink:href="#DejaVuSans-6e" transform="translate(307.958984 0)"/>
     <use xlink:href="#DejaVuSans-67" transform="translate(371.337891 0)"/>
     <use xlink:href="#DejaVuSans-74" transform="translate(434.814453 0)"/>
     <use xlink:href="#DejaVuSans-6f" transform="translate(474.023438 0)"/>
     <use xlink:href="#DejaVuSans-6e" transform="translate(535.205078 0)"/>
     <use xlink:href="#DejaVuSans-29" transform="translate(598.583984 0)"/>
    </g>
   </g>
   <g id="text_3">
    <!-- Chr 6 -->
    <g transform="translate(30.075875 115.908274) scale(0.1 -0.1)">
     <defs>
      <path id="DejaVuSans-Bold-36" d="M 2316 2303 
Q 2000 2303 1842 2098 
Q 1684 1894 1684 1484 
Q 1684 1075 1842 870 
Q 2000 666 2316 666 
Q 2634 666 2792 870 
Q 2950 1075 2950 1484 
Q 2950 1894 2792 2098 
Q 2634 2303 2316 2303 
z
M 3803 4544 
L 3803 3681 
Q 3506 3822 3243 3889 
Q 2981 3956 2731 3956 
Q 2194 3956 1894 3657 
Q 1594 3359 1544 2772 
Q 1750 2925 1990 3001 
Q 2231 3078 2516 3078 
Q 3231 3078 3670 2659 
Q 4109 2241 4109 1563 
Q 4109 813 3618 361 
Q 3128 -91 2303 -91 
Q 1394 -91 895 523 
Q 397 1138 397 2266 
Q 397 3422 980 4083 
Q 1563 4744 2578 4744 
Q 2900 4744 3203 4694 
Q 3506 4644 3803 4544 
z
" transform="scale(0.015625)"/>
     </defs>
     <use xlink:href="#DejaVuSans-Bold-43"/>
     <use xlink:href="#DejaVuSans-Bold-68" transform="translate(73.388672 0)"/>
     <use xlink:href="#DejaVuSans-Bold-72" transform="translate(144.580078 0)"/>
     <use xlink:href="#DejaVuSans-Bold-20" transform="translate(193.896484 0)"/>
     <use xlink:href="#DejaVuSans-Bold-36" transform="translate(228.710938 0)"/>
    </g>
   </g>
   <g id="text_4">
    <g id="patch_16">
     <path d="M 170.462879 107.022159 
L 230.944285 107.022159 
Q 232.744285 107.022159 232.744285 105.222159 
L 232.744285 96.511847 
Q 232.744285 94.711847 230.944285 94.711847 
L 170.462879 94.711847 
Q 168.662879 94.711847 168.662879 96.511847 
L 168.662879 105.222159 
Q 168.662879 107.022159 170.462879 107.022159 
z
" style="fill: #ffffff; opacity: 0.95; stroke: #ff7f0e; stroke-linejoin: miter"/>
    </g>
    <!-- HLA Complex -->
    <g transform="translate(170.462879 103.35044) scale(0.09 -0.09)">
     <defs>
      <path id="DejaVuSans-4c" d="M 628 4666 
L 1259 4666 
L 1259 531 
L 3531 531 
L 3531 0 
L 628 0 
L 628 4666 
z
" transform="scale(0.015625)"/>
      <path id="DejaVuSans-41" d="M 2188 4044 
L 1331 1722 
L 3047 1722 
L 2188 4044 
z
M 1831 4666 
L 2547 4666 
L 4325 0 
L 3669 0 
L 3244 1197 
L 1141 1197 
L 716 0 
L 50 0 
L 1831 4666 
z
" transform="scale(0.015625)"/>
      <path id="DejaVuSans-20" transform="scale(0.015625)"/>
      <path id="DejaVuSans-43" d="M 4122 4306 
L 4122 3641 
Q 3803 3938 3442 4084 
Q 3081 4231 2675 4231 
Q 1875 4231 1450 3742 
Q 1025 3253 1025 2328 
Q 1025 1406 1450 917 
Q 1875 428 2675 428 
Q 3081 428 3442 575 
Q 3803 722 4122 1019 
L 4122 359 
Q 3791 134 3420 21 
Q 3050 -91 2638 -91 
Q 1578 -91 968 557 
Q 359 1206 359 2328 
Q 359 3453 968 4101 
Q 1578 4750 2638 4750 
Q 3056 4750 3426 4639 
Q 3797 4528 4122 4306 
z
" transform="scale(0.015625)"/>
      <path id="DejaVuSans-6d" d="M 3328 2828 
Q 3544 3216 3844 3400 
Q 4144 3584 4550 3584 
Q 5097 3584 5394 3201 
Q 5691 2819 5691 2113 
L 5691 0 
L 5113 0 
L 5113 2094 
Q 5113 2597 4934 2840 
Q 4756 3084 4391 3084 
Q 3944 3084 3684 2787 
Q 3425 2491 3425 1978 
L 3425 0 
L 2847 0 
L 2847 2094 
Q 2847 2600 2669 2842 
Q 2491 3084 2119 3084 
Q 1678 3084 1418 2786 
Q 1159 2488 1159 1978 
L 1159 0 
L 581 0 
L 581 3500 
L 1159 3500 
L 1159 2956 
Q 1356 3278 1631 3431 
Q 1906 3584 2284 3584 
Q 2666 3584 2933 3390 
Q 3200 3197 3328 2828 
z
" transform="scale(0.015625)"/>
      <path id="DejaVuSans-70" d="M 1159 525 
L 1159 -1331 
L 581 -1331 
L 581 3500 
L 1159 3500 
L 1159 2969 
Q 1341 3281 1617 3432 
Q 1894 3584 2278 3584 
Q 2916 3584 3314 3078 
Q 3713 2572 3713 1747 
Q 3713 922 3314 415 
Q 2916 -91 2278 -91 
Q 1894 -91 1617 61 
Q 1341 213 1159 525 
z
M 3116 1747 
Q 3116 2381 2855 2742 
Q 2594 3103 2138 3103 
Q 1681 3103 1420 2742 
Q 1159 2381 1159 1747 
Q 1159 1113 1420 752 
Q 1681 391 2138 391 
Q 2594 391 2855 752 
Q 3116 1113 3116 1747 
z
" transform="scale(0.015625)"/>
      <path id="DejaVuSans-6c" d="M 603 4863 
L 1178 4863 
L 1178 0 
L 603 0 
L 603 4863 
z
" transform="scale(0.015625)"/>
      <path id="DejaVuSans-65" d="M 3597 1894 
L 3597 1613 
L 953 1613 
Q 991 1019 1311 708 
Q 1631 397 2203 397 
Q 2534 397 2845 478 
Q 3156 559 3463 722 
L 3463 178 
Q 3153 47 2828 -22 
Q 2503 -91 2169 -91 
Q 1331 -91 842 396 
Q 353 884 353 1716 
Q 353 2575 817 3079 
Q 1281 3584 2069 3584 
Q 2775 3584 3186 3129 
Q 3597 2675 3597 1894 
z
M 3022 2063 
Q 3016 2534 2758 2815 
Q 2500 3097 2075 3097 
Q 1594 3097 1305 2825 
Q 1016 2553 972 2059 
L 3022 2063 
z
" transform="scale(0.015625)"/>
      <path id="DejaVuSans-78" d="M 3513 3500 
L 2247 1797 
L 3578 0 
L 2900 0 
L 1881 1375 
L 863 0 
L 184 0 
L 1544 1831 
L 300 3500 
L 978 3500 
L 1906 2253 
L 2834 3500 
L 3513 3500 
z
" transform="scale(0.015625)"/>
     </defs>
     <use xlink:href="#DejaVuSans-48"/>
     <use xlink:href="#DejaVuSans-4c" transform="translate(75.195312 0)"/>
     <use xlink:href="#DejaVuSans-41" transform="translate(133.158203 0)"/>
     <use xlink:href="#DejaVuSans-20" transform="translate(201.566406 0)"/>
     <use xlink:href="#DejaVuSans-43" transform="translate(233.353516 0)"/>
     <use xlink:href="#DejaVuSans-6f" transform="translate(303.177734 0)"/>
     <use xlink:href="#DejaVuSans-6d" transform="translate(364.359375 0)"/>
     <use xlink:href="#DejaVuSans-70" transform="translate(461.771484 0)"/>
     <use xlink:href="#DejaVuSans-6c" transform="translate(525.248047 0)"/>
     <use xlink:href="#DejaVuSans-65" transform="translate(553.03125 0)"/>
     <use xlink:href="#DejaVuSans-78" transform="translate(612.804688 0)"/>
    </g>
   </g>
   <g id="text_5">
    <!-- Chr 22 -->
    <g transform="translate(23.118063 163.468717) scale(0.1 -0.1)">
     <defs>
      <path id="DejaVuSans-Bold-32" d="M 1844 884 
L 3897 884 
L 3897 0 
L 506 0 
L 506 884 
L 2209 2388 
Q 2438 2594 2547 2791 
Q 2656 2988 2656 3200 
Q 2656 3528 2436 3728 
Q 2216 3928 1850 3928 
Q 1569 3928 1234 3808 
Q 900 3688 519 3450 
L 519 4475 
Q 925 4609 1322 4679 
Q 1719 4750 2100 4750 
Q 2938 4750 3402 4381 
Q 3866 4013 3866 3353 
Q 3866 2972 3669 2642 
Q 3472 2313 2841 1759 
L 1844 884 
z
" transform="scale(0.015625)"/>
     </defs>
     <use xlink:href="#DejaVuSans-Bold-43"/>
     <use xlink:href="#DejaVuSans-Bold-68" transform="translate(73.388672 0)"/>
     <use xlink:href="#DejaVuSans-Bold-72" transform="translate(144.580078 0)"/>
     <use xlink:href="#DejaVuSans-Bold-20" transform="translate(193.896484 0)"/>
     <use xlink:href="#DejaVuSans-Bold-32" transform="translate(228.710938 0)"/>
     <use xlink:href="#DejaVuSans-Bold-32" transform="translate(298.291016 0)"/>
    </g>
   </g>
   <g id="text_6">
    <g id="patch_17">
     <path d="M 140.643948 154.582602 
L 176.07723 154.582602 
Q 177.87723 154.582602 177.87723 152.782602 
L 177.87723 144.072289 
Q 177.87723 142.272289 176.07723 142.272289 
L 140.643948 142.272289 
Q 138.843948 142.272289 138.843948 144.072289 
L 138.843948 152.782602 
Q 138.843948 154.582602 140.643948 154.582602 
z
" style="fill: #ffffff; opacity: 0.95; stroke: #9467bd; stroke-linejoin: miter"/>
    </g>
    <!-- CYP2D6 -->
    <g transform="translate(140.643948 150.910883) scale(0.09 -0.09)">
     <defs>
      <path id="DejaVuSans-59" d="M -13 4666 
L 666 4666 
L 1959 2747 
L 3244 4666 
L 3922 4666 
L 2272 2222 
L 2272 0 
L 1638 0 
L 1638 2222 
L -13 4666 
z
" transform="scale(0.015625)"/>
      <path id="DejaVuSans-50" d="M 1259 4147 
L 1259 2394 
L 2053 2394 
Q 2494 2394 2734 2622 
Q 2975 2850 2975 3272 
Q 2975 3691 2734 3919 
Q 2494 4147 2053 4147 
L 1259 4147 
z
M 628 4666 
L 2053 4666 
Q 2838 4666 3239 4311 
Q 3641 3956 3641 3272 
Q 3641 2581 3239 2228 
Q 2838 1875 2053 1875 
L 1259 1875 
L 1259 0 
L 628 0 
L 628 4666 
z
" transform="scale(0.015625)"/>
      <path id="DejaVuSans-32" d="M 1228 531 
L 3431 531 
L 3431 0 
L 469 0 
L 469 531 
Q 828 903 1448 1529 
Q 2069 2156 2228 2338 
Q 2531 2678 2651 2914 
Q 2772 3150 2772 3378 
Q 2772 3750 2511 3984 
Q 2250 4219 1831 4219 
Q 1534 4219 1204 4116 
Q 875 4013 500 3803 
L 500 4441 
Q 881 4594 1212 4672 
Q 1544 4750 1819 4750 
Q 2544 4750 2975 4387 
Q 3406 4025 3406 3419 
Q 3406 3131 3298 2873 
Q 3191 2616 2906 2266 
Q 2828 2175 2409 1742 
Q 1991 1309 1228 531 
z
" transform="scale(0.015625)"/>
      <path id="DejaVuSans-44" d="M 1259 4147 
L 1259 519 
L 2022 519 
Q 2988 519 3436 956 
Q 3884 1394 3884 2338 
Q 3884 3275 3436 3711 
Q 2988 4147 2022 4147 
L 1259 4147 
z
M 628 4666 
L 1925 4666 
Q 3281 4666 3915 4102 
Q 4550 3538 4550 2338 
Q 4550 1131 3912 565 
Q 3275 0 1925 0 
L 628 0 
L 628 4666 
z
" transform="scale(0.015625)"/>
      <path id="DejaVuSans-36" d="M 2113 2584 
Q 1688 2584 1439 2293 
Q 1191 2003 1191 1497 
Q 1191 994 1439 701 
Q 1688 409 2113 409 
Q 2538 409 2786 701 
Q 3034 994 3034 1497 
Q 3034 2003 2786 2293 
Q 2538 2584 2113 2584 
z
M 3366 4563 
L 3366 3988 
Q 3128 4100 2886 4159 
Q 2644 4219 2406 4219 
Q 1781 4219 1451 3797 
Q 1122 3375 1075 2522 
Q 1259 2794 1537 2939 
Q 1816 3084 2150 3084 
Q 2853 3084 3261 2657 
Q 3669 2231 3669 1497 
Q 3669 778 3244 343 
Q 2819 -91 2113 -91 
Q 1303 -91 875 529 
Q 447 1150 447 2328 
Q 447 3434 972 4092 
Q 1497 4750 2381 4750 
Q 2619 4750 2861 4703 
Q 3103 4656 3366 4563 
z
" transform="scale(0.015625)"/>
     </defs>
     <use xlink:href="#DejaVuSans-43"/>
     <use xlink:href="#DejaVuSans-59" transform="translate(68.074219 0)"/>
     <use xlink:href="#DejaVuSans-50" transform="translate(129.158203 0)"/>
     <use xlink:href="#DejaVuSans-32" transform="translate(189.460938 0)"/>
     <use xlink:href="#DejaVuSans-44" transform="translate(253.083984 0)"/>
     <use xlink:href="#DejaVuSans-36" transform="translate(330.085938 0)"/>
    </g>
   </g>
   <g id="text_7">
    <!-- Chr X -->
    <g transform="translate(29.324313 211.02916) scale(0.1 -0.1)">
     <defs>
      <path id="DejaVuSans-Bold-58" d="M 3188 2381 
L 4806 0 
L 3553 0 
L 2463 1594 
L 1381 0 
L 122 0 
L 1741 2381 
L 184 4666 
L 1441 4666 
L 2463 3163 
L 3481 4666 
L 4744 4666 
L 3188 2381 
z
" transform="scale(0.015625)"/>
     </defs>
     <use xlink:href="#DejaVuSans-Bold-43"/>
     <use xlink:href="#DejaVuSans-Bold-68" transform="translate(73.388672 0)"/>
     <use xlink:href="#DejaVuSans-Bold-72" transform="translate(144.580078 0)"/>
     <use xlink:href="#DejaVuSans-Bold-20" transform="translate(193.896484 0)"/>
     <use xlink:href="#DejaVuSans-Bold-58" transform="translate(228.710938 0)"/>
    </g>
   </g>
   <g id="text_8">
    <g id="patch_18">
     <path d="M 319.407324 202.143044 
L 365.446542 202.143044 
Q 367.246542 202.143044 367.246542 200.343044 
L 367.246542 181.5547 
Q 367.246542 179.7547 365.446542 179.7547 
L 319.407324 179.7547 
Q 317.607324 179.7547 317.607324 181.5547 
L 317.607324 200.343044 
Q 317.607324 202.143044 319.407324 202.143044 
z
" style="fill: #ffffff; opacity: 0.95; stroke: #d62728; stroke-linejoin: miter"/>
    </g>
    <!-- FMR1 -->
    <g transform="translate(329.966152 188.393294) scale(0.09 -0.09)">
     <defs>
      <path id="DejaVuSans-46" d="M 628 4666 
L 3309 4666 
L 3309 4134 
L 1259 4134 
L 1259 2759 
L 3109 2759 
L 3109 2228 
L 1259 2228 
L 1259 0 
L 628 0 
L 628 4666 
z
" transform="scale(0.015625)"/>
      <path id="DejaVuSans-4d" d="M 628 4666 
L 1569 4666 
L 2759 1491 
L 3956 4666 
L 4897 4666 
L 4897 0 
L 4281 0 
L 4281 4097 
L 3078 897 
L 2444 897 
L 1241 4097 
L 1241 0 
L 628 0 
L 628 4666 
z
" transform="scale(0.015625)"/>
      <path id="DejaVuSans-52" d="M 2841 2188 
Q 3044 2119 3236 1894 
Q 3428 1669 3622 1275 
L 4263 0 
L 3584 0 
L 2988 1197 
Q 2756 1666 2539 1819 
Q 2322 1972 1947 1972 
L 1259 1972 
L 1259 0 
L 628 0 
L 628 4666 
L 2053 4666 
Q 2853 4666 3247 4331 
Q 3641 3997 3641 3322 
Q 3641 2881 3436 2590 
Q 3231 2300 2841 2188 
z
M 1259 4147 
L 1259 2491 
L 2053 2491 
Q 2509 2491 2742 2702 
Q 2975 2913 2975 3322 
Q 2975 3731 2742 3939 
Q 2509 4147 2053 4147 
L 1259 4147 
z
" transform="scale(0.015625)"/>
      <path id="DejaVuSans-31" d="M 794 531 
L 1825 531 
L 1825 4091 
L 703 3866 
L 703 4441 
L 1819 4666 
L 2450 4666 
L 2450 531 
L 3481 531 
L 3481 0 
L 794 0 
L 794 531 
z
" transform="scale(0.015625)"/>
     </defs>
     <use xlink:href="#DejaVuSans-46"/>
     <use xlink:href="#DejaVuSans-4d" transform="translate(57.519531 0)"/>
     <use xlink:href="#DejaVuSans-52" transform="translate(143.798828 0)"/>
     <use xlink:href="#DejaVuSans-31" transform="translate(213.28125 0)"/>
    </g>
    <!-- (Fragile X) -->
    <g transform="translate(319.407324 198.471325) scale(0.09 -0.09)">
     <defs>
      <path id="DejaVuSans-72" d="M 2631 2963 
Q 2534 3019 2420 3045 
Q 2306 3072 2169 3072 
Q 1681 3072 1420 2755 
Q 1159 2438 1159 1844 
L 1159 0 
L 581 0 
L 581 3500 
L 1159 3500 
L 1159 2956 
Q 1341 3275 1631 3429 
Q 1922 3584 2338 3584 
Q 2397 3584 2469 3576 
Q 2541 3569 2628 3553 
L 2631 2963 
z
" transform="scale(0.015625)"/>
      <path id="DejaVuSans-61" d="M 2194 1759 
Q 1497 1759 1228 1600 
Q 959 1441 959 1056 
Q 959 750 1161 570 
Q 1363 391 1709 391 
Q 2188 391 2477 730 
Q 2766 1069 2766 1631 
L 2766 1759 
L 2194 1759 
z
M 3341 1997 
L 3341 0 
L 2766 0 
L 2766 531 
Q 2569 213 2275 61 
Q 1981 -91 1556 -91 
Q 1019 -91 701 211 
Q 384 513 384 1019 
Q 384 1609 779 1909 
Q 1175 2209 1959 2209 
L 2766 2209 
L 2766 2266 
Q 2766 2663 2505 2880 
Q 2244 3097 1772 3097 
Q 1472 3097 1187 3025 
Q 903 2953 641 2809 
L 641 3341 
Q 956 3463 1253 3523 
Q 1550 3584 1831 3584 
Q 2591 3584 2966 3190 
Q 3341 2797 3341 1997 
z
" transform="scale(0.015625)"/>
      <path id="DejaVuSans-58" d="M 403 4666 
L 1081 4666 
L 2241 2931 
L 3406 4666 
L 4084 4666 
L 2584 2425 
L 4184 0 
L 3506 0 
L 2194 1984 
L 872 0 
L 191 0 
L 1856 2491 
L 403 4666 
z
" transform="scale(0.015625)"/>
     </defs>
     <use xlink:href="#DejaVuSans-28"/>
     <use xlink:href="#DejaVuSans-46" transform="translate(39.013672 0)"/>
     <use xlink:href="#DejaVuSans-72" transform="translate(89.283203 0)"/>
     <use xlink:href="#DejaVuSans-61" transform="translate(130.396484 0)"/>
     <use xlink:href="#DejaVuSans-67" transform="translate(191.675781 0)"/>
     <use xlink:href="#DejaVuSans-69" transform="translate(255.152344 0)"/>
     <use xlink:href="#DejaVuSans-6c" transform="translate(282.935547 0)"/>
     <use xlink:href="#DejaVuSans-65" transform="translate(310.71875 0)"/>
     <use xlink:href="#DejaVuSans-20" transform="translate(372.242188 0)"/>
     <use xlink:href="#DejaVuSans-58" transform="translate(404.029297 0)"/>
     <use xlink:href="#DejaVuSans-29" transform="translate(472.535156 0)"/>
    </g>
   </g>
   <g id="text_9">
    <!-- (A) Example Difficult Regions by Chromosome -->
    <g transform="translate(10.8 19.918125) scale(0.12 -0.12)">
     <defs>
      <path id="DejaVuSans-Bold-28" d="M 2413 -844 
L 1484 -844 
Q 1006 -72 778 623 
Q 550 1319 550 2003 
Q 550 2688 779 3389 
Q 1009 4091 1484 4856 
L 2413 4856 
Q 2013 4116 1813 3408 
Q 1613 2700 1613 2009 
Q 1613 1319 1811 609 
Q 2009 -100 2413 -844 
z
" transform="scale(0.015625)"/>
      <path id="DejaVuSans-Bold-41" d="M 3419 850 
L 1538 850 
L 1241 0 
L 31 0 
L 1759 4666 
L 3194 4666 
L 4922 0 
L 3713 0 
L 3419 850 
z
M 1838 1716 
L 3116 1716 
L 2478 3572 
L 1838 1716 
z
" transform="scale(0.015625)"/>
      <path id="DejaVuSans-Bold-29" d="M 513 -844 
Q 913 -100 1113 609 
Q 1313 1319 1313 2009 
Q 1313 2700 1113 3408 
Q 913 4116 513 4856 
L 1441 4856 
Q 1916 4091 2145 3389 
Q 2375 2688 2375 2003 
Q 2375 1319 2147 623 
Q 1919 -72 1441 -844 
L 513 -844 
z
" transform="scale(0.015625)"/>
      <path id="DejaVuSans-Bold-45" d="M 588 4666 
L 3834 4666 
L 3834 3756 
L 1791 3756 
L 1791 2888 
L 3713 2888 
L 3713 1978 
L 1791 1978 
L 1791 909 
L 3903 909 
L 3903 0 
L 588 0 
L 588 4666 
z
" transform="scale(0.015625)"/>
      <path id="DejaVuSans-Bold-78" d="M 1422 1791 
L 159 3500 
L 1344 3500 
L 2059 2463 
L 2784 3500 
L 3969 3500 
L 2706 1797 
L 4031 0 
L 2847 0 
L 2059 1106 
L 1281 0 
L 97 0 
L 1422 1791 
z
" transform="scale(0.015625)"/>
      <path id="DejaVuSans-Bold-61" d="M 2106 1575 
Q 1756 1575 1579 1456 
Q 1403 1338 1403 1106 
Q 1403 894 1545 773 
Q 1688 653 1941 653 
Q 2256 653 2472 879 
Q 2688 1106 2688 1447 
L 2688 1575 
L 2106 1575 
z
M 3816 1997 
L 3816 0 
L 2688 0 
L 2688 519 
Q 2463 200 2181 54 
Q 1900 -91 1497 -91 
Q 953 -91 614 226 
Q 275 544 275 1050 
Q 275 1666 698 1953 
Q 1122 2241 2028 2241 
L 2688 2241 
L 2688 2328 
Q 2688 2594 2478 2717 
Q 2269 2841 1825 2841 
Q 1466 2841 1156 2769 
Q 847 2697 581 2553 
L 581 3406 
Q 941 3494 1303 3539 
Q 1666 3584 2028 3584 
Q 2975 3584 3395 3211 
Q 3816 2838 3816 1997 
z
" transform="scale(0.015625)"/>
      <path id="DejaVuSans-Bold-6d" d="M 3781 2919 
Q 3994 3244 4286 3414 
Q 4578 3584 4928 3584 
Q 5531 3584 5847 3212 
Q 6163 2841 6163 2131 
L 6163 0 
L 5038 0 
L 5038 1825 
Q 5041 1866 5042 1909 
Q 5044 1953 5044 2034 
Q 5044 2406 4934 2573 
Q 4825 2741 4581 2741 
Q 4263 2741 4089 2478 
Q 3916 2216 3909 1719 
L 3909 0 
L 2784 0 
L 2784 1825 
Q 2784 2406 2684 2573 
Q 2584 2741 2328 2741 
Q 2006 2741 1831 2477 
Q 1656 2213 1656 1722 
L 1656 0 
L 531 0 
L 531 3500 
L 1656 3500 
L 1656 2988 
Q 1863 3284 2130 3434 
Q 2397 3584 2719 3584 
Q 3081 3584 3359 3409 
Q 3638 3234 3781 2919 
z
" transform="scale(0.015625)"/>
      <path id="DejaVuSans-Bold-70" d="M 1656 506 
L 1656 -1331 
L 538 -1331 
L 538 3500 
L 1656 3500 
L 1656 2988 
Q 1888 3294 2169 3439 
Q 2450 3584 2816 3584 
Q 3463 3584 3878 3070 
Q 4294 2556 4294 1747 
Q 4294 938 3878 423 
Q 3463 -91 2816 -91 
Q 2450 -91 2169 54 
Q 1888 200 1656 506 
z
M 2400 2772 
Q 2041 2772 1848 2508 
Q 1656 2244 1656 1747 
Q 1656 1250 1848 986 
Q 2041 722 2400 722 
Q 2759 722 2948 984 
Q 3138 1247 3138 1747 
Q 3138 2247 2948 2509 
Q 2759 2772 2400 2772 
z
" transform="scale(0.015625)"/>
      <path id="DejaVuSans-Bold-6c" d="M 538 4863 
L 1656 4863 
L 1656 0 
L 538 0 
L 538 4863 
z
" transform="scale(0.015625)"/>
      <path id="DejaVuSans-Bold-65" d="M 4031 1759 
L 4031 1441 
L 1416 1441 
Q 1456 1047 1700 850 
Q 1944 653 2381 653 
Q 2734 653 3104 758 
Q 3475 863 3866 1075 
L 3866 213 
Q 3469 63 3072 -14 
Q 2675 -91 2278 -91 
Q 1328 -91 801 392 
Q 275 875 275 1747 
Q 275 2603 792 3093 
Q 1309 3584 2216 3584 
Q 3041 3584 3536 3087 
Q 4031 2591 4031 1759 
z
M 2881 2131 
Q 2881 2450 2695 2645 
Q 2509 2841 2209 2841 
Q 1884 2841 1681 2658 
Q 1478 2475 1428 2131 
L 2881 2131 
z
" transform="scale(0.015625)"/>
      <path id="DejaVuSans-Bold-44" d="M 1791 3756 
L 1791 909 
L 2222 909 
Q 2959 909 3348 1275 
Q 3738 1641 3738 2338 
Q 3738 3031 3350 3393 
Q 2963 3756 2222 3756 
L 1791 3756 
z
M 588 4666 
L 1856 4666 
Q 2919 4666 3439 4514 
Q 3959 4363 4331 4000 
Q 4659 3684 4818 3271 
Q 4978 2859 4978 2338 
Q 4978 1809 4818 1395 
Q 4659 981 4331 666 
Q 3956 303 3431 151 
Q 2906 0 1856 0 
L 588 0 
L 588 4666 
z
" transform="scale(0.015625)"/>
      <path id="DejaVuSans-Bold-69" d="M 538 3500 
L 1656 3500 
L 1656 0 
L 538 0 
L 538 3500 
z
M 538 4863 
L 1656 4863 
L 1656 3950 
L 538 3950 
L 538 4863 
z
" transform="scale(0.015625)"/>
      <path id="DejaVuSans-Bold-66" d="M 2841 4863 
L 2841 4128 
L 2222 4128 
Q 1984 4128 1890 4042 
Q 1797 3956 1797 3744 
L 1797 3500 
L 2753 3500 
L 2753 2700 
L 1797 2700 
L 1797 0 
L 678 0 
L 678 2700 
L 122 2700 
L 122 3500 
L 678 3500 
L 678 3744 
Q 678 4316 997 4589 
Q 1316 4863 1984 4863 
L 2841 4863 
z
" transform="scale(0.015625)"/>
      <path id="DejaVuSans-Bold-63" d="M 3366 3391 
L 3366 2478 
Q 3138 2634 2908 2709 
Q 2678 2784 2431 2784 
Q 1963 2784 1702 2511 
Q 1441 2238 1441 1747 
Q 1441 1256 1702 982 
Q 1963 709 2431 709 
Q 2694 709 2930 787 
Q 3166 866 3366 1019 
L 3366 103 
Q 3103 6 2833 -42 
Q 2563 -91 2291 -91 
Q 1344 -91 809 395 
Q 275 881 275 1747 
Q 275 2613 809 3098 
Q 1344 3584 2291 3584 
Q 2566 3584 2833 3536 
Q 3100 3488 3366 3391 
z
" transform="scale(0.015625)"/>
      <path id="DejaVuSans-Bold-75" d="M 500 1363 
L 500 3500 
L 1625 3500 
L 1625 3150 
Q 1625 2866 1622 2436 
Q 1619 2006 1619 1863 
Q 1619 1441 1641 1255 
Q 1663 1069 1716 984 
Q 1784 875 1895 815 
Q 2006 756 2150 756 
Q 2500 756 2700 1025 
Q 2900 1294 2900 1772 
L 2900 3500 
L 4019 3500 
L 4019 0 
L 2900 0 
L 2900 506 
Q 2647 200 2364 54 
Q 2081 -91 1741 -91 
Q 1134 -91 817 281 
Q 500 653 500 1363 
z
" transform="scale(0.015625)"/>
      <path id="DejaVuSans-Bold-74" d="M 1759 4494 
L 1759 3500 
L 2913 3500 
L 2913 2700 
L 1759 2700 
L 1759 1216 
Q 1759 972 1856 886 
Q 1953 800 2241 800 
L 2816 800 
L 2816 0 
L 1856 0 
Q 1194 0 917 276 
Q 641 553 641 1216 
L 641 2700 
L 84 2700 
L 84 3500 
L 641 3500 
L 641 4494 
L 1759 4494 
z
" transform="scale(0.015625)"/>
      <path id="DejaVuSans-Bold-52" d="M 2297 2597 
Q 2675 2597 2839 2737 
Q 3003 2878 3003 3200 
Q 3003 3519 2839 3656 
Q 2675 3794 2297 3794 
L 1791 3794 
L 1791 2597 
L 2297 2597 
z
M 1791 1766 
L 1791 0 
L 588 0 
L 588 4666 
L 2425 4666 
Q 3347 4666 3776 4356 
Q 4206 4047 4206 3378 
Q 4206 2916 3982 2619 
Q 3759 2322 3309 2181 
Q 3556 2125 3751 1926 
Q 3947 1728 4147 1325 
L 4800 0 
L 3519 0 
L 2950 1159 
Q 2778 1509 2601 1637 
Q 2425 1766 2131 1766 
L 1791 1766 
z
" transform="scale(0.015625)"/>
      <path id="DejaVuSans-Bold-67" d="M 2919 594 
Q 2688 288 2409 144 
Q 2131 0 1766 0 
Q 1125 0 706 504 
Q 288 1009 288 1791 
Q 288 2575 706 3076 
Q 1125 3578 1766 3578 
Q 2131 3578 2409 3434 
Q 2688 3291 2919 2981 
L 2919 3500 
L 4044 3500 
L 4044 353 
Q 4044 -491 3511 -936 
Q 2978 -1381 1966 -1381 
Q 1638 -1381 1331 -1331 
Q 1025 -1281 716 -1178 
L 716 -306 
Q 1009 -475 1290 -558 
Q 1572 -641 1856 -641 
Q 2406 -641 2662 -400 
Q 2919 -159 2919 353 
L 2919 594 
z
M 2181 2772 
Q 1834 2772 1640 2515 
Q 1447 2259 1447 1791 
Q 1447 1309 1634 1061 
Q 1822 813 2181 813 
Q 2531 813 2725 1069 
Q 2919 1325 2919 1791 
Q 2919 2259 2725 2515 
Q 2531 2772 2181 2772 
z
" transform="scale(0.015625)"/>
      <path id="DejaVuSans-Bold-6f" d="M 2203 2784 
Q 1831 2784 1636 2517 
Q 1441 2250 1441 1747 
Q 1441 1244 1636 976 
Q 1831 709 2203 709 
Q 2569 709 2762 976 
Q 2956 1244 2956 1747 
Q 2956 2250 2762 2517 
Q 2569 2784 2203 2784 
z
M 2203 3584 
Q 3106 3584 3614 3096 
Q 4122 2609 4122 1747 
Q 4122 884 3614 396 
Q 3106 -91 2203 -91 
Q 1297 -91 786 396 
Q 275 884 275 1747 
Q 275 2609 786 3096 
Q 1297 3584 2203 3584 
z
" transform="scale(0.015625)"/>
      <path id="DejaVuSans-Bold-6e" d="M 4056 2131 
L 4056 0 
L 2931 0 
L 2931 347 
L 2931 1631 
Q 2931 2084 2911 2256 
Q 2891 2428 2841 2509 
Q 2775 2619 2662 2680 
Q 2550 2741 2406 2741 
Q 2056 2741 1856 2470 
Q 1656 2200 1656 1722 
L 1656 0 
L 538 0 
L 538 3500 
L 1656 3500 
L 1656 2988 
Q 1909 3294 2193 3439 
Q 2478 3584 2822 3584 
Q 3428 3584 3742 3212 
Q 4056 2841 4056 2131 
z
" transform="scale(0.015625)"/>
      <path id="DejaVuSans-Bold-73" d="M 3272 3391 
L 3272 2541 
Q 2913 2691 2578 2766 
Q 2244 2841 1947 2841 
Q 1628 2841 1473 2761 
Q 1319 2681 1319 2516 
Q 1319 2381 1436 2309 
Q 1553 2238 1856 2203 
L 2053 2175 
Q 2913 2066 3209 1816 
Q 3506 1566 3506 1031 
Q 3506 472 3093 190 
Q 2681 -91 1863 -91 
Q 1516 -91 1145 -36 
Q 775 19 384 128 
L 384 978 
Q 719 816 1070 734 
Q 1422 653 1784 653 
Q 2113 653 2278 743 
Q 2444 834 2444 1013 
Q 2444 1163 2330 1236 
Q 2216 1309 1875 1350 
L 1678 1375 
Q 931 1469 631 1722 
Q 331 1975 331 2491 
Q 331 3047 712 3315 
Q 1094 3584 1881 3584 
Q 2191 3584 2531 3537 
Q 2872 3491 3272 3391 
z
" transform="scale(0.015625)"/>
      <path id="DejaVuSans-Bold-62" d="M 2400 722 
Q 2759 722 2948 984 
Q 3138 1247 3138 1747 
Q 3138 2247 2948 2509 
Q 2759 2772 2400 2772 
Q 2041 2772 1848 2508 
Q 1656 2244 1656 1747 
Q 1656 1250 1848 986 
Q 2041 722 2400 722 
z
M 1656 2988 
Q 1888 3294 2169 3439 
Q 2450 3584 2816 3584 
Q 3463 3584 3878 3070 
Q 4294 2556 4294 1747 
Q 4294 938 3878 423 
Q 3463 -91 2816 -91 
Q 2450 -91 2169 54 
Q 1888 200 1656 506 
L 1656 0 
L 538 0 
L 538 4863 
L 1656 4863 
L 1656 2988 
z
" transform="scale(0.015625)"/>
      <path id="DejaVuSans-Bold-79" d="M 78 3500 
L 1197 3500 
L 2138 1125 
L 2938 3500 
L 4056 3500 
L 2584 -331 
Q 2363 -916 2067 -1148 
Q 1772 -1381 1288 -1381 
L 641 -1381 
L 641 -647 
L 991 -647 
Q 1275 -647 1404 -556 
Q 1534 -466 1606 -231 
L 1638 -134 
L 78 3500 
z
" transform="scale(0.015625)"/>
     </defs>
     <use xlink:href="#DejaVuSans-Bold-28"/>
     <use xlink:href="#DejaVuSans-Bold-41" transform="translate(45.703125 0)"/>
     <use xlink:href="#DejaVuSans-Bold-29" transform="translate(123.095703 0)"/>
     <use xlink:href="#DejaVuSans-Bold-20" transform="translate(168.798828 0)"/>
     <use xlink:href="#DejaVuSans-Bold-45" transform="translate(203.613281 0)"/>
     <use xlink:href="#DejaVuSans-Bold-78" transform="translate(271.923828 0)"/>
     <use xlink:href="#DejaVuSans-Bold-61" transform="translate(336.425781 0)"/>
     <use xlink:href="#DejaVuSans-Bold-6d" transform="translate(403.90625 0)"/>
     <use xlink:href="#DejaVuSans-Bold-70" transform="translate(508.105469 0)"/>
     <use xlink:href="#DejaVuSans-Bold-6c" transform="translate(579.6875 0)"/>
     <use xlink:href="#DejaVuSans-Bold-65" transform="translate(613.964844 0)"/>
     <use xlink:href="#DejaVuSans-Bold-20" transform="translate(681.787109 0)"/>
     <use xlink:href="#DejaVuSans-Bold-44" transform="translate(716.601562 0)"/>
     <use xlink:href="#DejaVuSans-Bold-69" transform="translate(799.609375 0)"/>
     <use xlink:href="#DejaVuSans-Bold-66" transform="translate(833.886719 0)"/>
     <use xlink:href="#DejaVuSans-Bold-66" transform="translate(877.392578 0)"/>
     <use xlink:href="#DejaVuSans-Bold-69" transform="translate(920.898438 0)"/>
     <use xlink:href="#DejaVuSans-Bold-63" transform="translate(955.175781 0)"/>
     <use xlink:href="#DejaVuSans-Bold-75" transform="translate(1014.453125 0)"/>
     <use xlink:href="#DejaVuSans-Bold-6c" transform="translate(1085.644531 0)"/>
     <use xlink:href="#DejaVuSans-Bold-74" transform="translate(1119.921875 0)"/>
     <use xlink:href="#DejaVuSans-Bold-20" transform="translate(1167.724609 0)"/>
     <use xlink:href="#DejaVuSans-Bold-52" transform="translate(1202.539062 0)"/>
     <use xlink:href="#DejaVuSans-Bold-65" transform="translate(1279.541016 0)"/>
     <use xlink:href="#DejaVuSans-Bold-67" transform="translate(1347.363281 0)"/>
     <use xlink:href="#DejaVuSans-Bold-69" transform="translate(1418.945312 0)"/>
     <use xlink:href="#DejaVuSans-Bold-6f" transform="translate(1453.222656 0)"/>
     <use xlink:href="#DejaVuSans-Bold-6e" transform="translate(1521.923828 0)"/>
     <use xlink:href="#DejaVuSans-Bold-73" transform="translate(1593.115234 0)"/>
     <use xlink:href="#DejaVuSans-Bold-20" transform="translate(1652.636719 0)"/>
     <use xlink:href="#DejaVuSans-Bold-62" transform="translate(1687.451172 0)"/>
     <use xlink:href="#DejaVuSans-Bold-79" transform="translate(1759.033203 0)"/>
     <use xlink:href="#DejaVuSans-Bold-20" transform="translate(1824.21875 0)"/>
     <use xlink:href="#DejaVuSans-Bold-43" transform="translate(1859.033203 0)"/>
     <use xlink:href="#DejaVuSans-Bold-68" transform="translate(1932.421875 0)"/>
     <use xlink:href="#DejaVuSans-Bold-72" transform="translate(2003.613281 0)"/>
     <use xlink:href="#DejaVuSans-Bold-6f" transform="translate(2052.929688 0)"/>
     <use xlink:href="#DejaVuSans-Bold-6d" transform="translate(2121.630859 0)"/>
     <use xlink:href="#DejaVuSans-Bold-6f" transform="translate(2225.830078 0)"/>
     <use xlink:href="#DejaVuSans-Bold-73" transform="translate(2294.53125 0)"/>
     <use xlink:href="#DejaVuSans-Bold-6f" transform="translate(2354.052734 0)"/>
     <use xlink:href="#DejaVuSans-Bold-6d" transform="translate(2422.753906 0)"/>
     <use xlink:href="#DejaVuSans-Bold-65" transform="translate(2526.953125 0)"/>
    </g>
   </g>
   <g id="legend_1">
    <g id="patch_19">
     <path d="M 397.407656 63.53875 
L 618.3 63.53875 
Q 620.1 63.53875 620.1 61.73875 
L 620.1 36.218125 
Q 620.1 34.418125 618.3 34.418125 
L 397.407656 34.418125 
Q 395.607656 34.418125 395.607656 36.218125 
L 395.607656 61.73875 
Q 395.607656 63.53875 397.407656 63.53875 
z
" style="fill: #ffffff; opacity: 0.95; stroke: #cccccc; stroke-linejoin: miter"/>
    </g>
    <g id="patch_20">
     <path d="M 399.207656 44.856719 
L 417.207656 44.856719 
L 417.207656 38.556719 
L 399.207656 38.556719 
z
" style="fill: #d62728; stroke: #333333; stroke-linejoin: miter"/>
    </g>
    <g id="text_10">
     <!-- Tandem Repeats -->
     <g transform="translate(424.407656 44.856719) scale(0.09 -0.09)">
      <defs>
       <path id="DejaVuSans-64" d="M 2906 2969 
L 2906 4863 
L 3481 4863 
L 3481 0 
L 2906 0 
L 2906 525 
Q 2725 213 2448 61 
Q 2172 -91 1784 -91 
Q 1150 -91 751 415 
Q 353 922 353 1747 
Q 353 2572 751 3078 
Q 1150 3584 1784 3584 
Q 2172 3584 2448 3432 
Q 2725 3281 2906 2969 
z
M 947 1747 
Q 947 1113 1208 752 
Q 1469 391 1925 391 
Q 2381 391 2643 752 
Q 2906 1113 2906 1747 
Q 2906 2381 2643 2742 
Q 2381 3103 1925 3103 
Q 1469 3103 1208 2742 
Q 947 2381 947 1747 
z
" transform="scale(0.015625)"/>
       <path id="DejaVuSans-73" d="M 2834 3397 
L 2834 2853 
Q 2591 2978 2328 3040 
Q 2066 3103 1784 3103 
Q 1356 3103 1142 2972 
Q 928 2841 928 2578 
Q 928 2378 1081 2264 
Q 1234 2150 1697 2047 
L 1894 2003 
Q 2506 1872 2764 1633 
Q 3022 1394 3022 966 
Q 3022 478 2636 193 
Q 2250 -91 1575 -91 
Q 1294 -91 989 -36 
Q 684 19 347 128 
L 347 722 
Q 666 556 975 473 
Q 1284 391 1588 391 
Q 1994 391 2212 530 
Q 2431 669 2431 922 
Q 2431 1156 2273 1281 
Q 2116 1406 1581 1522 
L 1381 1569 
Q 847 1681 609 1914 
Q 372 2147 372 2553 
Q 372 3047 722 3315 
Q 1072 3584 1716 3584 
Q 2034 3584 2315 3537 
Q 2597 3491 2834 3397 
z
" transform="scale(0.015625)"/>
      </defs>
      <use xlink:href="#DejaVuSans-54"/>
      <use xlink:href="#DejaVuSans-61" transform="translate(44.583984 0)"/>
      <use xlink:href="#DejaVuSans-6e" transform="translate(105.863281 0)"/>
      <use xlink:href="#DejaVuSans-64" transform="translate(169.242188 0)"/>
      <use xlink:href="#DejaVuSans-65" transform="translate(232.71875 0)"/>
      <use xlink:href="#DejaVuSans-6d" transform="translate(294.242188 0)"/>
      <use xlink:href="#DejaVuSans-20" transform="translate(391.654297 0)"/>
      <use xlink:href="#DejaVuSans-52" transform="translate(423.441406 0)"/>
      <use xlink:href="#DejaVuSans-65" transform="translate(488.423828 0)"/>
      <use xlink:href="#DejaVuSans-70" transform="translate(549.947266 0)"/>
      <use xlink:href="#DejaVuSans-65" transform="translate(613.423828 0)"/>
      <use xlink:href="#DejaVuSans-61" transform="translate(674.947266 0)"/>
      <use xlink:href="#DejaVuSans-74" transform="translate(736.226562 0)"/>
      <use xlink:href="#DejaVuSans-73" transform="translate(775.435547 0)"/>
     </g>
    </g>
    <g id="patch_21">
     <path d="M 399.207656 58.067031 
L 417.207656 58.067031 
L 417.207656 51.767031 
L 399.207656 51.767031 
z
" style="fill: #ff7f0e; stroke: #333333; stroke-linejoin: miter"/>
    </g>
    <g id="text_11">
     <!-- HLA/Immune -->
     <g transform="translate(424.407656 58.067031) scale(0.09 -0.09)">
      <defs>
       <path id="DejaVuSans-2f" d="M 1625 4666 
L 2156 4666 
L 531 -594 
L 0 -594 
L 1625 4666 
z
" transform="scale(0.015625)"/>
       <path id="DejaVuSans-49" d="M 628 4666 
L 1259 4666 
L 1259 0 
L 628 0 
L 628 4666 
z
" transform="scale(0.015625)"/>
      </defs>
      <use xlink:href="#DejaVuSans-48"/>
      <use xlink:href="#DejaVuSans-4c" transform="translate(75.195312 0)"/>
      <use xlink:href="#DejaVuSans-41" transform="translate(133.158203 0)"/>
      <use xlink:href="#DejaVuSans-2f" transform="translate(201.566406 0)"/>
      <use xlink:href="#DejaVuSans-49" transform="translate(235.257812 0)"/>
      <use xlink:href="#DejaVuSans-6d" transform="translate(264.75 0)"/>
      <use xlink:href="#DejaVuSans-6d" transform="translate(362.162109 0)"/>
      <use xlink:href="#DejaVuSans-75" transform="translate(459.574219 0)"/>
      <use xlink:href="#DejaVuSans-6e" transform="translate(522.953125 0)"/>
      <use xlink:href="#DejaVuSans-65" transform="translate(586.332031 0)"/>
     </g>
    </g>
    <g id="patch_22">
     <path d="M 516.886875 44.856719 
L 534.886875 44.856719 
L 534.886875 38.556719 
L 516.886875 38.556719 
z
" style="fill: #9467bd; stroke: #333333; stroke-linejoin: miter"/>
    </g>
    <g id="text_12">
     <!-- Pharmacogenes -->
     <g transform="translate(542.086875 44.856719) scale(0.09 -0.09)">
      <defs>
       <path id="DejaVuSans-68" d="M 3513 2113 
L 3513 0 
L 2938 0 
L 2938 2094 
Q 2938 2591 2744 2837 
Q 2550 3084 2163 3084 
Q 1697 3084 1428 2787 
Q 1159 2491 1159 1978 
L 1159 0 
L 581 0 
L 581 4863 
L 1159 4863 
L 1159 2956 
Q 1366 3272 1645 3428 
Q 1925 3584 2291 3584 
Q 2894 3584 3203 3211 
Q 3513 2838 3513 2113 
z
" transform="scale(0.015625)"/>
       <path id="DejaVuSans-63" d="M 3122 3366 
L 3122 2828 
Q 2878 2963 2633 3030 
Q 2388 3097 2138 3097 
Q 1578 3097 1268 2742 
Q 959 2388 959 1747 
Q 959 1106 1268 751 
Q 1578 397 2138 397 
Q 2388 397 2633 464 
Q 2878 531 3122 666 
L 3122 134 
Q 2881 22 2623 -34 
Q 2366 -91 2075 -91 
Q 1284 -91 818 406 
Q 353 903 353 1747 
Q 353 2603 823 3093 
Q 1294 3584 2113 3584 
Q 2378 3584 2631 3529 
Q 2884 3475 3122 3366 
z
" transform="scale(0.015625)"/>
      </defs>
      <use xlink:href="#DejaVuSans-50"/>
      <use xlink:href="#DejaVuSans-68" transform="translate(60.302734 0)"/>
      <use xlink:href="#DejaVuSans-61" transform="translate(123.681641 0)"/>
      <use xlink:href="#DejaVuSans-72" transform="translate(184.960938 0)"/>
      <use xlink:href="#DejaVuSans-6d" transform="translate(224.324219 0)"/>
      <use xlink:href="#DejaVuSans-61" transform="translate(321.736328 0)"/>
      <use xlink:href="#DejaVuSans-63" transform="translate(383.015625 0)"/>
      <use xlink:href="#DejaVuSans-6f" transform="translate(437.996094 0)"/>
      <use xlink:href="#DejaVuSans-67" transform="translate(499.177734 0)"/>
      <use xlink:href="#DejaVuSans-65" transform="translate(562.654297 0)"/>
      <use xlink:href="#DejaVuSans-6e" transform="translate(624.177734 0)"/>
      <use xlink:href="#DejaVuSans-65" transform="translate(687.556641 0)"/>
      <use xlink:href="#DejaVuSans-73" transform="translate(749.080078 0)"/>
     </g>
    </g>
    <g id="patch_23">
     <path d="M 516.886875 58.067031 
L 534.886875 58.067031 
L 534.886875 51.767031 
L 516.886875 51.767031 
z
" style="fill: #ffbb78; stroke: #333333; stroke-linejoin: miter"/>
    </g>
    <g id="text_13">
     <!-- Segmental Dups -->
     <g transform="translate(542.086875 58.067031) scale(0.09 -0.09)">
      <defs>
       <path id="DejaVuSans-53" d="M 3425 4513 
L 3425 3897 
Q 3066 4069 2747 4153 
Q 2428 4238 2131 4238 
Q 1616 4238 1336 4038 
Q 1056 3838 1056 3469 
Q 1056 3159 1242 3001 
Q 1428 2844 1947 2747 
L 2328 2669 
Q 3034 2534 3370 2195 
Q 3706 1856 3706 1288 
Q 3706 609 3251 259 
Q 2797 -91 1919 -91 
Q 1588 -91 1214 -16 
Q 841 59 441 206 
L 441 856 
Q 825 641 1194 531 
Q 1563 422 1919 422 
Q 2459 422 2753 634 
Q 3047 847 3047 1241 
Q 3047 1584 2836 1778 
Q 2625 1972 2144 2069 
L 1759 2144 
Q 1053 2284 737 2584 
Q 422 2884 422 3419 
Q 422 4038 858 4394 
Q 1294 4750 2059 4750 
Q 2388 4750 2728 4690 
Q 3069 4631 3425 4513 
z
" transform="scale(0.015625)"/>
      </defs>
      <use xlink:href="#DejaVuSans-53"/>
      <use xlink:href="#DejaVuSans-65" transform="translate(63.476562 0)"/>
      <use xlink:href="#DejaVuSans-67" transform="translate(125 0)"/>
      <use xlink:href="#DejaVuSans-6d" transform="translate(188.476562 0)"/>
      <use xlink:href="#DejaVuSans-65" transform="translate(285.888672 0)"/>
      <use xlink:href="#DejaVuSans-6e" transform="translate(347.412109 0)"/>
      <use xlink:href="#DejaVuSans-74" transform="translate(410.791016 0)"/>
      <use xlink:href="#DejaVuSans-61" transform="translate(450 0)"/>
      <use xlink:href="#DejaVuSans-6c" transform="translate(511.279297 0)"/>
      <use xlink:href="#DejaVuSans-20" transform="translate(539.0625 0)"/>
      <use xlink:href="#DejaVuSans-44" transform="translate(570.849609 0)"/>
      <use xlink:href="#DejaVuSans-75" transform="translate(647.851562 0)"/>
      <use xlink:href="#DejaVuSans-70" transform="translate(711.230469 0)"/>
      <use xlink:href="#DejaVuSans-73" transform="translate(774.707031 0)"/>
     </g>
    </g>
   </g>
  </g>
  <g id="axes_2">
   <g id="patch_24">
    <path d="M 87.184 346.657461 
L 298.149333 346.657461 
Q 305.424 346.657461 305.424 344.015214 
L 305.424 326.84061 
Q 305.424 324.198363 298.149333 324.198363 
L 87.184 324.198363 
Q 79.909333 324.198363 79.909333 326.84061 
L 79.909333 344.015214 
Q 79.909333 346.657461 87.184 346.657461 
z
" clip-path="url(#p75f39b06d9)" style="fill: #ffbb78; opacity: 0.7; stroke: #666666; stroke-width: 1.5; stroke-linejoin: miter"/>
   </g>
   <g id="patch_25">
    <path d="M 90.821333 370.437682 
L 112.645333 370.437682 
L 112.645333 359.868695 
L 90.821333 359.868695 
z
" clip-path="url(#p75f39b06d9)" style="fill: #aec7e8; stroke: #1f77b4; stroke-width: 0.8; stroke-linejoin: miter"/>
   </g>
   <g id="patch_26">
    <path d="M 118.880762 370.437682 
L 140.704762 370.437682 
L 140.704762 359.868695 
L 118.880762 359.868695 
z
" clip-path="url(#p75f39b06d9)" style="fill: #aec7e8; stroke: #1f77b4; stroke-width: 0.8; stroke-linejoin: miter"/>
   </g>
   <g id="patch_27">
    <path d="M 146.94019 370.437682 
L 168.76419 370.437682 
L 168.76419 359.868695 
L 146.94019 359.868695 
z
" clip-path="url(#p75f39b06d9)" style="fill: #aec7e8; stroke: #1f77b4; stroke-width: 0.8; stroke-linejoin: miter"/>
   </g>
   <g id="patch_28">
    <path d="M 174.999619 370.437682 
L 196.823619 370.437682 
L 196.823619 359.868695 
L 174.999619 359.868695 
z
" clip-path="url(#p75f39b06d9)" style="fill: #aec7e8; stroke: #1f77b4; stroke-width: 0.8; stroke-linejoin: miter"/>
   </g>
   <g id="patch_29">
    <path d="M 203.059048 370.437682 
L 224.883048 370.437682 
L 224.883048 359.868695 
L 203.059048 359.868695 
z
" clip-path="url(#p75f39b06d9)" style="fill: #aec7e8; stroke: #1f77b4; stroke-width: 0.8; stroke-linejoin: miter"/>
   </g>
   <g id="patch_30">
    <path d="M 231.118476 370.437682 
L 252.942476 370.437682 
L 252.942476 359.868695 
L 231.118476 359.868695 
z
" clip-path="url(#p75f39b06d9)" style="fill: #aec7e8; stroke: #1f77b4; stroke-width: 0.8; stroke-linejoin: miter"/>
   </g>
   <g id="patch_31">
    <path d="M 259.177905 370.437682 
L 281.001905 370.437682 
L 281.001905 359.868695 
L 259.177905 359.868695 
z
" clip-path="url(#p75f39b06d9)" style="fill: #aec7e8; stroke: #1f77b4; stroke-width: 0.8; stroke-linejoin: miter"/>
   </g>
   <g id="patch_32">
    <path d="M 287.237333 370.437682 
L 309.061333 370.437682 
L 309.061333 359.868695 
L 287.237333 359.868695 
z
" clip-path="url(#p75f39b06d9)" style="fill: #aec7e8; stroke: #1f77b4; stroke-width: 0.8; stroke-linejoin: miter"/>
   </g>
   <g id="patch_33">
    <path d="M 89.002667 404.126329 
L 303.605333 404.126329 
Q 310.88 404.126329 310.88 401.484082 
L 310.88 394.878465 
Q 310.88 392.236219 303.605333 392.236219 
L 89.002667 392.236219 
Q 81.728 392.236219 81.728 394.878465 
L 81.728 401.484082 
Q 81.728 404.126329 89.002667 404.126329 
z
" clip-path="url(#p75f39b06d9)" style="fill: #98df8a; stroke: #2ca02c; stroke-width: 1.5; stroke-linejoin: miter"/>
   </g>
   <g id="text_14">
    <!-- Repetitive Region (~10 kb) -->
    <g transform="translate(116.223698 338.148225) scale(0.1 -0.1)">
     <defs>
      <path id="DejaVuSans-Bold-76" d="M 97 3500 
L 1216 3500 
L 2088 1081 
L 2956 3500 
L 4078 3500 
L 2700 0 
L 1472 0 
L 97 3500 
z
" transform="scale(0.015625)"/>
      <path id="DejaVuSans-Bold-7e" d="M 4684 2656 
L 4684 1894 
Q 4353 1644 4073 1536 
Q 3794 1428 3494 1428 
Q 3159 1428 2713 1609 
Q 2669 1628 2644 1638 
Q 2622 1647 2575 1666 
Q 2091 1856 1797 1856 
Q 1522 1856 1253 1736 
Q 984 1616 678 1356 
L 678 2119 
Q 1013 2369 1291 2476 
Q 1569 2584 1869 2584 
Q 2203 2584 2650 2403 
Q 2697 2384 2719 2375 
Q 2741 2366 2788 2347 
Q 3272 2156 3566 2156 
Q 3834 2156 4098 2273 
Q 4363 2391 4684 2656 
z
" transform="scale(0.015625)"/>
      <path id="DejaVuSans-Bold-31" d="M 750 831 
L 1813 831 
L 1813 3847 
L 722 3622 
L 722 4441 
L 1806 4666 
L 2950 4666 
L 2950 831 
L 4013 831 
L 4013 0 
L 750 0 
L 750 831 
z
" transform="scale(0.015625)"/>
      <path id="DejaVuSans-Bold-30" d="M 2944 2338 
Q 2944 3213 2780 3570 
Q 2616 3928 2228 3928 
Q 1841 3928 1675 3570 
Q 1509 3213 1509 2338 
Q 1509 1453 1675 1090 
Q 1841 728 2228 728 
Q 2613 728 2778 1090 
Q 2944 1453 2944 2338 
z
M 4147 2328 
Q 4147 1169 3647 539 
Q 3147 -91 2228 -91 
Q 1306 -91 806 539 
Q 306 1169 306 2328 
Q 306 3491 806 4120 
Q 1306 4750 2228 4750 
Q 3147 4750 3647 4120 
Q 4147 3491 4147 2328 
z
" transform="scale(0.015625)"/>
      <path id="DejaVuSans-Bold-6b" d="M 538 4863 
L 1656 4863 
L 1656 2216 
L 2944 3500 
L 4244 3500 
L 2534 1894 
L 4378 0 
L 3022 0 
L 1656 1459 
L 1656 0 
L 538 0 
L 538 4863 
z
" transform="scale(0.015625)"/>
     </defs>
     <use xlink:href="#DejaVuSans-Bold-52"/>
     <use xlink:href="#DejaVuSans-Bold-65" transform="translate(77.001953 0)"/>
     <use xlink:href="#DejaVuSans-Bold-70" transform="translate(144.824219 0)"/>
     <use xlink:href="#DejaVuSans-Bold-65" transform="translate(216.40625 0)"/>
     <use xlink:href="#DejaVuSans-Bold-74" transform="translate(284.228516 0)"/>
     <use xlink:href="#DejaVuSans-Bold-69" transform="translate(332.03125 0)"/>
     <use xlink:href="#DejaVuSans-Bold-74" transform="translate(366.308594 0)"/>
     <use xlink:href="#DejaVuSans-Bold-69" transform="translate(414.111328 0)"/>
     <use xlink:href="#DejaVuSans-Bold-76" transform="translate(448.388672 0)"/>
     <use xlink:href="#DejaVuSans-Bold-65" transform="translate(513.574219 0)"/>
     <use xlink:href="#DejaVuSans-Bold-20" transform="translate(581.396484 0)"/>
     <use xlink:href="#DejaVuSans-Bold-52" transform="translate(616.210938 0)"/>
     <use xlink:href="#DejaVuSans-Bold-65" transform="translate(693.212891 0)"/>
     <use xlink:href="#DejaVuSans-Bold-67" transform="translate(761.035156 0)"/>
     <use xlink:href="#DejaVuSans-Bold-69" transform="translate(832.617188 0)"/>
     <use xlink:href="#DejaVuSans-Bold-6f" transform="translate(866.894531 0)"/>
     <use xlink:href="#DejaVuSans-Bold-6e" transform="translate(935.595703 0)"/>
     <use xlink:href="#DejaVuSans-Bold-20" transform="translate(1006.787109 0)"/>
     <use xlink:href="#DejaVuSans-Bold-28" transform="translate(1041.601562 0)"/>
     <use xlink:href="#DejaVuSans-Bold-7e" transform="translate(1087.304688 0)"/>
     <use xlink:href="#DejaVuSans-Bold-31" transform="translate(1171.09375 0)"/>
     <use xlink:href="#DejaVuSans-Bold-30" transform="translate(1240.673828 0)"/>
     <use xlink:href="#DejaVuSans-Bold-20" transform="translate(1310.253906 0)"/>
     <use xlink:href="#DejaVuSans-Bold-6b" transform="translate(1345.068359 0)"/>
     <use xlink:href="#DejaVuSans-Bold-62" transform="translate(1411.572266 0)"/>
     <use xlink:href="#DejaVuSans-Bold-29" transform="translate(1483.154297 0)"/>
    </g>
   </g>
   <g id="text_15">
    <!-- Short -->
    <g transform="translate(28.986667 362.313658) scale(0.1 -0.1)">
     <use xlink:href="#DejaVuSans-53"/>
     <use xlink:href="#DejaVuSans-68" transform="translate(63.476562 0)"/>
     <use xlink:href="#DejaVuSans-6f" transform="translate(126.855469 0)"/>
     <use xlink:href="#DejaVuSans-72" transform="translate(188.037109 0)"/>
     <use xlink:href="#DejaVuSans-74" transform="translate(229.150391 0)"/>
    </g>
    <!-- reads: -->
    <g transform="translate(28.986667 373.51147) scale(0.1 -0.1)">
     <defs>
      <path id="DejaVuSans-3a" d="M 750 794 
L 1409 794 
L 1409 0 
L 750 0 
L 750 794 
z
M 750 3309 
L 1409 3309 
L 1409 2516 
L 750 2516 
L 750 3309 
z
" transform="scale(0.015625)"/>
     </defs>
     <use xlink:href="#DejaVuSans-72"/>
     <use xlink:href="#DejaVuSans-65" transform="translate(38.863281 0)"/>
     <use xlink:href="#DejaVuSans-61" transform="translate(100.386719 0)"/>
     <use xlink:href="#DejaVuSans-64" transform="translate(161.666016 0)"/>
     <use xlink:href="#DejaVuSans-73" transform="translate(225.142578 0)"/>
     <use xlink:href="#DejaVuSans-3a" transform="translate(277.242188 0)"/>
    </g>
   </g>
   <g id="text_16">
    <!-- ? -->
    <g style="fill: #d62728" transform="translate(154.951409 381.99949) scale(0.1 -0.1)">
     <defs>
      <path id="DejaVuSans-Bold-3f" d="M 2216 1575 
L 1088 1575 
L 1088 1728 
Q 1088 1984 1191 2182 
Q 1294 2381 1625 2688 
L 1825 2869 
Q 2003 3031 2086 3175 
Q 2169 3319 2169 3463 
Q 2169 3681 2019 3804 
Q 1869 3928 1600 3928 
Q 1347 3928 1053 3823 
Q 759 3719 441 3513 
L 441 4494 
Q 819 4625 1131 4687 
Q 1444 4750 1734 4750 
Q 2497 4750 2897 4439 
Q 3297 4128 3297 3531 
Q 3297 3225 3175 2983 
Q 3053 2741 2759 2463 
L 2559 2284 
Q 2347 2091 2281 1973 
Q 2216 1856 2216 1716 
L 2216 1575 
z
M 1088 1113 
L 2216 1113 
L 2216 0 
L 1088 0 
L 1088 1113 
z
" transform="scale(0.015625)"/>
     </defs>
     <use xlink:href="#DejaVuSans-Bold-3f"/>
    </g>
   </g>
   <g id="text_17">
    <!-- ? -->
    <g style="fill: #d62728" transform="translate(183.010838 381.99949) scale(0.1 -0.1)">
     <use xlink:href="#DejaVuSans-Bold-3f"/>
    </g>
   </g>
   <g id="text_18">
    <!-- ? -->
    <g style="fill: #d62728" transform="translate(211.070266 381.99949) scale(0.1 -0.1)">
     <use xlink:href="#DejaVuSans-Bold-3f"/>
    </g>
   </g>
   <g id="text_19">
    <!-- ? -->
    <g style="fill: #d62728" transform="translate(239.129695 381.99949) scale(0.1 -0.1)">
     <use xlink:href="#DejaVuSans-Bold-3f"/>
    </g>
   </g>
   <g id="text_20">
    <!-- Ambiguous -->
    <g style="fill: #d62728" transform="translate(319.973333 362.597611) scale(0.09 -0.09)">
     <defs>
      <path id="DejaVuSans-Oblique-41" d="M 2356 4666 
L 3072 4666 
L 3938 0 
L 3278 0 
L 3084 1197 
L 984 1197 
L 325 0 
L -341 0 
L 2356 4666 
z
M 2584 4044 
L 1275 1722 
L 2988 1722 
L 2584 4044 
z
" transform="scale(0.015625)"/>
      <path id="DejaVuSans-Oblique-6d" d="M 5747 2113 
L 5338 0 
L 4763 0 
L 5166 2094 
Q 5191 2228 5203 2325 
Q 5216 2422 5216 2491 
Q 5216 2772 5059 2928 
Q 4903 3084 4622 3084 
Q 4203 3084 3875 2770 
Q 3547 2456 3450 1953 
L 3066 0 
L 2491 0 
L 2900 2094 
Q 2925 2209 2937 2307 
Q 2950 2406 2950 2484 
Q 2950 2769 2794 2926 
Q 2638 3084 2363 3084 
Q 1938 3084 1609 2770 
Q 1281 2456 1184 1953 
L 800 0 
L 225 0 
L 909 3500 
L 1484 3500 
L 1375 2956 
Q 1609 3263 1923 3423 
Q 2238 3584 2597 3584 
Q 2978 3584 3223 3384 
Q 3469 3184 3519 2828 
Q 3781 3197 4126 3390 
Q 4472 3584 4856 3584 
Q 5306 3584 5551 3325 
Q 5797 3066 5797 2591 
Q 5797 2488 5784 2364 
Q 5772 2241 5747 2113 
z
" transform="scale(0.015625)"/>
      <path id="DejaVuSans-Oblique-62" d="M 3169 2138 
Q 3169 2591 2961 2847 
Q 2753 3103 2388 3103 
Q 2122 3103 1889 2973 
Q 1656 2844 1484 2597 
Q 1303 2338 1198 1995 
Q 1094 1653 1094 1313 
Q 1094 881 1298 636 
Q 1503 391 1863 391 
Q 2134 391 2365 517 
Q 2597 644 2772 891 
Q 2950 1147 3059 1487 
Q 3169 1828 3169 2138 
z
M 1381 2969 
Q 1594 3256 1914 3420 
Q 2234 3584 2584 3584 
Q 3122 3584 3439 3221 
Q 3756 2859 3756 2241 
Q 3756 1734 3570 1259 
Q 3384 784 3041 416 
Q 2816 172 2522 40 
Q 2228 -91 1906 -91 
Q 1566 -91 1316 65 
Q 1066 222 909 531 
L 806 0 
L 231 0 
L 1178 4863 
L 1753 4863 
L 1381 2969 
z
" transform="scale(0.015625)"/>
      <path id="DejaVuSans-Oblique-69" d="M 1172 4863 
L 1747 4863 
L 1606 4134 
L 1031 4134 
L 1172 4863 
z
M 909 3500 
L 1484 3500 
L 800 0 
L 225 0 
L 909 3500 
z
" transform="scale(0.015625)"/>
      <path id="DejaVuSans-Oblique-67" d="M 3816 3500 
L 3219 434 
Q 3047 -456 2561 -893 
Q 2075 -1331 1253 -1331 
Q 950 -1331 690 -1286 
Q 431 -1241 206 -1147 
L 313 -588 
Q 525 -725 762 -790 
Q 1000 -856 1269 -856 
Q 1816 -856 2167 -557 
Q 2519 -259 2631 300 
L 2681 563 
Q 2441 288 2122 144 
Q 1803 0 1434 0 
Q 903 0 598 351 
Q 294 703 294 1319 
Q 294 1803 478 2267 
Q 663 2731 997 3091 
Q 1219 3328 1514 3456 
Q 1809 3584 2131 3584 
Q 2484 3584 2746 3420 
Q 3009 3256 3138 2956 
L 3238 3500 
L 3816 3500 
z
M 2950 2216 
Q 2950 2641 2750 2872 
Q 2550 3103 2181 3103 
Q 1953 3103 1747 3012 
Q 1541 2922 1394 2759 
Q 1156 2491 1023 2127 
Q 891 1763 891 1375 
Q 891 944 1092 712 
Q 1294 481 1672 481 
Q 2219 481 2584 976 
Q 2950 1472 2950 2216 
z
" transform="scale(0.015625)"/>
      <path id="DejaVuSans-Oblique-75" d="M 428 1388 
L 838 3500 
L 1416 3500 
L 1006 1409 
Q 975 1256 961 1147 
Q 947 1038 947 966 
Q 947 700 1109 554 
Q 1272 409 1569 409 
Q 2031 409 2368 721 
Q 2706 1034 2809 1563 
L 3194 3500 
L 3769 3500 
L 3091 0 
L 2516 0 
L 2631 550 
Q 2388 244 2052 76 
Q 1716 -91 1338 -91 
Q 878 -91 622 161 
Q 366 413 366 863 
Q 366 956 381 1097 
Q 397 1238 428 1388 
z
" transform="scale(0.015625)"/>
      <path id="DejaVuSans-Oblique-6f" d="M 1625 -91 
Q 1009 -91 651 289 
Q 294 669 294 1325 
Q 294 1706 417 2101 
Q 541 2497 738 2766 
Q 1047 3184 1428 3384 
Q 1809 3584 2291 3584 
Q 2888 3584 3255 3212 
Q 3622 2841 3622 2241 
Q 3622 1825 3500 1412 
Q 3378 1000 3181 728 
Q 2875 309 2494 109 
Q 2113 -91 1625 -91 
z
M 891 1344 
Q 891 869 1089 633 
Q 1288 397 1691 397 
Q 2269 397 2648 901 
Q 3028 1406 3028 2181 
Q 3028 2634 2825 2865 
Q 2622 3097 2228 3097 
Q 1903 3097 1650 2945 
Q 1397 2794 1197 2484 
Q 1050 2253 970 1956 
Q 891 1659 891 1344 
z
" transform="scale(0.015625)"/>
      <path id="DejaVuSans-Oblique-73" d="M 3200 3397 
L 3091 2853 
Q 2863 2978 2609 3040 
Q 2356 3103 2088 3103 
Q 1634 3103 1373 2948 
Q 1113 2794 1113 2528 
Q 1113 2219 1719 2053 
Q 1766 2041 1788 2034 
L 1972 1978 
Q 2547 1819 2739 1644 
Q 2931 1469 2931 1166 
Q 2931 609 2489 259 
Q 2047 -91 1331 -91 
Q 1053 -91 747 -37 
Q 441 16 72 128 
L 184 722 
Q 500 559 806 475 
Q 1113 391 1394 391 
Q 1816 391 2080 572 
Q 2344 753 2344 1031 
Q 2344 1331 1650 1516 
L 1591 1531 
L 1394 1581 
Q 956 1697 753 1886 
Q 550 2075 550 2369 
Q 550 2928 970 3256 
Q 1391 3584 2113 3584 
Q 2397 3584 2667 3537 
Q 2938 3491 3200 3397 
z
" transform="scale(0.015625)"/>
     </defs>
     <use xlink:href="#DejaVuSans-Oblique-41"/>
     <use xlink:href="#DejaVuSans-Oblique-6d" transform="translate(68.408203 0)"/>
     <use xlink:href="#DejaVuSans-Oblique-62" transform="translate(165.820312 0)"/>
     <use xlink:href="#DejaVuSans-Oblique-69" transform="translate(229.296875 0)"/>
     <use xlink:href="#DejaVuSans-Oblique-67" transform="translate(257.080078 0)"/>
     <use xlink:href="#DejaVuSans-Oblique-75" transform="translate(320.556641 0)"/>
     <use xlink:href="#DejaVuSans-Oblique-6f" transform="translate(383.935547 0)"/>
     <use xlink:href="#DejaVuSans-Oblique-75" transform="translate(445.117188 0)"/>
     <use xlink:href="#DejaVuSans-Oblique-73" transform="translate(508.496094 0)"/>
    </g>
    <!-- mapping -->
    <g style="fill: #d62728" transform="translate(319.973333 372.675642) scale(0.09 -0.09)">
     <defs>
      <path id="DejaVuSans-Oblique-61" d="M 3438 1997 
L 3047 0 
L 2472 0 
L 2578 531 
Q 2325 219 2001 64 
Q 1678 -91 1281 -91 
Q 834 -91 548 182 
Q 263 456 263 884 
Q 263 1497 752 1853 
Q 1241 2209 2100 2209 
L 2900 2209 
L 2931 2363 
Q 2938 2388 2941 2417 
Q 2944 2447 2944 2509 
Q 2944 2788 2717 2942 
Q 2491 3097 2081 3097 
Q 1800 3097 1504 3025 
Q 1209 2953 897 2809 
L 997 3341 
Q 1322 3463 1633 3523 
Q 1944 3584 2234 3584 
Q 2853 3584 3176 3315 
Q 3500 3047 3500 2534 
Q 3500 2431 3484 2292 
Q 3469 2153 3438 1997 
z
M 2816 1759 
L 2241 1759 
Q 1534 1759 1195 1570 
Q 856 1381 856 984 
Q 856 709 1029 553 
Q 1203 397 1509 397 
Q 1978 397 2328 733 
Q 2678 1069 2791 1631 
L 2816 1759 
z
" transform="scale(0.015625)"/>
      <path id="DejaVuSans-Oblique-70" d="M 3175 2156 
Q 3175 2616 2975 2859 
Q 2775 3103 2400 3103 
Q 2144 3103 1911 2972 
Q 1678 2841 1497 2591 
Q 1319 2344 1212 1994 
Q 1106 1644 1106 1300 
Q 1106 863 1306 627 
Q 1506 391 1875 391 
Q 2147 391 2380 519 
Q 2613 647 2778 891 
Q 2956 1147 3065 1494 
Q 3175 1841 3175 2156 
z
M 1394 2969 
Q 1625 3272 1939 3428 
Q 2253 3584 2638 3584 
Q 3175 3584 3472 3232 
Q 3769 2881 3769 2247 
Q 3769 1728 3584 1258 
Q 3400 788 3053 416 
Q 2822 169 2531 39 
Q 2241 -91 1919 -91 
Q 1547 -91 1294 64 
Q 1041 219 916 525 
L 556 -1331 
L -19 -1331 
L 922 3500 
L 1497 3500 
L 1394 2969 
z
" transform="scale(0.015625)"/>
      <path id="DejaVuSans-Oblique-6e" d="M 3566 2113 
L 3156 0 
L 2578 0 
L 2988 2091 
Q 3016 2238 3031 2350 
Q 3047 2463 3047 2528 
Q 3047 2791 2881 2937 
Q 2716 3084 2419 3084 
Q 1956 3084 1622 2776 
Q 1288 2469 1184 1941 
L 800 0 
L 225 0 
L 903 3500 
L 1478 3500 
L 1363 2950 
Q 1603 3253 1940 3418 
Q 2278 3584 2650 3584 
Q 3113 3584 3367 3334 
Q 3622 3084 3622 2631 
Q 3622 2519 3608 2391 
Q 3594 2263 3566 2113 
z
" transform="scale(0.015625)"/>
     </defs>
     <use xlink:href="#DejaVuSans-Oblique-6d"/>
     <use xlink:href="#DejaVuSans-Oblique-61" transform="translate(97.412109 0)"/>
     <use xlink:href="#DejaVuSans-Oblique-70" transform="translate(158.691406 0)"/>
     <use xlink:href="#DejaVuSans-Oblique-70" transform="translate(222.167969 0)"/>
     <use xlink:href="#DejaVuSans-Oblique-69" transform="translate(285.644531 0)"/>
     <use xlink:href="#DejaVuSans-Oblique-6e" transform="translate(313.427734 0)"/>
     <use xlink:href="#DejaVuSans-Oblique-67" transform="translate(376.806641 0)"/>
    </g>
   </g>
   <g id="text_21">
    <!-- Long -->
    <g transform="translate(28.986667 395.341743) scale(0.1 -0.1)">
     <use xlink:href="#DejaVuSans-4c"/>
     <use xlink:href="#DejaVuSans-6f" transform="translate(53.962891 0)"/>
     <use xlink:href="#DejaVuSans-6e" transform="translate(115.144531 0)"/>
     <use xlink:href="#DejaVuSans-67" transform="translate(178.523438 0)"/>
    </g>
    <!-- read: -->
    <g transform="translate(28.986667 406.539555) scale(0.1 -0.1)">
     <use xlink:href="#DejaVuSans-72"/>
     <use xlink:href="#DejaVuSans-65" transform="translate(38.863281 0)"/>
     <use xlink:href="#DejaVuSans-61" transform="translate(100.386719 0)"/>
     <use xlink:href="#DejaVuSans-64" transform="translate(161.666016 0)"/>
     <use xlink:href="#DejaVuSans-3a" transform="translate(225.142578 0)"/>
    </g>
   </g>
   <g id="text_22">
    <!-- Unambiguous -->
    <g style="fill: #2ca02c" transform="translate(319.973333 395.59054) scale(0.09 -0.09)">
     <defs>
      <path id="DejaVuSans-Bold-55" d="M 588 4666 
L 1791 4666 
L 1791 1869 
Q 1791 1291 1980 1042 
Q 2169 794 2597 794 
Q 3028 794 3217 1042 
Q 3406 1291 3406 1869 
L 3406 4666 
L 4609 4666 
L 4609 1869 
Q 4609 878 4112 393 
Q 3616 -91 2597 -91 
Q 1581 -91 1084 393 
Q 588 878 588 1869 
L 588 4666 
z
" transform="scale(0.015625)"/>
     </defs>
     <use xlink:href="#DejaVuSans-Bold-55"/>
     <use xlink:href="#DejaVuSans-Bold-6e" transform="translate(81.201172 0)"/>
     <use xlink:href="#DejaVuSans-Bold-61" transform="translate(152.392578 0)"/>
     <use xlink:href="#DejaVuSans-Bold-6d" transform="translate(219.873047 0)"/>
     <use xlink:href="#DejaVuSans-Bold-62" transform="translate(324.072266 0)"/>
     <use xlink:href="#DejaVuSans-Bold-69" transform="translate(395.654297 0)"/>
     <use xlink:href="#DejaVuSans-Bold-67" transform="translate(429.931641 0)"/>
     <use xlink:href="#DejaVuSans-Bold-75" transform="translate(501.513672 0)"/>
     <use xlink:href="#DejaVuSans-Bold-6f" transform="translate(572.705078 0)"/>
     <use xlink:href="#DejaVuSans-Bold-75" transform="translate(641.40625 0)"/>
     <use xlink:href="#DejaVuSans-Bold-73" transform="translate(712.597656 0)"/>
    </g>
    <!-- resolution -->
    <g style="fill: #2ca02c" transform="translate(319.973333 405.738883) scale(0.09 -0.09)">
     <use xlink:href="#DejaVuSans-Bold-72"/>
     <use xlink:href="#DejaVuSans-Bold-65" transform="translate(49.316406 0)"/>
     <use xlink:href="#DejaVuSans-Bold-73" transform="translate(117.138672 0)"/>
     <use xlink:href="#DejaVuSans-Bold-6f" transform="translate(176.660156 0)"/>
     <use xlink:href="#DejaVuSans-Bold-6c" transform="translate(245.361328 0)"/>
     <use xlink:href="#DejaVuSans-Bold-75" transform="translate(279.638672 0)"/>
     <use xlink:href="#DejaVuSans-Bold-74" transform="translate(350.830078 0)"/>
     <use xlink:href="#DejaVuSans-Bold-69" transform="translate(398.632812 0)"/>
     <use xlink:href="#DejaVuSans-Bold-6f" transform="translate(432.910156 0)"/>
     <use xlink:href="#DejaVuSans-Bold-6e" transform="translate(501.611328 0)"/>
    </g>
   </g>
   <g id="text_23">
    <!-- (B) Short-Read vs Long-Read Resolution -->
    <g transform="translate(10.8 275.885785) scale(0.12 -0.12)">
     <defs>
      <path id="DejaVuSans-Bold-42" d="M 2456 2859 
Q 2741 2859 2887 2984 
Q 3034 3109 3034 3353 
Q 3034 3594 2887 3720 
Q 2741 3847 2456 3847 
L 1791 3847 
L 1791 2859 
L 2456 2859 
z
M 2497 819 
Q 2859 819 3042 972 
Q 3225 1125 3225 1434 
Q 3225 1738 3044 1889 
Q 2863 2041 2497 2041 
L 1791 2041 
L 1791 819 
L 2497 819 
z
M 3616 2497 
Q 4003 2384 4215 2081 
Q 4428 1778 4428 1338 
Q 4428 663 3972 331 
Q 3516 0 2584 0 
L 588 0 
L 588 4666 
L 2394 4666 
Q 3366 4666 3802 4372 
Q 4238 4078 4238 3431 
Q 4238 3091 4078 2852 
Q 3919 2613 3616 2497 
z
" transform="scale(0.015625)"/>
      <path id="DejaVuSans-Bold-53" d="M 3834 4519 
L 3834 3531 
Q 3450 3703 3084 3790 
Q 2719 3878 2394 3878 
Q 1963 3878 1756 3759 
Q 1550 3641 1550 3391 
Q 1550 3203 1689 3098 
Q 1828 2994 2194 2919 
L 2706 2816 
Q 3484 2659 3812 2340 
Q 4141 2022 4141 1434 
Q 4141 663 3683 286 
Q 3225 -91 2284 -91 
Q 1841 -91 1394 -6 
Q 947 78 500 244 
L 500 1259 
Q 947 1022 1364 901 
Q 1781 781 2169 781 
Q 2563 781 2772 912 
Q 2981 1044 2981 1288 
Q 2981 1506 2839 1625 
Q 2697 1744 2272 1838 
L 1806 1941 
Q 1106 2091 782 2419 
Q 459 2747 459 3303 
Q 459 4000 909 4375 
Q 1359 4750 2203 4750 
Q 2588 4750 2994 4692 
Q 3400 4634 3834 4519 
z
" transform="scale(0.015625)"/>
      <path id="DejaVuSans-Bold-2d" d="M 347 2297 
L 2309 2297 
L 2309 1388 
L 347 1388 
L 347 2297 
z
" transform="scale(0.015625)"/>
      <path id="DejaVuSans-Bold-64" d="M 2919 2988 
L 2919 4863 
L 4044 4863 
L 4044 0 
L 2919 0 
L 2919 506 
Q 2688 197 2409 53 
Q 2131 -91 1766 -91 
Q 1119 -91 703 423 
Q 288 938 288 1747 
Q 288 2556 703 3070 
Q 1119 3584 1766 3584 
Q 2128 3584 2408 3439 
Q 2688 3294 2919 2988 
z
M 2181 722 
Q 2541 722 2730 984 
Q 2919 1247 2919 1747 
Q 2919 2247 2730 2509 
Q 2541 2772 2181 2772 
Q 1825 2772 1636 2509 
Q 1447 2247 1447 1747 
Q 1447 1247 1636 984 
Q 1825 722 2181 722 
z
" transform="scale(0.015625)"/>
      <path id="DejaVuSans-Bold-4c" d="M 588 4666 
L 1791 4666 
L 1791 909 
L 3903 909 
L 3903 0 
L 588 0 
L 588 4666 
z
" transform="scale(0.015625)"/>
     </defs>
     <use xlink:href="#DejaVuSans-Bold-28"/>
     <use xlink:href="#DejaVuSans-Bold-42" transform="translate(45.703125 0)"/>
     <use xlink:href="#DejaVuSans-Bold-29" transform="translate(121.923828 0)"/>
     <use xlink:href="#DejaVuSans-Bold-20" transform="translate(167.626953 0)"/>
     <use xlink:href="#DejaVuSans-Bold-53" transform="translate(202.441406 0)"/>
     <use xlink:href="#DejaVuSans-Bold-68" transform="translate(274.462891 0)"/>
     <use xlink:href="#DejaVuSans-Bold-6f" transform="translate(345.654297 0)"/>
     <use xlink:href="#DejaVuSans-Bold-72" transform="translate(414.355469 0)"/>
     <use xlink:href="#DejaVuSans-Bold-74" transform="translate(463.671875 0)"/>
     <use xlink:href="#DejaVuSans-Bold-2d" transform="translate(511.474609 0)"/>
     <use xlink:href="#DejaVuSans-Bold-52" transform="translate(552.978516 0)"/>
     <use xlink:href="#DejaVuSans-Bold-65" transform="translate(629.980469 0)"/>
     <use xlink:href="#DejaVuSans-Bold-61" transform="translate(697.802734 0)"/>
     <use xlink:href="#DejaVuSans-Bold-64" transform="translate(765.283203 0)"/>
     <use xlink:href="#DejaVuSans-Bold-20" transform="translate(836.865234 0)"/>
     <use xlink:href="#DejaVuSans-Bold-76" transform="translate(871.679688 0)"/>
     <use xlink:href="#DejaVuSans-Bold-73" transform="translate(936.865234 0)"/>
     <use xlink:href="#DejaVuSans-Bold-20" transform="translate(996.386719 0)"/>
     <use xlink:href="#DejaVuSans-Bold-4c" transform="translate(1031.201172 0)"/>
     <use xlink:href="#DejaVuSans-Bold-6f" transform="translate(1094.921875 0)"/>
     <use xlink:href="#DejaVuSans-Bold-6e" transform="translate(1163.623047 0)"/>
     <use xlink:href="#DejaVuSans-Bold-67" transform="translate(1234.814453 0)"/>
     <use xlink:href="#DejaVuSans-Bold-2d" transform="translate(1306.396484 0)"/>
     <use xlink:href="#DejaVuSans-Bold-52" transform="translate(1347.900391 0)"/>
     <use xlink:href="#DejaVuSans-Bold-65" transform="translate(1424.902344 0)"/>
     <use xlink:href="#DejaVuSans-Bold-61" transform="translate(1492.724609 0)"/>
     <use xlink:href="#DejaVuSans-Bold-64" transform="translate(1560.205078 0)"/>
     <use xlink:href="#DejaVuSans-Bold-20" transform="translate(1631.787109 0)"/>
     <use xlink:href="#DejaVuSans-Bold-52" transform="translate(1666.601562 0)"/>
     <use xlink:href="#DejaVuSans-Bold-65" transform="translate(1743.603516 0)"/>
     <use xlink:href="#DejaVuSans-Bold-73" transform="translate(1811.425781 0)"/>
     <use xlink:href="#DejaVuSans-Bold-6f" transform="translate(1870.947266 0)"/>
     <use xlink:href="#DejaVuSans-Bold-6c" transform="translate(1939.648438 0)"/>
     <use xlink:href="#DejaVuSans-Bold-75" transform="translate(1973.925781 0)"/>
     <use xlink:href="#DejaVuSans-Bold-74" transform="translate(2045.117188 0)"/>
     <use xlink:href="#DejaVuSans-Bold-69" transform="translate(2092.919922 0)"/>
     <use xlink:href="#DejaVuSans-Bold-6f" transform="translate(2127.197266 0)"/>
     <use xlink:href="#DejaVuSans-Bold-6e" transform="translate(2195.898438 0)"/>
    </g>
   </g>
  </g>
  <g id="axes_3">
   <g id="patch_34">
    <path d="M 442.733333 417.998125 
L 624.6 417.998125 
L 624.6 285.885785 
L 442.733333 285.885785 
z
" style="fill: #ffffff"/>
   </g>
   <g id="patch_35">
    <path d="M 442.733333 411.993019 
L 597.32 411.993019 
L 597.32 391.975997 
L 442.733333 391.975997 
z
" clip-path="url(#paf13a79791)" style="fill: #2ca02c; stroke: #333333; stroke-width: 0.8; stroke-linejoin: miter"/>
   </g>
   <g id="patch_36">
    <path d="M 442.733333 386.971742 
L 451.826667 386.971742 
L 451.826667 366.954721 
L 442.733333 366.954721 
z
" clip-path="url(#paf13a79791)" style="fill: #ffbb78; stroke: #333333; stroke-width: 0.8; stroke-linejoin: miter"/>
   </g>
   <g id="patch_37">
    <path d="M 442.733333 361.950465 
L 450.008 361.950465 
L 450.008 341.933444 
L 442.733333 341.933444 
z
" clip-path="url(#paf13a79791)" style="fill: #d0d0d0; stroke: #333333; stroke-width: 0.8; stroke-linejoin: miter"/>
   </g>
   <g id="patch_38">
    <path d="M 442.733333 336.929189 
L 448.189333 336.929189 
L 448.189333 316.912168 
L 442.733333 316.912168 
z
" clip-path="url(#paf13a79791)" style="fill: #ff7f0e; stroke: #333333; stroke-width: 0.8; stroke-linejoin: miter"/>
   </g>
   <g id="patch_39">
    <path d="M 442.733333 311.907912 
L 448.189333 311.907912 
L 448.189333 291.890891 
L 442.733333 291.890891 
z
" clip-path="url(#paf13a79791)" style="fill: #7f7f7f; stroke: #333333; stroke-width: 0.8; stroke-linejoin: miter"/>
   </g>
   <g id="matplotlib.axis_1">
    <g id="xtick_1">
     <g id="line2d_1">
      <defs>
       <path id="mc3e0491469" d="M 0 0 
L 0 3.5 
" style="stroke: #000000; stroke-width: 0.8"/>
      </defs>
      <g>
       <use xlink:href="#mc3e0491469" x="442.733333" y="417.998125" style="stroke: #000000; stroke-width: 0.8"/>
      </g>
     </g>
     <g id="text_24">
      <!-- 0 -->
      <g transform="translate(439.552083 432.596562) scale(0.1 -0.1)">
       <defs>
        <path id="DejaVuSans-30" d="M 2034 4250 
Q 1547 4250 1301 3770 
Q 1056 3291 1056 2328 
Q 1056 1369 1301 889 
Q 1547 409 2034 409 
Q 2525 409 2770 889 
Q 3016 1369 3016 2328 
Q 3016 3291 2770 3770 
Q 2525 4250 2034 4250 
z
M 2034 4750 
Q 2819 4750 3233 4129 
Q 3647 3509 3647 2328 
Q 3647 1150 3233 529 
Q 2819 -91 2034 -91 
Q 1250 -91 836 529 
Q 422 1150 422 2328 
Q 422 3509 836 4129 
Q 1250 4750 2034 4750 
z
" transform="scale(0.015625)"/>
       </defs>
       <use xlink:href="#DejaVuSans-30"/>
      </g>
     </g>
    </g>
    <g id="xtick_2">
     <g id="line2d_2">
      <g>
       <use xlink:href="#mc3e0491469" x="479.106667" y="417.998125" style="stroke: #000000; stroke-width: 0.8"/>
      </g>
     </g>
     <g id="text_25">
      <!-- 20 -->
      <g transform="translate(472.744167 432.596562) scale(0.1 -0.1)">
       <use xlink:href="#DejaVuSans-32"/>
       <use xlink:href="#DejaVuSans-30" transform="translate(63.623047 0)"/>
      </g>
     </g>
    </g>
    <g id="xtick_3">
     <g id="line2d_3">
      <g>
       <use xlink:href="#mc3e0491469" x="515.48" y="417.998125" style="stroke: #000000; stroke-width: 0.8"/>
      </g>
     </g>
     <g id="text_26">
      <!-- 40 -->
      <g transform="translate(509.1175 432.596562) scale(0.1 -0.1)">
       <defs>
        <path id="DejaVuSans-34" d="M 2419 4116 
L 825 1625 
L 2419 1625 
L 2419 4116 
z
M 2253 4666 
L 3047 4666 
L 3047 1625 
L 3713 1625 
L 3713 1100 
L 3047 1100 
L 3047 0 
L 2419 0 
L 2419 1100 
L 313 1100 
L 313 1709 
L 2253 4666 
z
" transform="scale(0.015625)"/>
       </defs>
       <use xlink:href="#DejaVuSans-34"/>
       <use xlink:href="#DejaVuSans-30" transform="translate(63.623047 0)"/>
      </g>
     </g>
    </g>
    <g id="xtick_4">
     <g id="line2d_4">
      <g>
       <use xlink:href="#mc3e0491469" x="551.853333" y="417.998125" style="stroke: #000000; stroke-width: 0.8"/>
      </g>
     </g>
     <g id="text_27">
      <!-- 60 -->
      <g transform="translate(545.490833 432.596562) scale(0.1 -0.1)">
       <use xlink:href="#DejaVuSans-36"/>
       <use xlink:href="#DejaVuSans-30" transform="translate(63.623047 0)"/>
      </g>
     </g>
    </g>
    <g id="xtick_5">
     <g id="line2d_5">
      <g>
       <use xlink:href="#mc3e0491469" x="588.226667" y="417.998125" style="stroke: #000000; stroke-width: 0.8"/>
      </g>
     </g>
     <g id="text_28">
      <!-- 80 -->
      <g transform="translate(581.864167 432.596562) scale(0.1 -0.1)">
       <defs>
        <path id="DejaVuSans-38" d="M 2034 2216 
Q 1584 2216 1326 1975 
Q 1069 1734 1069 1313 
Q 1069 891 1326 650 
Q 1584 409 2034 409 
Q 2484 409 2743 651 
Q 3003 894 3003 1313 
Q 3003 1734 2745 1975 
Q 2488 2216 2034 2216 
z
M 1403 2484 
Q 997 2584 770 2862 
Q 544 3141 544 3541 
Q 544 4100 942 4425 
Q 1341 4750 2034 4750 
Q 2731 4750 3128 4425 
Q 3525 4100 3525 3541 
Q 3525 3141 3298 2862 
Q 3072 2584 2669 2484 
Q 3125 2378 3379 2068 
Q 3634 1759 3634 1313 
Q 3634 634 3220 271 
Q 2806 -91 2034 -91 
Q 1263 -91 848 271 
Q 434 634 434 1313 
Q 434 1759 690 2068 
Q 947 2378 1403 2484 
z
M 1172 3481 
Q 1172 3119 1398 2916 
Q 1625 2713 2034 2713 
Q 2441 2713 2670 2916 
Q 2900 3119 2900 3481 
Q 2900 3844 2670 4047 
Q 2441 4250 2034 4250 
Q 1625 4250 1398 4047 
Q 1172 3844 1172 3481 
z
" transform="scale(0.015625)"/>
       </defs>
       <use xlink:href="#DejaVuSans-38"/>
       <use xlink:href="#DejaVuSans-30" transform="translate(63.623047 0)"/>
      </g>
     </g>
    </g>
    <g id="xtick_6">
     <g id="line2d_6">
      <g>
       <use xlink:href="#mc3e0491469" x="624.6" y="417.998125" style="stroke: #000000; stroke-width: 0.8"/>
      </g>
     </g>
     <g id="text_29">
      <!-- 100 -->
      <g transform="translate(615.05625 432.596562) scale(0.1 -0.1)">
       <use xlink:href="#DejaVuSans-31"/>
       <use xlink:href="#DejaVuSans-30" transform="translate(63.623047 0)"/>
       <use xlink:href="#DejaVuSans-30" transform="translate(127.246094 0)"/>
      </g>
     </g>
    </g>
    <g id="text_30">
     <!-- % of Genome -->
     <g transform="translate(499.792448 446.274687) scale(0.1 -0.1)">
      <defs>
       <path id="DejaVuSans-25" d="M 4653 2053 
Q 4381 2053 4226 1822 
Q 4072 1591 4072 1178 
Q 4072 772 4226 539 
Q 4381 306 4653 306 
Q 4919 306 5073 539 
Q 5228 772 5228 1178 
Q 5228 1588 5073 1820 
Q 4919 2053 4653 2053 
z
M 4653 2450 
Q 5147 2450 5437 2106 
Q 5728 1763 5728 1178 
Q 5728 594 5436 251 
Q 5144 -91 4653 -91 
Q 4153 -91 3862 251 
Q 3572 594 3572 1178 
Q 3572 1766 3864 2108 
Q 4156 2450 4653 2450 
z
M 1428 4353 
Q 1159 4353 1004 4120 
Q 850 3888 850 3481 
Q 850 3069 1003 2837 
Q 1156 2606 1428 2606 
Q 1700 2606 1854 2837 
Q 2009 3069 2009 3481 
Q 2009 3884 1853 4118 
Q 1697 4353 1428 4353 
z
M 4250 4750 
L 4750 4750 
L 1831 -91 
L 1331 -91 
L 4250 4750 
z
M 1428 4750 
Q 1922 4750 2215 4408 
Q 2509 4066 2509 3481 
Q 2509 2891 2217 2550 
Q 1925 2209 1428 2209 
Q 931 2209 642 2551 
Q 353 2894 353 3481 
Q 353 4063 643 4406 
Q 934 4750 1428 4750 
z
" transform="scale(0.015625)"/>
       <path id="DejaVuSans-66" d="M 2375 4863 
L 2375 4384 
L 1825 4384 
Q 1516 4384 1395 4259 
Q 1275 4134 1275 3809 
L 1275 3500 
L 2222 3500 
L 2222 3053 
L 1275 3053 
L 1275 0 
L 697 0 
L 697 3053 
L 147 3053 
L 147 3500 
L 697 3500 
L 697 3744 
Q 697 4328 969 4595 
Q 1241 4863 1831 4863 
L 2375 4863 
z
" transform="scale(0.015625)"/>
       <path id="DejaVuSans-47" d="M 3809 666 
L 3809 1919 
L 2778 1919 
L 2778 2438 
L 4434 2438 
L 4434 434 
Q 4069 175 3628 42 
Q 3188 -91 2688 -91 
Q 1594 -91 976 548 
Q 359 1188 359 2328 
Q 359 3472 976 4111 
Q 1594 4750 2688 4750 
Q 3144 4750 3555 4637 
Q 3966 4525 4313 4306 
L 4313 3634 
Q 3963 3931 3569 4081 
Q 3175 4231 2741 4231 
Q 1884 4231 1454 3753 
Q 1025 3275 1025 2328 
Q 1025 1384 1454 906 
Q 1884 428 2741 428 
Q 3075 428 3337 486 
Q 3600 544 3809 666 
z
" transform="scale(0.015625)"/>
      </defs>
      <use xlink:href="#DejaVuSans-25"/>
      <use xlink:href="#DejaVuSans-20" transform="translate(95.019531 0)"/>
      <use xlink:href="#DejaVuSans-6f" transform="translate(126.806641 0)"/>
      <use xlink:href="#DejaVuSans-66" transform="translate(187.988281 0)"/>
      <use xlink:href="#DejaVuSans-20" transform="translate(223.193359 0)"/>
      <use xlink:href="#DejaVuSans-47" transform="translate(254.980469 0)"/>
      <use xlink:href="#DejaVuSans-65" transform="translate(332.470703 0)"/>
      <use xlink:href="#DejaVuSans-6e" transform="translate(393.994141 0)"/>
      <use xlink:href="#DejaVuSans-6f" transform="translate(457.373047 0)"/>
      <use xlink:href="#DejaVuSans-6d" transform="translate(518.554688 0)"/>
      <use xlink:href="#DejaVuSans-65" transform="translate(615.966797 0)"/>
     </g>
    </g>
   </g>
   <g id="matplotlib.axis_2">
    <g id="ytick_1">
     <g id="line2d_7">
      <defs>
       <path id="mc7909bc397" d="M 0 0 
L -3.5 0 
" style="stroke: #000000; stroke-width: 0.8"/>
      </defs>
      <g>
       <use xlink:href="#mc7909bc397" x="442.733333" y="401.984508" style="stroke: #000000; stroke-width: 0.8"/>
      </g>
     </g>
     <g id="text_31">
      <!-- High -->
      <g transform="translate(415.047396 401.048649) scale(0.09 -0.09)">
       <use xlink:href="#DejaVuSans-48"/>
       <use xlink:href="#DejaVuSans-69" transform="translate(75.195312 0)"/>
       <use xlink:href="#DejaVuSans-67" transform="translate(102.978516 0)"/>
       <use xlink:href="#DejaVuSans-68" transform="translate(166.455078 0)"/>
      </g>
      <!-- confidence -->
      <g transform="translate(386.463958 411.12668) scale(0.09 -0.09)">
       <use xlink:href="#DejaVuSans-63"/>
       <use xlink:href="#DejaVuSans-6f" transform="translate(54.980469 0)"/>
       <use xlink:href="#DejaVuSans-6e" transform="translate(116.162109 0)"/>
       <use xlink:href="#DejaVuSans-66" transform="translate(179.541016 0)"/>
       <use xlink:href="#DejaVuSans-69" transform="translate(214.746094 0)"/>
       <use xlink:href="#DejaVuSans-64" transform="translate(242.529297 0)"/>
       <use xlink:href="#DejaVuSans-65" transform="translate(306.005859 0)"/>
       <use xlink:href="#DejaVuSans-6e" transform="translate(367.529297 0)"/>
       <use xlink:href="#DejaVuSans-63" transform="translate(430.908203 0)"/>
       <use xlink:href="#DejaVuSans-65" transform="translate(485.888672 0)"/>
      </g>
     </g>
    </g>
    <g id="ytick_2">
     <g id="line2d_8">
      <g>
       <use xlink:href="#mc7909bc397" x="442.733333" y="376.963231" style="stroke: #000000; stroke-width: 0.8"/>
      </g>
     </g>
     <g id="text_32">
      <!-- Seg. dups -->
      <g transform="translate(391.228333 380.382528) scale(0.09 -0.09)">
       <defs>
        <path id="DejaVuSans-2e" d="M 684 794 
L 1344 794 
L 1344 0 
L 684 0 
L 684 794 
z
" transform="scale(0.015625)"/>
       </defs>
       <use xlink:href="#DejaVuSans-53"/>
       <use xlink:href="#DejaVuSans-65" transform="translate(63.476562 0)"/>
       <use xlink:href="#DejaVuSans-67" transform="translate(125 0)"/>
       <use xlink:href="#DejaVuSans-2e" transform="translate(188.476562 0)"/>
       <use xlink:href="#DejaVuSans-20" transform="translate(220.263672 0)"/>
       <use xlink:href="#DejaVuSans-64" transform="translate(252.050781 0)"/>
       <use xlink:href="#DejaVuSans-75" transform="translate(315.527344 0)"/>
       <use xlink:href="#DejaVuSans-70" transform="translate(378.90625 0)"/>
       <use xlink:href="#DejaVuSans-73" transform="translate(442.382812 0)"/>
      </g>
     </g>
    </g>
    <g id="ytick_3">
     <g id="line2d_9">
      <g>
       <use xlink:href="#mc7909bc397" x="442.733333" y="351.941955" style="stroke: #000000; stroke-width: 0.8"/>
      </g>
     </g>
     <g id="text_33">
      <!-- Low -->
      <g transform="translate(418.008958 351.006095) scale(0.09 -0.09)">
       <defs>
        <path id="DejaVuSans-77" d="M 269 3500 
L 844 3500 
L 1563 769 
L 2278 3500 
L 2956 3500 
L 3675 769 
L 4391 3500 
L 4966 3500 
L 4050 0 
L 3372 0 
L 2619 2869 
L 1863 0 
L 1184 0 
L 269 3500 
z
" transform="scale(0.015625)"/>
       </defs>
       <use xlink:href="#DejaVuSans-4c"/>
       <use xlink:href="#DejaVuSans-6f" transform="translate(53.962891 0)"/>
       <use xlink:href="#DejaVuSans-77" transform="translate(115.144531 0)"/>
      </g>
      <!-- complexity -->
      <g transform="translate(386.23474 361.084127) scale(0.09 -0.09)">
       <defs>
        <path id="DejaVuSans-79" d="M 2059 -325 
Q 1816 -950 1584 -1140 
Q 1353 -1331 966 -1331 
L 506 -1331 
L 506 -850 
L 844 -850 
Q 1081 -850 1212 -737 
Q 1344 -625 1503 -206 
L 1606 56 
L 191 3500 
L 800 3500 
L 1894 763 
L 2988 3500 
L 3597 3500 
L 2059 -325 
z
" transform="scale(0.015625)"/>
       </defs>
       <use xlink:href="#DejaVuSans-63"/>
       <use xlink:href="#DejaVuSans-6f" transform="translate(54.980469 0)"/>
       <use xlink:href="#DejaVuSans-6d" transform="translate(116.162109 0)"/>
       <use xlink:href="#DejaVuSans-70" transform="translate(213.574219 0)"/>
       <use xlink:href="#DejaVuSans-6c" transform="translate(277.050781 0)"/>
       <use xlink:href="#DejaVuSans-65" transform="translate(304.833984 0)"/>
       <use xlink:href="#DejaVuSans-78" transform="translate(364.607422 0)"/>
       <use xlink:href="#DejaVuSans-69" transform="translate(423.787109 0)"/>
       <use xlink:href="#DejaVuSans-74" transform="translate(451.570312 0)"/>
       <use xlink:href="#DejaVuSans-79" transform="translate(490.779297 0)"/>
      </g>
     </g>
    </g>
    <g id="ytick_4">
     <g id="line2d_10">
      <g>
       <use xlink:href="#mc7909bc397" x="442.733333" y="326.920678" style="stroke: #000000; stroke-width: 0.8"/>
      </g>
     </g>
     <g id="text_34">
      <!-- HLA/KIR -->
      <g transform="translate(399.748802 330.339975) scale(0.09 -0.09)">
       <defs>
        <path id="DejaVuSans-4b" d="M 628 4666 
L 1259 4666 
L 1259 2694 
L 3353 4666 
L 4166 4666 
L 1850 2491 
L 4331 0 
L 3500 0 
L 1259 2247 
L 1259 0 
L 628 0 
L 628 4666 
z
" transform="scale(0.015625)"/>
       </defs>
       <use xlink:href="#DejaVuSans-48"/>
       <use xlink:href="#DejaVuSans-4c" transform="translate(75.195312 0)"/>
       <use xlink:href="#DejaVuSans-41" transform="translate(133.158203 0)"/>
       <use xlink:href="#DejaVuSans-2f" transform="translate(201.566406 0)"/>
       <use xlink:href="#DejaVuSans-4b" transform="translate(235.257812 0)"/>
       <use xlink:href="#DejaVuSans-49" transform="translate(300.833984 0)"/>
       <use xlink:href="#DejaVuSans-52" transform="translate(330.326172 0)"/>
      </g>
     </g>
    </g>
    <g id="ytick_5">
     <g id="line2d_11">
      <g>
       <use xlink:href="#mc7909bc397" x="442.733333" y="301.899402" style="stroke: #000000; stroke-width: 0.8"/>
      </g>
     </g>
     <g id="text_35">
      <!-- Centro- -->
      <g transform="translate(402.258958 300.963542) scale(0.09 -0.09)">
       <defs>
        <path id="DejaVuSans-2d" d="M 313 2009 
L 1997 2009 
L 1997 1497 
L 313 1497 
L 313 2009 
z
" transform="scale(0.015625)"/>
       </defs>
       <use xlink:href="#DejaVuSans-43"/>
       <use xlink:href="#DejaVuSans-65" transform="translate(69.824219 0)"/>
       <use xlink:href="#DejaVuSans-6e" transform="translate(131.347656 0)"/>
       <use xlink:href="#DejaVuSans-74" transform="translate(194.726562 0)"/>
       <use xlink:href="#DejaVuSans-72" transform="translate(233.935547 0)"/>
       <use xlink:href="#DejaVuSans-6f" transform="translate(272.798828 0)"/>
       <use xlink:href="#DejaVuSans-2d" transform="translate(335.855469 0)"/>
      </g>
      <!-- meres -->
      <g transform="translate(407.705365 311.041573) scale(0.09 -0.09)">
       <use xlink:href="#DejaVuSans-6d"/>
       <use xlink:href="#DejaVuSans-65" transform="translate(97.412109 0)"/>
       <use xlink:href="#DejaVuSans-72" transform="translate(158.935547 0)"/>
       <use xlink:href="#DejaVuSans-65" transform="translate(197.798828 0)"/>
       <use xlink:href="#DejaVuSans-73" transform="translate(259.322266 0)"/>
      </g>
     </g>
    </g>
   </g>
   <g id="patch_40">
    <path d="M 442.733333 417.998125 
L 442.733333 285.885785 
" style="fill: none; stroke: #000000; stroke-width: 0.8; stroke-linejoin: miter; stroke-linecap: square"/>
   </g>
   <g id="patch_41">
    <path d="M 442.733333 417.998125 
L 624.6 417.998125 
" style="fill: none; stroke: #000000; stroke-width: 0.8; stroke-linejoin: miter; stroke-linecap: square"/>
   </g>
   <g id="text_36">
    <!-- 85% -->
    <g transform="translate(600.957333 404.467945) scale(0.09 -0.09)">
     <defs>
      <path id="DejaVuSans-35" d="M 691 4666 
L 3169 4666 
L 3169 4134 
L 1269 4134 
L 1269 2991 
Q 1406 3038 1543 3061 
Q 1681 3084 1819 3084 
Q 2600 3084 3056 2656 
Q 3513 2228 3513 1497 
Q 3513 744 3044 326 
Q 2575 -91 1722 -91 
Q 1428 -91 1123 -41 
Q 819 9 494 109 
L 494 744 
Q 775 591 1075 516 
Q 1375 441 1709 441 
Q 2250 441 2565 725 
Q 2881 1009 2881 1497 
Q 2881 1984 2565 2268 
Q 2250 2553 1709 2553 
Q 1456 2553 1204 2497 
Q 953 2441 691 2322 
L 691 4666 
z
" transform="scale(0.015625)"/>
     </defs>
     <use xlink:href="#DejaVuSans-38"/>
     <use xlink:href="#DejaVuSans-35" transform="translate(63.623047 0)"/>
     <use xlink:href="#DejaVuSans-25" transform="translate(127.246094 0)"/>
    </g>
   </g>
   <g id="text_37">
    <!-- 5% -->
    <g transform="translate(455.464 379.446669) scale(0.09 -0.09)">
     <use xlink:href="#DejaVuSans-35"/>
     <use xlink:href="#DejaVuSans-25" transform="translate(63.623047 0)"/>
    </g>
   </g>
   <g id="text_38">
    <!-- 4% -->
    <g transform="translate(453.645333 354.425392) scale(0.09 -0.09)">
     <use xlink:href="#DejaVuSans-34"/>
     <use xlink:href="#DejaVuSans-25" transform="translate(63.623047 0)"/>
    </g>
   </g>
   <g id="text_39">
    <!-- 3% -->
    <g transform="translate(451.826667 329.404116) scale(0.09 -0.09)">
     <defs>
      <path id="DejaVuSans-33" d="M 2597 2516 
Q 3050 2419 3304 2112 
Q 3559 1806 3559 1356 
Q 3559 666 3084 287 
Q 2609 -91 1734 -91 
Q 1441 -91 1130 -33 
Q 819 25 488 141 
L 488 750 
Q 750 597 1062 519 
Q 1375 441 1716 441 
Q 2309 441 2620 675 
Q 2931 909 2931 1356 
Q 2931 1769 2642 2001 
Q 2353 2234 1838 2234 
L 1294 2234 
L 1294 2753 
L 1863 2753 
Q 2328 2753 2575 2939 
Q 2822 3125 2822 3475 
Q 2822 3834 2567 4026 
Q 2313 4219 1838 4219 
Q 1578 4219 1281 4162 
Q 984 4106 628 3988 
L 628 4550 
Q 988 4650 1302 4700 
Q 1616 4750 1894 4750 
Q 2613 4750 3031 4423 
Q 3450 4097 3450 3541 
Q 3450 3153 3228 2886 
Q 3006 2619 2597 2516 
z
" transform="scale(0.015625)"/>
     </defs>
     <use xlink:href="#DejaVuSans-33"/>
     <use xlink:href="#DejaVuSans-25" transform="translate(63.623047 0)"/>
    </g>
   </g>
   <g id="text_40">
    <!-- 3% -->
    <g transform="translate(451.826667 304.382839) scale(0.09 -0.09)">
     <use xlink:href="#DejaVuSans-33"/>
     <use xlink:href="#DejaVuSans-25" transform="translate(63.623047 0)"/>
    </g>
   </g>
   <g id="text_41">
    <!-- (C) Callability by Region -->
    <g transform="translate(442.733333 275.885785) scale(0.12 -0.12)">
     <use xlink:href="#DejaVuSans-Bold-28"/>
     <use xlink:href="#DejaVuSans-Bold-43" transform="translate(45.703125 0)"/>
     <use xlink:href="#DejaVuSans-Bold-29" transform="translate(119.091797 0)"/>
     <use xlink:href="#DejaVuSans-Bold-20" transform="translate(164.794922 0)"/>
     <use xlink:href="#DejaVuSans-Bold-43" transform="translate(199.609375 0)"/>
     <use xlink:href="#DejaVuSans-Bold-61" transform="translate(272.998047 0)"/>
     <use xlink:href="#DejaVuSans-Bold-6c" transform="translate(340.478516 0)"/>
     <use xlink:href="#DejaVuSans-Bold-6c" transform="translate(374.755859 0)"/>
     <use xlink:href="#DejaVuSans-Bold-61" transform="translate(409.033203 0)"/>
     <use xlink:href="#DejaVuSans-Bold-62" transform="translate(476.513672 0)"/>
     <use xlink:href="#DejaVuSans-Bold-69" transform="translate(548.095703 0)"/>
     <use xlink:href="#DejaVuSans-Bold-6c" transform="translate(582.373047 0)"/>
     <use xlink:href="#DejaVuSans-Bold-69" transform="translate(616.650391 0)"/>
     <use xlink:href="#DejaVuSans-Bold-74" transform="translate(650.927734 0)"/>
     <use xlink:href="#DejaVuSans-Bold-79" transform="translate(698.730469 0)"/>
     <use xlink:href="#DejaVuSans-Bold-20" transform="translate(763.916016 0)"/>
     <use xlink:href="#DejaVuSans-Bold-62" transform="translate(798.730469 0)"/>
     <use xlink:href="#DejaVuSans-Bold-79" transform="translate(870.3125 0)"/>
     <use xlink:href="#DejaVuSans-Bold-20" transform="translate(935.498047 0)"/>
     <use xlink:href="#DejaVuSans-Bold-52" transform="translate(970.3125 0)"/>
     <use xlink:href="#DejaVuSans-Bold-65" transform="translate(1047.314453 0)"/>
     <use xlink:href="#DejaVuSans-Bold-67" transform="translate(1115.136719 0)"/>
     <use xlink:href="#DejaVuSans-Bold-69" transform="translate(1186.71875 0)"/>
     <use xlink:href="#DejaVuSans-Bold-6f" transform="translate(1220.996094 0)"/>
     <use xlink:href="#DejaVuSans-Bold-6e" transform="translate(1289.697266 0)"/>
    </g>
   </g>
  </g>
 </g>
 <defs>
  <clipPath id="pcbb95452e9">
   <rect x="10.8" y="29.918125" width="613.8" height="198.168511"/>
  </clipPath>
  <clipPath id="p75f39b06d9">
   <rect x="10.8" y="285.885785" width="363.733333" height="132.11234"/>
  </clipPath>
  <clipPath id="paf13a79791">
   <rect x="442.733333" y="285.885785" width="181.866667" height="132.11234"/>
  </clipPath>
 </defs>
</svg>
