<?xml version="1.0" encoding="UTF-8" standalone="no"?>
<!DOCTYPE svg PUBLIC "-//W3C//DTD SVG 1.1//EN"
 "http://www.w3.org/Graphics/SVG/1.1/DTD/svg11.dtd">
<!-- Generated by graphviz version 2.43.0 (0)
 -->
<!-- Title: reg_vep Pages: 1 -->
<svg width="864pt" height="151pt"
 viewBox="0.00 0.00 864.00 150.62" xmlns="http://www.w3.org/2000/svg" xmlns:xlink="http://www.w3.org/1999/xlink">
<g id="graph0" class="graph" transform="scale(1.37 1.37) rotate(0) translate(4 106)">
<title>reg_vep</title>
<polygon fill="white" stroke="transparent" points="-4,4 -4,-106 627,-106 627,4 -4,4"/>
<!-- var -->
<g id="node1" class="node">
<title>var</title>
<path fill="#aec7e8" stroke="black" stroke-width="1.5" d="M42,-67C42,-67 12,-67 12,-67 6,-67 0,-61 0,-55 0,-55 0,-43 0,-43 0,-37 6,-31 12,-31 12,-31 42,-31 42,-31 48,-31 54,-37 54,-43 54,-43 54,-55 54,-55 54,-61 48,-67 42,-67"/>
<text text-anchor="middle" x="27" y="-51.8" font-family="Arial" font-size="9.00">Variant +</text>
<text text-anchor="middle" x="27" y="-41.8" font-family="Arial" font-size="9.00">Context</text>
</g>
<!-- ref -->
<g id="node2" class="node">
<title>ref</title>
<path fill="#98df8a" stroke="black" stroke-width="1.5" d="M138,-102C138,-102 103,-102 103,-102 97,-102 91,-96 91,-90 91,-90 91,-78 91,-78 91,-72 97,-66 103,-66 103,-66 138,-66 138,-66 144,-66 150,-72 150,-78 150,-78 150,-90 150,-90 150,-96 144,-102 138,-102"/>
<text text-anchor="middle" x="120.5" y="-86.8" font-family="Arial" font-size="9.00">Reference</text>
<text text-anchor="middle" x="120.5" y="-76.8" font-family="Arial" font-size="9.00">Sequence</text>
</g>
<!-- var&#45;&gt;ref -->
<g id="edge1" class="edge">
<title>var&#45;&gt;ref</title>
<path fill="none" stroke="black" d="M54.47,-59.12C62.84,-62.33 72.26,-65.93 81.29,-69.38"/>
<polygon fill="black" stroke="black" points="80.26,-72.74 90.85,-73.04 82.77,-66.2 80.26,-72.74"/>
</g>
<!-- alt -->
<g id="node3" class="node">
<title>alt</title>
<path fill="#ffbb78" stroke="black" stroke-width="1.5" d="M138,-48C138,-48 103,-48 103,-48 97,-48 91,-42 91,-36 91,-36 91,-24 91,-24 91,-18 97,-12 103,-12 103,-12 138,-12 138,-12 144,-12 150,-18 150,-24 150,-24 150,-36 150,-36 150,-42 144,-48 138,-48"/>
<text text-anchor="middle" x="120.5" y="-32.8" font-family="Arial" font-size="9.00">Alternate</text>
<text text-anchor="middle" x="120.5" y="-22.8" font-family="Arial" font-size="9.00">Sequence</text>
</g>
<!-- var&#45;&gt;alt -->
<g id="edge2" class="edge">
<title>var&#45;&gt;alt</title>
<path fill="none" stroke="black" d="M54.47,-43.5C62.75,-41.78 72.06,-39.85 81,-37.99"/>
<polygon fill="black" stroke="black" points="81.78,-41.41 90.85,-35.95 80.35,-34.55 81.78,-41.41"/>
</g>
<!-- model -->
<g id="node4" class="node">
<title>model</title>
<path fill="#9467bd" stroke="black" stroke-width="1.5" d="M234,-55C234,-55 199,-55 199,-55 193,-55 187,-49 187,-43 187,-43 187,-31 187,-31 187,-25 193,-19 199,-19 199,-19 234,-19 234,-19 240,-19 246,-25 246,-31 246,-31 246,-43 246,-43 246,-49 240,-55 234,-55"/>
<text text-anchor="middle" x="216.5" y="-39.8" font-family="Arial" font-size="9.00" fill="white">Enformer /</text>
<text text-anchor="middle" x="216.5" y="-29.8" font-family="Arial" font-size="9.00" fill="white">Borzoi</text>
</g>
<!-- ref&#45;&gt;model -->
<g id="edge3" class="edge">
<title>ref&#45;&gt;model</title>
<path fill="none" stroke="black" d="M150.21,-69.64C158.96,-65.27 168.71,-60.4 177.95,-55.78"/>
<polygon fill="black" stroke="black" points="179.58,-58.87 186.96,-51.27 176.45,-52.61 179.58,-58.87"/>
</g>
<!-- alt&#45;&gt;model -->
<g id="edge4" class="edge">
<title>alt&#45;&gt;model</title>
<path fill="none" stroke="black" d="M150.21,-32.14C158.6,-32.76 167.9,-33.46 176.79,-34.12"/>
<polygon fill="black" stroke="black" points="176.73,-37.62 186.96,-34.87 177.25,-30.64 176.73,-37.62"/>
</g>
<!-- pred_ref -->
<g id="node5" class="node">
<title>pred_ref</title>
<path fill="#c5b0d5" stroke="black" stroke-width="1.5" d="M333,-90C333,-90 295,-90 295,-90 289,-90 283,-84 283,-78 283,-78 283,-66 283,-66 283,-60 289,-54 295,-54 295,-54 333,-54 333,-54 339,-54 345,-60 345,-66 345,-66 345,-78 345,-78 345,-84 339,-90 333,-90"/>
<text text-anchor="middle" x="314" y="-74.8" font-family="Arial" font-size="9.00">Reference</text>
<text text-anchor="middle" x="314" y="-64.8" font-family="Arial" font-size="9.00">Predictions</text>
</g>
<!-- model&#45;&gt;pred_ref -->
<g id="edge5" class="edge">
<title>model&#45;&gt;pred_ref</title>
<path fill="none" stroke="black" d="M246.15,-47.5C254.63,-50.61 264.06,-54.06 273.11,-57.38"/>
<polygon fill="black" stroke="black" points="272.11,-60.74 282.71,-60.9 274.52,-54.17 272.11,-60.74"/>
</g>
<!-- pred_alt -->
<g id="node6" class="node">
<title>pred_alt</title>
<path fill="#c5b0d5" stroke="black" stroke-width="1.5" d="M333,-36C333,-36 295,-36 295,-36 289,-36 283,-30 283,-24 283,-24 283,-12 283,-12 283,-6 289,0 295,0 295,0 333,0 333,0 339,0 345,-6 345,-12 345,-12 345,-24 345,-24 345,-30 339,-36 333,-36"/>
<text text-anchor="middle" x="314" y="-20.8" font-family="Arial" font-size="9.00">Alternate</text>
<text text-anchor="middle" x="314" y="-10.8" font-family="Arial" font-size="9.00">Predictions</text>
</g>
<!-- model&#45;&gt;pred_alt -->
<g id="edge6" class="edge">
<title>model&#45;&gt;pred_alt</title>
<path fill="none" stroke="black" d="M246.15,-31.3C254.54,-29.63 263.86,-27.78 272.82,-25.99"/>
<polygon fill="black" stroke="black" points="273.58,-29.41 282.71,-24.03 272.22,-22.55 273.58,-29.41"/>
</g>
<!-- diff -->
<g id="node7" class="node">
<title>diff</title>
<path fill="#d62728" stroke="black" stroke-width="1.5" d="M435,-55C435,-55 394,-55 394,-55 388,-55 382,-49 382,-43 382,-43 382,-31 382,-31 382,-25 388,-19 394,-19 394,-19 435,-19 435,-19 441,-19 447,-25 447,-31 447,-31 447,-43 447,-43 447,-49 441,-55 435,-55"/>
<text text-anchor="middle" x="414.5" y="-39.8" font-family="Arial" font-size="9.00" fill="white">Δ Prediction</text>
<text text-anchor="middle" x="414.5" y="-29.8" font-family="Arial" font-size="9.00" fill="white">(per track)</text>
</g>
<!-- pred_ref&#45;&gt;diff -->
<g id="edge7" class="edge">
<title>pred_ref&#45;&gt;diff</title>
<path fill="none" stroke="black" d="M345.09,-61.31C353.65,-58.27 363.12,-54.9 372.22,-51.67"/>
<polygon fill="black" stroke="black" points="373.64,-54.88 381.89,-48.23 371.29,-48.28 373.64,-54.88"/>
</g>
<!-- pred_alt&#45;&gt;diff -->
<g id="edge8" class="edge">
<title>pred_alt&#45;&gt;diff</title>
<path fill="none" stroke="black" d="M345.09,-23.8C353.56,-25.44 362.92,-27.24 371.93,-28.98"/>
<polygon fill="black" stroke="black" points="371.41,-32.45 381.89,-30.9 372.73,-25.57 371.41,-32.45"/>
</g>
<!-- score -->
<g id="node8" class="node">
<title>score</title>
<path fill="#2ca02c" stroke="black" stroke-width="1.5" d="M611,-55C611,-55 570,-55 570,-55 564,-55 558,-49 558,-43 558,-43 558,-31 558,-31 558,-25 564,-19 570,-19 570,-19 611,-19 611,-19 617,-19 623,-25 623,-31 623,-31 623,-43 623,-43 623,-49 617,-55 611,-55"/>
<text text-anchor="middle" x="590.5" y="-39.8" font-family="Arial" font-size="9.00" fill="white">Variant</text>
<text text-anchor="middle" x="590.5" y="-29.8" font-family="Arial" font-size="9.00" fill="white">Effect Score</text>
</g>
<!-- diff&#45;&gt;score -->
<g id="edge9" class="edge">
<title>diff&#45;&gt;score</title>
<path fill="none" stroke="black" d="M447.01,-37C475.25,-37 516.89,-37 547.87,-37"/>
<polygon fill="black" stroke="black" points="547.93,-40.5 557.93,-37 547.93,-33.5 547.93,-40.5"/>
<text text-anchor="middle" x="502.5" y="-40.8" font-family="Times,serif" font-size="14.00">Aggregate</text>
</g>
</g>
</svg>
