<?xml version="1.0" encoding="UTF-8" standalone="no"?>
<!DOCTYPE svg PUBLIC "-//W3C//DTD SVG 1.1//EN"
 "http://www.w3.org/Graphics/SVG/1.1/DTD/svg11.dtd">
<!-- Generated by graphviz version 2.43.0 (0)
 -->
<!-- Title: error_sources Pages: 1 -->
<svg width="576pt" height="558pt"
 viewBox="0.00 0.00 576.00 558.09" xmlns="http://www.w3.org/2000/svg" xmlns:xlink="http://www.w3.org/1999/xlink">
<g id="graph0" class="graph" transform="scale(1.02 1.02) rotate(0) translate(14.4 530.9)">
<title>error_sources</title>
<polygon fill="white" stroke="transparent" points="-14.4,14.4 -14.4,-530.9 548.4,-530.9 548.4,14.4 -14.4,14.4"/>
<g id="clust1" class="cluster">
<title>cluster_legend</title>
<path fill="#fafafa" stroke="#cccccc" d="M21,-391C21,-391 256.5,-391 256.5,-391 262.5,-391 268.5,-397 268.5,-403 268.5,-403 268.5,-439 268.5,-439 268.5,-445 262.5,-451 256.5,-451 256.5,-451 21,-451 21,-451 15,-451 9,-445 9,-439 9,-439 9,-403 9,-403 9,-397 15,-391 21,-391"/>
<text text-anchor="middle" x="138.75" y="-439.8" font-family="Arial" font-size="9.00">Consequence</text>
</g>
<!-- root -->
<g id="node1" class="node">
<title>root</title>
<path fill="#9467bd" stroke="#333333" stroke-width="2" d="M116.67,-241.5C116.67,-241.5 8.33,-241.5 8.33,-241.5 4.17,-241.5 0,-237.33 0,-233.17 0,-233.17 0,-224.83 0,-224.83 0,-220.67 4.17,-216.5 8.33,-216.5 8.33,-216.5 116.67,-216.5 116.67,-216.5 120.83,-216.5 125,-220.67 125,-224.83 125,-224.83 125,-233.17 125,-233.17 125,-237.33 120.83,-241.5 116.67,-241.5"/>
<text text-anchor="middle" x="62.5" y="-226.2" font-family="Arial" font-size="11.00" fill="white">Variant Calling Errors</text>
</g>
<!-- seq -->
<g id="node2" class="node">
<title>seq</title>
<path fill="#aec7e8" stroke="#1f77b4" stroke-width="1.2" d="M260.67,-363.5C260.67,-363.5 164.33,-363.5 164.33,-363.5 160.17,-363.5 156,-359.33 156,-355.17 156,-355.17 156,-346.83 156,-346.83 156,-342.67 160.17,-338.5 164.33,-338.5 164.33,-338.5 260.67,-338.5 260.67,-338.5 264.83,-338.5 269,-342.67 269,-346.83 269,-346.83 269,-355.17 269,-355.17 269,-359.33 264.83,-363.5 260.67,-363.5"/>
<text text-anchor="middle" x="212.5" y="-348.5" font-family="Arial" font-size="10.00">Sequencing Artifacts</text>
</g>
<!-- root&#45;&gt;seq -->
<g id="edge1" class="edge">
<title>root&#45;&gt;seq</title>
<path fill="none" stroke="#555555" stroke-width="1.2" d="M78.78,-241.6C105.37,-263.51 160.18,-308.7 190.38,-333.59"/>
<polygon fill="#555555" stroke="#555555" stroke-width="1.2" points="189.12,-335.73 196.08,-338.29 192.24,-331.95 189.12,-335.73"/>
</g>
<!-- align -->
<g id="node3" class="node">
<title>align</title>
<path fill="#ffbb78" stroke="#ff7f0e" stroke-width="1.2" d="M256.67,-241.5C256.67,-241.5 168.33,-241.5 168.33,-241.5 164.17,-241.5 160,-237.33 160,-233.17 160,-233.17 160,-224.83 160,-224.83 160,-220.67 164.17,-216.5 168.33,-216.5 168.33,-216.5 256.67,-216.5 256.67,-216.5 260.83,-216.5 265,-220.67 265,-224.83 265,-224.83 265,-233.17 265,-233.17 265,-237.33 260.83,-241.5 256.67,-241.5"/>
<text text-anchor="middle" x="212.5" y="-226.5" font-family="Arial" font-size="10.00">Alignment Artifacts</text>
</g>
<!-- root&#45;&gt;align -->
<g id="edge2" class="edge">
<title>root&#45;&gt;align</title>
<path fill="none" stroke="#555555" stroke-width="1.2" d="M125.41,-229C134.41,-229 143.65,-229 152.59,-229"/>
<polygon fill="#555555" stroke="#555555" stroke-width="1.2" points="152.68,-231.45 159.68,-229 152.68,-226.55 152.68,-231.45"/>
</g>
<!-- bio -->
<g id="node4" class="node">
<title>bio</title>
<path fill="#98df8a" stroke="#2ca02c" stroke-width="1.2" d="M262.67,-120.5C262.67,-120.5 162.33,-120.5 162.33,-120.5 158.17,-120.5 154,-116.33 154,-112.17 154,-112.17 154,-103.83 154,-103.83 154,-99.67 158.17,-95.5 162.33,-95.5 162.33,-95.5 262.67,-95.5 262.67,-95.5 266.83,-95.5 271,-99.67 271,-103.83 271,-103.83 271,-112.17 271,-112.17 271,-116.33 266.83,-120.5 262.67,-120.5"/>
<text text-anchor="middle" x="212.5" y="-105.5" font-family="Arial" font-size="10.00">Biological Complexity</text>
</g>
<!-- root&#45;&gt;bio -->
<g id="edge3" class="edge">
<title>root&#45;&gt;bio</title>
<path fill="none" stroke="#555555" stroke-width="1.2" d="M88.51,-216.39C105.54,-207.81 125,-198 125,-198 125,-198 169.19,-152.02 194.4,-125.79"/>
<polygon fill="#555555" stroke="#555555" stroke-width="1.2" points="196.39,-127.26 199.47,-120.51 192.86,-123.86 196.39,-127.26"/>
</g>
<!-- instrument -->
<g id="node5" class="node">
<title>instrument</title>
<path fill="#e8e8e8" stroke="#333333" stroke-width="1.2" d="M388.17,-424.5C388.17,-424.5 312.83,-424.5 312.83,-424.5 308.67,-424.5 304.5,-420.33 304.5,-416.17 304.5,-416.17 304.5,-407.83 304.5,-407.83 304.5,-403.67 308.67,-399.5 312.83,-399.5 312.83,-399.5 388.17,-399.5 388.17,-399.5 392.33,-399.5 396.5,-403.67 396.5,-407.83 396.5,-407.83 396.5,-416.17 396.5,-416.17 396.5,-420.33 392.33,-424.5 388.17,-424.5"/>
<text text-anchor="middle" x="350.5" y="-409.8" font-family="Arial" font-size="9.00">Instrument Noise</text>
</g>
<!-- seq&#45;&gt;instrument -->
<g id="edge4" class="edge">
<title>seq&#45;&gt;instrument</title>
<path fill="none" stroke="#555555" stroke-width="1.2" d="M241.68,-363.64C262.92,-373.17 292.17,-386.29 314.85,-396.46"/>
<polygon fill="#555555" stroke="#555555" stroke-width="1.2" points="313.97,-398.75 321.36,-399.38 315.97,-394.28 313.97,-398.75"/>
</g>
<!-- fp_seq -->
<g id="node18" class="node">
<title>fp_seq</title>
<ellipse fill="#d62728" stroke="#333333" stroke-width="1.2" cx="62.5" cy="-171" rx="14.5" ry="9"/>
<text text-anchor="middle" x="62.5" y="-168.8" font-family="Arial" font-size="9.00" fill="white">FP</text>
</g>
<!-- seq&#45;&gt;fp_seq -->
<g id="edge17" class="edge">
<title>seq&#45;&gt;fp_seq</title>
<path fill="none" stroke="#d62728" stroke-width="1.2" stroke-dasharray="5,2" d="M203.5,-338.21C187.71,-312.93 154,-259 154,-259 154,-259 125,-198 125,-198 125,-198 99.7,-186.89 81.55,-178.93"/>
<polygon fill="#d62728" stroke="#d62728" stroke-width="1.2" points="82.17,-176.52 74.78,-175.95 80.2,-181.01 82.17,-176.52"/>
</g>
<!-- mapping -->
<g id="node6" class="node">
<title>mapping</title>
<path fill="#e8e8e8" stroke="#333333" stroke-width="1.2" d="M392.67,-272.5C392.67,-272.5 308.33,-272.5 308.33,-272.5 304.17,-272.5 300,-268.33 300,-264.17 300,-264.17 300,-255.83 300,-255.83 300,-251.67 304.17,-247.5 308.33,-247.5 308.33,-247.5 392.67,-247.5 392.67,-247.5 396.83,-247.5 401,-251.67 401,-255.83 401,-255.83 401,-264.17 401,-264.17 401,-268.33 396.83,-272.5 392.67,-272.5"/>
<text text-anchor="middle" x="350.5" y="-257.8" font-family="Arial" font-size="9.00">Mapping Ambiguity</text>
</g>
<!-- align&#45;&gt;mapping -->
<g id="edge5" class="edge">
<title>align&#45;&gt;mapping</title>
<path fill="none" stroke="#555555" stroke-width="1.2" d="M265.3,-240.81C274.28,-242.85 283.65,-244.99 292.74,-247.06"/>
<polygon fill="#555555" stroke="#555555" stroke-width="1.2" points="292.27,-249.47 299.64,-248.63 293.35,-244.69 292.27,-249.47"/>
</g>
<!-- refbias -->
<g id="node7" class="node">
<title>refbias</title>
<path fill="#e8e8e8" stroke="#333333" stroke-width="1.2" d="M385.17,-211.5C385.17,-211.5 315.83,-211.5 315.83,-211.5 311.67,-211.5 307.5,-207.33 307.5,-203.17 307.5,-203.17 307.5,-194.83 307.5,-194.83 307.5,-190.67 311.67,-186.5 315.83,-186.5 315.83,-186.5 385.17,-186.5 385.17,-186.5 389.33,-186.5 393.5,-190.67 393.5,-194.83 393.5,-194.83 393.5,-203.17 393.5,-203.17 393.5,-207.33 389.33,-211.5 385.17,-211.5"/>
<text text-anchor="middle" x="350.5" y="-196.8" font-family="Arial" font-size="9.00">Reference Bias</text>
</g>
<!-- align&#45;&gt;refbias -->
<g id="edge6" class="edge">
<title>align&#45;&gt;refbias</title>
<path fill="none" stroke="#555555" stroke-width="1.2" d="M265.3,-217.57C276.74,-215.05 288.83,-212.38 300.17,-209.88"/>
<polygon fill="#555555" stroke="#555555" stroke-width="1.2" points="300.81,-212.25 307.12,-208.35 299.75,-207.47 300.81,-212.25"/>
</g>
<!-- fp_align -->
<g id="node19" class="node">
<title>fp_align</title>
<ellipse fill="#d62728" stroke="#333333" stroke-width="1.2" cx="62.5" cy="-117" rx="14.5" ry="9"/>
<text text-anchor="middle" x="62.5" y="-114.8" font-family="Arial" font-size="9.00" fill="white">FP</text>
</g>
<!-- align&#45;&gt;fp_align -->
<g id="edge18" class="edge">
<title>align&#45;&gt;fp_align</title>
<path fill="none" stroke="#d62728" stroke-width="1.2" stroke-dasharray="5,2" d="M198.74,-216.46C174.68,-192.81 125,-144 125,-144 125,-144 99.7,-132.89 81.55,-124.93"/>
<polygon fill="#d62728" stroke="#d62728" stroke-width="1.2" points="82.17,-122.52 74.78,-121.95 80.2,-127.01 82.17,-122.52"/>
</g>
<!-- fn_align -->
<g id="node20" class="node">
<title>fn_align</title>
<ellipse fill="#7f7f7f" stroke="#333333" stroke-width="1.2" cx="62.5" cy="-63" rx="14.5" ry="9"/>
<text text-anchor="middle" x="62.5" y="-60.8" font-family="Arial" font-size="9.00" fill="white">FN</text>
</g>
<!-- align&#45;&gt;fn_align -->
<g id="edge19" class="edge">
<title>align&#45;&gt;fn_align</title>
<path fill="none" stroke="#7f7f7f" stroke-width="1.2" stroke-dasharray="5,2" d="M203.5,-216.35C187.71,-191.34 154,-138 154,-138 154,-138 125,-90 125,-90 125,-90 99.7,-78.89 81.55,-70.93"/>
<polygon fill="#7f7f7f" stroke="#7f7f7f" stroke-width="1.2" points="82.17,-68.52 74.78,-67.95 80.2,-73.01 82.17,-68.52"/>
</g>
<!-- lowsig -->
<g id="node8" class="node">
<title>lowsig</title>
<path fill="#e8e8e8" stroke="#333333" stroke-width="1.2" d="M392.67,-120.5C392.67,-120.5 308.33,-120.5 308.33,-120.5 304.17,-120.5 300,-116.33 300,-112.17 300,-112.17 300,-103.83 300,-103.83 300,-99.67 304.17,-95.5 308.33,-95.5 308.33,-95.5 392.67,-95.5 392.67,-95.5 396.83,-95.5 401,-99.67 401,-103.83 401,-103.83 401,-112.17 401,-112.17 401,-116.33 396.83,-120.5 392.67,-120.5"/>
<text text-anchor="middle" x="350.5" y="-105.8" font-family="Arial" font-size="9.00">Low Allele Fraction</text>
</g>
<!-- bio&#45;&gt;lowsig -->
<g id="edge7" class="edge">
<title>bio&#45;&gt;lowsig</title>
<path fill="none" stroke="#555555" stroke-width="1.2" d="M271.18,-108C278.34,-108 285.67,-108 292.82,-108"/>
<polygon fill="#555555" stroke="#555555" stroke-width="1.2" points="292.9,-110.45 299.9,-108 292.9,-105.55 292.9,-110.45"/>
</g>
<!-- fn_bio -->
<g id="node21" class="node">
<title>fn_bio</title>
<ellipse fill="#7f7f7f" stroke="#333333" stroke-width="1.2" cx="62.5" cy="-9" rx="14.5" ry="9"/>
<text text-anchor="middle" x="62.5" y="-6.8" font-family="Arial" font-size="9.00" fill="white">FN</text>
</g>
<!-- bio&#45;&gt;fn_bio -->
<g id="edge20" class="edge">
<title>bio&#45;&gt;fn_bio</title>
<path fill="none" stroke="#7f7f7f" stroke-width="1.2" stroke-dasharray="5,2" d="M196.43,-95.46C171.65,-74.83 125,-36 125,-36 125,-36 99.7,-24.89 81.55,-16.93"/>
<polygon fill="#7f7f7f" stroke="#7f7f7f" stroke-width="1.2" points="82.17,-14.52 74.78,-13.95 80.2,-19.01 82.17,-14.52"/>
</g>
<!-- ex_homo -->
<g id="node9" class="node">
<title>ex_homo</title>
<path fill="white" stroke="#333333" stroke-width="1.2" d="M525.67,-516.5C525.67,-516.5 438.33,-516.5 438.33,-516.5 434.17,-516.5 430,-512.33 430,-508.17 430,-508.17 430,-499.83 430,-499.83 430,-495.67 434.17,-491.5 438.33,-491.5 438.33,-491.5 525.67,-491.5 525.67,-491.5 529.83,-491.5 534,-495.67 534,-499.83 534,-499.83 534,-508.17 534,-508.17 534,-512.33 529.83,-516.5 525.67,-516.5"/>
<text text-anchor="middle" x="482" y="-502.1" font-family="Arial" font-size="8.00">Homopolymer slippage</text>
</g>
<!-- instrument&#45;&gt;ex_homo -->
<g id="edge8" class="edge">
<title>instrument&#45;&gt;ex_homo</title>
<path fill="none" stroke="#555555" stroke-width="1.2" d="M367.39,-424.55C390.32,-442.66 430,-474 430,-474 430,-474 441.38,-480.69 453.39,-487.76"/>
<polygon fill="#555555" stroke="#555555" stroke-width="1.2" points="452.39,-490.01 459.67,-491.45 454.88,-485.79 452.39,-490.01"/>
</g>
<!-- ex_pcr -->
<g id="node10" class="node">
<title>ex_pcr</title>
<path fill="white" stroke="#333333" stroke-width="1.2" d="M512.17,-455.5C512.17,-455.5 451.83,-455.5 451.83,-455.5 447.67,-455.5 443.5,-451.33 443.5,-447.17 443.5,-447.17 443.5,-438.83 443.5,-438.83 443.5,-434.67 447.67,-430.5 451.83,-430.5 451.83,-430.5 512.17,-430.5 512.17,-430.5 516.33,-430.5 520.5,-434.67 520.5,-438.83 520.5,-438.83 520.5,-447.17 520.5,-447.17 520.5,-451.33 516.33,-455.5 512.17,-455.5"/>
<text text-anchor="middle" x="482" y="-441.1" font-family="Arial" font-size="8.00">PCR duplicates</text>
</g>
<!-- instrument&#45;&gt;ex_pcr -->
<g id="edge9" class="edge">
<title>instrument&#45;&gt;ex_pcr</title>
<path fill="none" stroke="#555555" stroke-width="1.2" d="M396.79,-422.84C409.59,-425.91 423.51,-429.24 436.28,-432.29"/>
<polygon fill="#555555" stroke="#555555" stroke-width="1.2" points="435.86,-434.71 443.24,-433.96 437,-429.95 435.86,-434.71"/>
</g>
<!-- ex_strand -->
<g id="node11" class="node">
<title>ex_strand</title>
<path fill="white" stroke="#333333" stroke-width="1.2" d="M505.17,-394.5C505.17,-394.5 458.83,-394.5 458.83,-394.5 454.67,-394.5 450.5,-390.33 450.5,-386.17 450.5,-386.17 450.5,-377.83 450.5,-377.83 450.5,-373.67 454.67,-369.5 458.83,-369.5 458.83,-369.5 505.17,-369.5 505.17,-369.5 509.33,-369.5 513.5,-373.67 513.5,-377.83 513.5,-377.83 513.5,-386.17 513.5,-386.17 513.5,-390.33 509.33,-394.5 505.17,-394.5"/>
<text text-anchor="middle" x="482" y="-380.1" font-family="Arial" font-size="8.00">Strand bias</text>
</g>
<!-- instrument&#45;&gt;ex_strand -->
<g id="edge10" class="edge">
<title>instrument&#45;&gt;ex_strand</title>
<path fill="none" stroke="#555555" stroke-width="1.2" d="M396.79,-401.51C411.96,-397.99 428.7,-394.12 443.23,-390.75"/>
<polygon fill="#555555" stroke="#555555" stroke-width="1.2" points="443.91,-393.11 450.17,-389.14 442.8,-388.33 443.91,-393.11"/>
</g>
<!-- ex_segdup -->
<g id="node12" class="node">
<title>ex_segdup</title>
<path fill="white" stroke="#333333" stroke-width="1.2" d="M525.67,-333.5C525.67,-333.5 438.33,-333.5 438.33,-333.5 434.17,-333.5 430,-329.33 430,-325.17 430,-325.17 430,-316.83 430,-316.83 430,-312.67 434.17,-308.5 438.33,-308.5 438.33,-308.5 525.67,-308.5 525.67,-308.5 529.83,-308.5 534,-312.67 534,-316.83 534,-316.83 534,-325.17 534,-325.17 534,-329.33 529.83,-333.5 525.67,-333.5"/>
<text text-anchor="middle" x="482" y="-319.1" font-family="Arial" font-size="8.00">Segmental duplications</text>
</g>
<!-- mapping&#45;&gt;ex_segdup -->
<g id="edge11" class="edge">
<title>mapping&#45;&gt;ex_segdup</title>
<path fill="none" stroke="#555555" stroke-width="1.2" d="M378.33,-272.64C398.47,-282.13 426.17,-295.17 447.73,-305.33"/>
<polygon fill="#555555" stroke="#555555" stroke-width="1.2" points="446.83,-307.61 454.2,-308.38 448.91,-303.18 446.83,-307.61"/>
</g>
<!-- ex_paralog -->
<g id="node13" class="node">
<title>ex_paralog</title>
<path fill="white" stroke="#333333" stroke-width="1.2" d="M517.17,-272.5C517.17,-272.5 446.83,-272.5 446.83,-272.5 442.67,-272.5 438.5,-268.33 438.5,-264.17 438.5,-264.17 438.5,-255.83 438.5,-255.83 438.5,-251.67 442.67,-247.5 446.83,-247.5 446.83,-247.5 517.17,-247.5 517.17,-247.5 521.33,-247.5 525.5,-251.67 525.5,-255.83 525.5,-255.83 525.5,-264.17 525.5,-264.17 525.5,-268.33 521.33,-272.5 517.17,-272.5"/>
<text text-anchor="middle" x="482" y="-258.1" font-family="Arial" font-size="8.00">Paralogous genes</text>
</g>
<!-- mapping&#45;&gt;ex_paralog -->
<g id="edge12" class="edge">
<title>mapping&#45;&gt;ex_paralog</title>
<path fill="none" stroke="#555555" stroke-width="1.2" d="M401.2,-260C411.07,-260 421.44,-260 431.31,-260"/>
<polygon fill="#555555" stroke="#555555" stroke-width="1.2" points="431.4,-262.45 438.4,-260 431.4,-257.55 431.4,-262.45"/>
</g>
<!-- ex_nonref -->
<g id="node14" class="node">
<title>ex_nonref</title>
<path fill="white" stroke="#333333" stroke-width="1.2" d="M522.67,-211.5C522.67,-211.5 441.33,-211.5 441.33,-211.5 437.17,-211.5 433,-207.33 433,-203.17 433,-203.17 433,-194.83 433,-194.83 433,-190.67 437.17,-186.5 441.33,-186.5 441.33,-186.5 522.67,-186.5 522.67,-186.5 526.83,-186.5 531,-190.67 531,-194.83 531,-194.83 531,-203.17 531,-203.17 531,-207.33 526.83,-211.5 522.67,-211.5"/>
<text text-anchor="middle" x="482" y="-197.1" font-family="Arial" font-size="8.00">Non&#45;ref allele penalty</text>
</g>
<!-- refbias&#45;&gt;ex_nonref -->
<g id="edge13" class="edge">
<title>refbias&#45;&gt;ex_nonref</title>
<path fill="none" stroke="#555555" stroke-width="1.2" d="M393.54,-199C403.84,-199 415.02,-199 425.83,-199"/>
<polygon fill="#555555" stroke="#555555" stroke-width="1.2" points="425.87,-201.45 432.87,-199 425.87,-196.55 425.87,-201.45"/>
</g>
<!-- ex_mosaic -->
<g id="node15" class="node">
<title>ex_mosaic</title>
<path fill="white" stroke="#333333" stroke-width="1.2" d="M503.17,-150.5C503.17,-150.5 460.83,-150.5 460.83,-150.5 456.67,-150.5 452.5,-146.33 452.5,-142.17 452.5,-142.17 452.5,-133.83 452.5,-133.83 452.5,-129.67 456.67,-125.5 460.83,-125.5 460.83,-125.5 503.17,-125.5 503.17,-125.5 507.33,-125.5 511.5,-129.67 511.5,-133.83 511.5,-133.83 511.5,-142.17 511.5,-142.17 511.5,-146.33 507.33,-150.5 503.17,-150.5"/>
<text text-anchor="middle" x="482" y="-136.1" font-family="Arial" font-size="8.00">Mosaicism</text>
</g>
<!-- lowsig&#45;&gt;ex_mosaic -->
<g id="edge14" class="edge">
<title>lowsig&#45;&gt;ex_mosaic</title>
<path fill="none" stroke="#555555" stroke-width="1.2" d="M401.2,-119.51C415.9,-122.92 431.69,-126.58 445.32,-129.73"/>
<polygon fill="#555555" stroke="#555555" stroke-width="1.2" points="444.86,-132.14 452.23,-131.34 445.96,-127.37 444.86,-132.14"/>
</g>
<!-- ex_coverage -->
<g id="node16" class="node">
<title>ex_coverage</title>
<path fill="white" stroke="#333333" stroke-width="1.2" d="M512.17,-89.5C512.17,-89.5 451.83,-89.5 451.83,-89.5 447.67,-89.5 443.5,-85.33 443.5,-81.17 443.5,-81.17 443.5,-72.83 443.5,-72.83 443.5,-68.67 447.67,-64.5 451.83,-64.5 451.83,-64.5 512.17,-64.5 512.17,-64.5 516.33,-64.5 520.5,-68.67 520.5,-72.83 520.5,-72.83 520.5,-81.17 520.5,-81.17 520.5,-85.33 516.33,-89.5 512.17,-89.5"/>
<text text-anchor="middle" x="482" y="-75.1" font-family="Arial" font-size="8.00">Coverage gaps</text>
</g>
<!-- lowsig&#45;&gt;ex_coverage -->
<g id="edge15" class="edge">
<title>lowsig&#45;&gt;ex_coverage</title>
<path fill="none" stroke="#555555" stroke-width="1.2" d="M401.2,-96.1C412.78,-93.33 425.03,-90.4 436.37,-87.68"/>
<polygon fill="#555555" stroke="#555555" stroke-width="1.2" points="437.07,-90.04 443.3,-86.02 435.93,-85.27 437.07,-90.04"/>
</g>
<!-- ex_complex -->
<g id="node17" class="node">
<title>ex_complex</title>
<path fill="white" stroke="#333333" stroke-width="1.2" d="M515.67,-28.5C515.67,-28.5 448.33,-28.5 448.33,-28.5 444.17,-28.5 440,-24.33 440,-20.17 440,-20.17 440,-11.83 440,-11.83 440,-7.67 444.17,-3.5 448.33,-3.5 448.33,-3.5 515.67,-3.5 515.67,-3.5 519.83,-3.5 524,-7.67 524,-11.83 524,-11.83 524,-20.17 524,-20.17 524,-24.33 519.83,-28.5 515.67,-28.5"/>
<text text-anchor="middle" x="482" y="-14.1" font-family="Arial" font-size="8.00">Complex variants</text>
</g>
<!-- lowsig&#45;&gt;ex_complex -->
<g id="edge16" class="edge">
<title>lowsig&#45;&gt;ex_complex</title>
<path fill="none" stroke="#555555" stroke-width="1.2" d="M367.39,-95.45C390.32,-77.34 430,-46 430,-46 430,-46 441.38,-39.31 453.39,-32.24"/>
<polygon fill="#555555" stroke="#555555" stroke-width="1.2" points="454.88,-34.21 459.67,-28.55 452.39,-29.99 454.88,-34.21"/>
</g>
<!-- leg_fp -->
<g id="node22" class="node">
<title>leg_fp</title>
<path fill="#d62728" stroke="#333333" stroke-width="1.2" d="M99.67,-424.5C99.67,-424.5 25.33,-424.5 25.33,-424.5 21.17,-424.5 17,-420.33 17,-416.17 17,-416.17 17,-407.83 17,-407.83 17,-403.67 21.17,-399.5 25.33,-399.5 25.33,-399.5 99.67,-399.5 99.67,-399.5 103.83,-399.5 108,-403.67 108,-407.83 108,-407.83 108,-416.17 108,-416.17 108,-420.33 103.83,-424.5 99.67,-424.5"/>
<text text-anchor="middle" x="62.5" y="-410.1" font-family="Arial" font-size="8.00" fill="white">FP = False Positive</text>
</g>
<!-- leg_fn -->
<g id="node23" class="node">
<title>leg_fn</title>
<path fill="#7f7f7f" stroke="#333333" stroke-width="1.2" d="M252.17,-424.5C252.17,-424.5 172.83,-424.5 172.83,-424.5 168.67,-424.5 164.5,-420.33 164.5,-416.17 164.5,-416.17 164.5,-407.83 164.5,-407.83 164.5,-403.67 168.67,-399.5 172.83,-399.5 172.83,-399.5 252.17,-399.5 252.17,-399.5 256.33,-399.5 260.5,-403.67 260.5,-407.83 260.5,-407.83 260.5,-416.17 260.5,-416.17 260.5,-420.33 256.33,-424.5 252.17,-424.5"/>
<text text-anchor="middle" x="212.5" y="-410.1" font-family="Arial" font-size="8.00" fill="white">FN = False Negative</text>
</g>
<!-- leg_fp&#45;&gt;leg_fn -->
</g>
</svg>
